<?xml version="1.0" standalone="no"?>
<!DOCTYPE svg PUBLIC "-//W3C//DTD SVG 1.1//EN" "http://www.w3.org/Graphics/SVG/1.1/DTD/svg11.dtd" >
<svg xmlns="http://www.w3.org/2000/svg">
<metadata></metadata>
<defs>
<font id="ddtw00-condensedheavyregular" horiz-adv-x="1161" >
<font-face units-per-em="2048" ascent="1638" descent="-410" />
<missing-glyph horiz-adv-x="501" />
<glyph unicode="&#x28;C&#x29;" horiz-adv-x="1490" d="M109 780q0 182 18 329.5t82.5 251t190.5 160t343 56.5t344 -56.5t193 -160t84 -250.5t18 -330q0 -182 -18 -329.5t-84 -252t-193 -160.5t-344 -56t-343 56t-190.5 160.5t-82.5 252t-18 329.5zM285 780q0 -137 10 -249.5t56 -192.5t137 -123t255 -43t256.5 43t137.5 123 t55 192.5t10 249.5t-10 249t-55 190.5t-137.5 121.5t-256.5 43t-255 -43t-137 -121.5t-56 -190t-10 -249.5zM489 780q0 72 4.5 131.5t29 102.5t76.5 66.5t151 23.5q86 0 134 -16.5t72.5 -48t31.5 -78t9 -103.5h-172q0 57 -14 75.5t-61 18.5q-53 0 -65.5 -28.5t-12.5 -100.5 v-100q0 -68 12 -98.5t66 -30.5q51 0 65 20.5t14 77.5h166q0 -63 -8 -110t-32.5 -78t-74 -46.5t-130.5 -15.5q-98 0 -150.5 26t-77 71t-29 106.5t-4.5 134.5z" />
<glyph unicode="&#x28;R&#x29;" horiz-adv-x="1142" d="M109 909q0 154 13 277t60 210t139.5 133t249.5 46q160 0 252 -46t139.5 -133t59.5 -210t12 -277t-12 -276.5t-59.5 -208.5t-139.5 -133t-252 -47q-158 0 -250 47t-139 133t-60 209t-13 276zM229 909q0 -117 7.5 -212t41 -162.5t102 -104.5t191.5 -37t191.5 37 t102.5 104.5t42 163t8 211.5q0 117 -8 212.5t-42 162t-102.5 103t-191.5 36.5t-191.5 -36.5t-102 -103t-41 -162t-7.5 -212.5zM424 610v590h158q84 0 123.5 -30.5t39.5 -122.5v-21q0 -70 -21.5 -101.5t-68.5 -37.5q16 -4 31.5 -9.5t28 -15.5t20.5 -30.5t8 -53.5v-71 q0 -51 11 -97h-115q-4 16 -7 35t-3 45v70q0 31 -6.5 52.5t-40.5 21.5h-43v-224h-115zM539 930h43q35 0 40 22.5t5 51.5v26q0 29 -5.5 51.5t-39.5 22.5h-43v-174z" />
<glyph unicode="&#x28;P&#x29;" horiz-adv-x="1492" d="M109 780q0 182 18 329.5t82.5 251t190.5 160t343 56.5t344 -56.5t194 -160t85 -250.5t18 -330q0 -182 -18 -329.5t-85 -252t-194 -160.5t-344 -56t-343 56t-190.5 160.5t-82.5 252t-18 329.5zM285 780q0 -137 10 -249.5t56 -192.5t137 -123t255 -43t256.5 43t137.5 123 t55 192.5t10 249.5t-10 249t-55 190.5t-137.5 121.5t-256.5 43t-255 -43t-137 -121.5t-56 -190t-10 -249.5zM528 446v676h263q70 0 112.5 -14t66 -45t31 -79t7.5 -114v-16q0 -59 -7.5 -103t-32 -74t-70.5 -45.5t-122 -15.5h-78v-170h-170zM698 764h86q37 0 43.5 21.5 t6.5 50.5v55q0 29 -6.5 55.5t-43.5 26.5h-86v-209z" />
<glyph horiz-adv-x="0" />
<glyph horiz-adv-x="0" />
<glyph horiz-adv-x="436" />
<glyph horiz-adv-x="501" />
<glyph unicode=" "  horiz-adv-x="501" />
<glyph unicode="&#x09;" horiz-adv-x="501" />
<glyph unicode="&#xa0;" horiz-adv-x="501" />
<glyph unicode="!" horiz-adv-x="706" d="M154 1554h387l-45 -1083h-299zM180 0v328h332v-328h-332z" />
<glyph unicode="&#x22;" horiz-adv-x="876" d="M84 1554h268l-35 -620h-200zM522 1554h268l-35 -620h-200z" />
<glyph unicode="#" horiz-adv-x="1007" d="M45 430v201h141l58 303h-142v201h179l81 419h207l-77 -419h141l80 419h207l-78 -419h116v-201h-153l-55 -303h151v-201h-190l-80 -430h-211l80 430h-140l-79 -430h-213l79 430h-102zM399 631h140l57 303h-141z" />
<glyph unicode="$" horiz-adv-x="997" d="M111 997q0 86 17 146.5t50 101.5t79 63.5t103 32.5v213h271v-215q45 -10 87 -27.5t72.5 -49t49 -77.5t18.5 -114q0 -31 -4 -51h-303q2 6 2 24q0 41 -17.5 55.5t-50.5 14.5q-25 0 -42 -12t-17 -43q0 -45 34 -65.5t85 -36t110.5 -33t110.5 -54t85 -104.5t34 -180 q0 -174 -60.5 -255t-193.5 -102v-229h-271v233q-49 8 -94 27t-78.5 52.5t-54 85t-20.5 124.5q0 27 1 39t3 21h311q-2 -4 -2 -11.5v-17.5q0 -43 22.5 -61.5t57.5 -18.5q33 0 56.5 12.5t23.5 55.5q0 31 -13.5 47t-33 24.5t-44 12.5t-46.5 10q-55 12 -115 30.5t-110 57.5 t-81.5 104.5t-31.5 169.5z" />
<glyph unicode="%" horiz-adv-x="1392" d="M127 1227q0 129 5 215t26.5 136t65.5 70.5t120 20.5q74 0 117 -20.5t65.5 -70.5t28.5 -136t6 -215t-6 -214t-28.5 -135.5t-65.5 -71t-117 -20.5q-76 0 -120 20.5t-65.5 71t-26.5 135.5t-5 214zM205 -43l712 1640h220l-709 -1640h-223zM303 1143q0 -80 5 -120t36 -40 t36 40t5 120v168q0 80 -5 120.5t-36 40.5t-36 -41t-5 -120v-168zM830 410q0 129 5 215t26.5 136t65.5 70.5t120 20.5q74 0 117 -20.5t65.5 -70.5t28.5 -136t6 -215t-6 -214t-28.5 -135.5t-65.5 -71t-117 -20.5q-76 0 -120 20.5t-65.5 71t-26.5 135.5t-5 214zM1006 326 q0 -80 5 -120t36 -40t36 40t5 120v168q0 80 -5 120.5t-36 40.5t-36 -41t-5 -120v-168z" />
<glyph unicode="&#x26;" horiz-adv-x="1226" d="M94 455q0 168 54.5 268t183.5 166q-72 92 -104.5 172t-32.5 182q0 76 17 137.5t60 105.5t115 67.5t180 23.5q106 0 176 -21.5t111 -65.5t57.5 -109.5t16.5 -153.5q0 -145 -52.5 -243.5t-183.5 -174.5l156 -248q4 25 7 49.5t3 55.5v137h270v-129q0 -121 -22.5 -227.5 t-56.5 -186.5l172 -260h-336l-37 45q-51 -33 -114.5 -48t-158.5 -15q-164 0 -259 33.5t-144 95t-63.5 148.5t-14.5 196zM436 459q0 -51 9.5 -83t29 -50.5t52 -24.5t81.5 -6q45 0 82 14l-215 342q-10 -12 -18 -26.5t-12.5 -36t-6.5 -52t-2 -77.5zM500 1202q0 -47 16 -94 t47 -84q45 35 59.5 83t14.5 95q0 35 -14.5 63.5t-53.5 28.5q-41 0 -55 -28.5t-14 -63.5z" />
<glyph unicode="'" horiz-adv-x="438" d="M84 1554h268l-35 -620h-200z" />
<glyph unicode="(" horiz-adv-x="823" d="M186 754q0 252 31 428t89.5 295.5t145.5 191.5t201 113l101 -197q-68 -27 -122 -85t-92 -157.5t-58.5 -244t-20.5 -344.5q0 -201 20.5 -345.5t58.5 -243.5t92 -157.5t122 -85.5l-101 -196q-115 41 -201.5 112.5t-145 191.5t-89.5 296t-31 428z" />
<glyph unicode=")" horiz-adv-x="821" d="M70 -78q68 27 122 85.5t92 157.5t58 243.5t20 345.5t-20 345t-58 243.5t-92.5 158t-121.5 84.5l98 197q115 -41 202 -113t146 -191.5t90 -295.5t31 -428t-31 -428t-90 -296t-146 -191.5t-202 -112.5z" />
<glyph unicode="*" horiz-adv-x="858" d="M84 1198l53 201l199 -84l-8 231h202l-10 -231l199 84l53 -201l-190 -72l116 -188l-161 -133l-109 180l-109 -180l-159 133l114 188z" />
<glyph unicode="+" horiz-adv-x="1007" d="M57 633v250h322v321h250v-321h321v-250h-321v-322h-250v322h-322z" />
<glyph unicode="," horiz-adv-x="591" d="M127 0v328h336v-252l-121 -299h-176l53 223h-92z" />
<glyph unicode="-" horiz-adv-x="626" d="M70 504v254h487v-254h-487z" />
<glyph unicode="." horiz-adv-x="591" d="M127 0v328h336v-328h-336z" />
<glyph unicode="/" horiz-adv-x="774" d="M25 -84l467 1661h251l-467 -1661h-251z" />
<glyph unicode="0" horiz-adv-x="1064" d="M45 778q0 233 12.5 388t61.5 246t146 128t267 37q168 0 265.5 -37t146.5 -128t61.5 -245.5t12.5 -388.5q0 -233 -12.5 -386.5t-61.5 -245t-146.5 -128t-265.5 -36.5q-170 0 -267 36.5t-146 128t-61.5 245t-12.5 386.5zM418 584q0 -70 2 -123t12 -88t33.5 -53.5 t66.5 -18.5t66 18.5t33 53.5t12 88t2 123v403q0 66 -2 116t-13.5 84t-34 50t-63.5 16q-43 0 -65.5 -16t-33.5 -50t-13 -84t-2 -116v-403z" />
<glyph unicode="1" horiz-adv-x="1064" d="M70 1165l364 389h379v-1554h-377v1110l-155 -162z" />
<glyph unicode="2" horiz-adv-x="1064" d="M74 0v250q0 123 17.5 216t59.5 167t110.5 132t172.5 112q57 31 95 54t60.5 49t31 58.5t8.5 81.5q0 78 -18.5 106.5t-67.5 28.5q-53 0 -70.5 -33.5t-17.5 -93.5q0 -33 2 -43h-361q-4 27 -4 52.5v50.5q0 131 38 209t99.5 117.5t141.5 51t164 11.5q94 0 178 -18.5 t147.5 -67.5t99 -132t35.5 -212q0 -72 -5 -135.5t-23.5 -119.5t-53 -104.5t-92.5 -91.5q-61 -47 -129.5 -80.5t-134.5 -74.5q-29 -18 -56.5 -38t-47 -44.5t-29.5 -57t-4 -75.5h579v-326h-925z" />
<glyph unicode="3" horiz-adv-x="1064" d="M51 399v43.5t2 30.5h359q-2 -12 -2 -25.5v-35.5q0 -25 2 -46.5t13 -39t32.5 -26.5t60.5 -9q41 0 63.5 9t33 26.5t12.5 39t2 46.5v110q0 31 -2 57.5t-11.5 46t-31 32t-60.5 12.5h-178v282h182q35 0 54.5 9.5t29 26t10.5 35.5t1 42v96q0 20 -2.5 40t-12.5 33t-30.5 21.5 t-57.5 8.5q-35 0 -55.5 -8.5t-30.5 -20.5t-12 -29.5t-2 -36.5q0 -27 2 -34h-348q-2 10 -2 19v36q0 70 9 138.5t53 123.5t135 90t257 35q162 0 255 -35t139.5 -94t57.5 -137t11 -162q0 -119 -39 -207t-149 -115q111 -23 158 -128t47 -285q0 -92 -16.5 -172t-67 -137.5 t-145.5 -90t-251 -32.5q-160 0 -254 32.5t-143 89t-63.5 132t-14.5 163.5z" />
<glyph unicode="4" horiz-adv-x="1064" d="M78 242v368l391 944h449v-987h83v-325h-83v-242h-351v242h-489zM385 567h190l5 279q0 68 2 136.5t10 133.5q-18 -63 -41 -121.5t-45 -117.5z" />
<glyph unicode="5" horiz-adv-x="1064" d="M78 336v38t2 25h360q-2 -4 -2 -11v-13q0 -10 2 -24.5t10.5 -27t26 -21.5t47.5 -9q37 0 57.5 14.5t30 37t11.5 50t2 56.5v161q0 31 -2 60.5t-12.5 52.5t-33 36t-63.5 13q-47 0 -68.5 -19.5t-29.5 -56.5h-318l58 856h811v-325h-502l-19 -250q35 53 90.5 71.5t129.5 18.5 q125 0 192.5 -35t98 -100.5t35.5 -163.5t5 -223q0 -117 -7 -220.5t-52 -179t-142.5 -119.5t-277.5 -44q-98 0 -180 15t-139.5 55t-89 107.5t-31.5 174.5z" />
<glyph unicode="6" horiz-adv-x="1064" d="M78 780q0 180 7 326.5t53 251t146.5 162t284.5 57.5q88 0 164 -11.5t130.5 -46t85 -98t30.5 -170.5q0 -20 -1 -39.5t-3 -35.5h-336q2 6 2 20q0 35 -19.5 57.5t-78.5 22.5q-63 0 -84 -41t-21 -145v-224q35 59 94.5 91t159.5 32q94 0 154.5 -23.5t95.5 -80t48.5 -149.5 t13.5 -230q0 -143 -16.5 -243.5t-66 -163t-139.5 -90t-239 -27.5q-166 0 -260.5 44t-139.5 139t-55 246.5t-10 368.5zM438 410q0 -25 2 -46.5t11.5 -37t31 -24.5t60.5 -9q37 0 57.5 9t29.5 24.5t11 37t2 46.5v133q0 29 -2 55.5t-11 47t-29.5 32.5t-57.5 12q-39 0 -60.5 -12 t-31 -32.5t-11.5 -47.5t-2 -55v-133z" />
<glyph unicode="7" horiz-adv-x="1064" d="M109 1229v325h811v-290q-57 -131 -105.5 -289t-86.5 -325t-63.5 -333.5t-39.5 -316.5h-402q20 150 58 315.5t86.5 328.5t105.5 314.5t121 270.5h-485z" />
<glyph unicode="8" horiz-adv-x="1064" d="M68 410q0 109 13 180.5t38.5 117.5t61.5 71.5t81 41.5q-41 14 -72.5 36t-55 58.5t-36 93t-12.5 140.5q0 102 11.5 182t56.5 134.5t134 83t244 28.5q156 0 245 -28.5t134 -83t56.5 -134.5t11.5 -182q0 -84 -12.5 -140.5t-35 -93t-55 -58t-73.5 -36.5q45 -16 81 -41.5 t61.5 -71.5t38.5 -118t13 -180q0 -102 -16 -182.5t-66.5 -134.5t-141.5 -82.5t-241 -28.5t-240.5 28.5t-141 82.5t-66.5 134t-16 183zM432 408q0 -25 2 -46.5t11.5 -37t30 -24.5t56.5 -9q39 0 59.5 9t30 24.5t11.5 37t2 46.5v127q0 31 -2 57t-11.5 45.5t-30 32t-59.5 12.5 q-37 0 -57 -12.5t-29.5 -32t-11.5 -46t-2 -56.5v-127zM436 1057q0 -23 1 -42.5t10.5 -35.5t29 -25.5t55.5 -9.5q37 0 56.5 9.5t29 25.5t10.5 35.5t1 42.5v104q0 43 -16.5 73t-80.5 30q-33 0 -51 -8.5t-28.5 -21.5t-13.5 -32.5t-3 -40.5v-104z" />
<glyph unicode="9" horiz-adv-x="1064" d="M70 1053q0 143 16 243.5t65.5 163t139.5 90t239 27.5q166 0 260.5 -44t139.5 -139.5t55 -247t10 -368.5q0 -180 -8 -326.5t-54 -251t-145.5 -161.5t-283.5 -57q-90 0 -165 11t-128 46t-84 98.5t-31 169.5v40t2 36h336q-2 -6 -2 -21q0 -35 19.5 -57t78.5 -22q63 0 84 41 t21 145v223q-35 -59 -94.5 -91t-159.5 -32q-94 0 -154.5 23.5t-95.5 80t-48 148.5t-13 232zM430 1016q0 -29 2 -55.5t11.5 -47t30 -33t56.5 -12.5q39 0 60.5 12.5t31 33t11.5 47t2 55.5v133q0 25 -2 46.5t-11.5 36.5t-31 24.5t-60.5 9.5q-37 0 -57 -9.5t-29.5 -24.5 t-11.5 -36.5t-2 -46.5v-133z" />
<glyph unicode=":" horiz-adv-x="591" d="M127 0v328h336v-328h-336zM127 762v328h336v-328h-336z" />
<glyph unicode=";" horiz-adv-x="591" d="M127 0v328h336v-252l-115 -279h-188l41 203h-74zM127 762v328h336v-328h-336z" />
<glyph unicode="&#x3c;" horiz-adv-x="1007" d="M57 662v206l893 480v-295l-622 -287l622 -289v-295z" />
<glyph unicode="=" horiz-adv-x="1007" d="M57 397v250h893v-250h-893zM57 868v250h893v-250h-893z" />
<glyph unicode="&#x3e;" horiz-adv-x="1007" d="M57 182v295l625 289l-625 287v295l893 -480v-206z" />
<glyph unicode="?" horiz-adv-x="983" d="M104 1188q0 125 30 200.5t83 117.5t126 56.5t157 14.5t155.5 -13.5t123.5 -55.5t82 -116.5t30 -197.5q0 -66 -7 -137.5t-36 -124.5t-67 -89t-72.5 -71t-59 -76t-24.5 -104v-127h-293v133q0 61 5 131t34 121q33 55 72.5 92t74.5 82q25 29 31 61.5t6 73.5q0 43 -11.5 80 t-56.5 37q-47 0 -63 -28.5t-16 -82.5q0 -10 1 -26.5t3 -28.5h-303q-2 14 -3.5 30.5t-1.5 47.5zM311 0v328h334v-328h-334z" />
<glyph unicode="@" horiz-adv-x="1273" d="M127 670q0 100 2 198.5t17.5 186.5t48 162.5t94 130t155 86t230.5 30.5q154 0 245 -45t140 -120.5t63.5 -172t14.5 -200.5v-553q0 -41 2 -87t8 -96h-186l-11 101q-33 -47 -86 -78t-112 -31q-86 0 -135.5 34t-75 92.5t-31.5 136t-6 167.5q0 100 5 177t29.5 129.5t77 79 t144.5 26.5q35 0 60.5 -2t46 -9t38 -19.5t37.5 -30.5v43q0 39 -12 69.5t-43 51t-84 31.5t-135 11q-115 0 -179.5 -24.5t-97.5 -72.5t-41 -116.5t-8 -154.5v-256q0 -147 7 -255t46 -179.5t119 -106.5t225 -35q154 0 253.5 38t146.5 79v-250q-45 -37 -145.5 -65.5 t-254.5 -28.5t-258 30.5t-172.5 87t-105.5 138.5t-53.5 185.5t-19.5 225t-3 261.5zM707 569q0 -29 2 -59.5t11 -56t30.5 -43t62.5 -17.5q49 0 77 15.5t42 35.5v322q-23 33 -46.5 47t-72.5 14q-72 0 -89 -38.5t-17 -102.5v-117z" />
<glyph unicode="A" d="M55 0l326 1554h412l313 -1554h-373l-47 305h-211l-47 -305h-373zM520 621h121q-12 76 -21.5 141t-15.5 124.5t-11 118t-9 123.5q-4 -66 -10.5 -124t-14.5 -117.5t-17.5 -125t-21.5 -140.5z" />
<glyph unicode="B" horiz-adv-x="1196" d="M127 0v1554h547q152 0 234.5 -38.5t120.5 -99t44 -132.5t6 -137q0 -150 -41 -227.5t-153 -104.5q121 -12 172 -111.5t51 -254.5q0 -80 -6 -160t-45 -144.5t-124 -104.5t-241 -40h-565zM516 336h102q31 0 49.5 5t28 17.5t12.5 34t3 56.5v73q0 76 -16.5 106.5t-76.5 30.5 h-102v-323zM516 940h102q51 0 64.5 28.5t13.5 114.5q0 76 -13 105t-65 29h-102v-277z" />
<glyph unicode="C" d="M109 776q0 233 14 387t64.5 246t148.5 130t266 38q143 0 231.5 -26.5t136.5 -90t64.5 -166t16.5 -256.5h-351q2 6 2 23.5v30.5q0 74 -20 111.5t-80 37.5q-37 0 -56.5 -14.5t-29.5 -43t-12 -69.5t-2 -92v-438q0 -139 14 -205t86 -66q59 0 79.5 43t20.5 136v37t-2 26h353 q0 -164 -15.5 -273.5t-62.5 -176t-136 -95t-237 -28.5q-168 0 -266 36.5t-148.5 128t-64.5 244t-14 385.5z" />
<glyph unicode="D" horiz-adv-x="1200" d="M127 0v1554h485q139 0 231.5 -35.5t148 -116.5t78 -212t22.5 -320v-186q0 -188 -22.5 -319.5t-78 -212t-147.5 -116.5t-232 -36h-485zM518 338h76q63 0 84.5 66.5t21.5 195.5v354q0 131 -21.5 197t-84.5 66h-76v-879z" />
<glyph unicode="E" horiz-adv-x="1034" d="M127 0v1554h795v-360h-426v-215h405v-326h-405v-297h432v-356h-801z" />
<glyph unicode="F" horiz-adv-x="966" d="M127 0v1554h782v-344h-391v-278h350v-342h-350v-590h-391z" />
<glyph unicode="G" horiz-adv-x="1193" d="M109 776q0 233 14 387t64.5 246t148.5 130t266 38q143 0 231.5 -26.5t136.5 -90t64.5 -166t16.5 -256.5h-351q2 6 2 23.5v30.5q0 74 -20 111.5t-80 37.5q-37 0 -56.5 -14.5t-29.5 -43t-12 -69.5t-2 -92v-430q0 -70 2 -117t12 -76.5t29.5 -42t56.5 -12.5h105v207h-99v332 h461v-883h-467q-168 0 -266 34t-148.5 122t-64.5 237.5t-14 382.5z" />
<glyph unicode="H" horiz-adv-x="1218" d="M127 0v1554h391v-577h178v577h394v-1554h-394v635h-178v-635h-391z" />
<glyph unicode="I" horiz-adv-x="665" d="M139 0v1554h389v-1554h-389z" />
<glyph unicode="J" horiz-adv-x="1099" d="M57 432v123h375v-123q0 -68 17.5 -90.5t68.5 -22.5q39 0 56.5 23t17.5 90v1122h391v-1122q0 -137 -22.5 -224t-79 -137.5t-152.5 -69.5t-244 -19q-125 0 -206.5 23.5t-131 75.5t-70 138t-20.5 213z" />
<glyph unicode="K" horiz-adv-x="1243" d="M127 0v1554h385v-251q0 -74 -1 -126.5t-2 -93.5t-4 -75.5t-5 -75.5q12 39 23.5 71.5t23.5 67.5t28.5 75t38.5 89l142 319h428l-363 -700l375 -854h-434l-150 377q-31 80 -59.5 165t-50.5 156q2 -37 4 -71.5t4 -74.5t2 -88v-112v-352h-385z" />
<glyph unicode="L" horiz-adv-x="940" d="M127 0v1554h391v-1204h377v-350h-768z" />
<glyph unicode="M" horiz-adv-x="1628" d="M121 0v1554h518l104 -555q23 -111 41.5 -225.5t30.5 -212.5q14 98 34.5 213t43.5 225l115 555h497v-1554h-331v621q0 84 2 166.5t6 166.5q-27 -162 -68 -333l-143 -621h-348l-127 621q-16 86 -33 168.5t-29 164.5q6 -84 8 -165.5t2 -167.5v-621h-323z" />
<glyph unicode="N" horiz-adv-x="1273" d="M121 0v1554h491l164 -581q18 -63 35.5 -129t30.5 -131q-6 129 -6 260v581h319v-1554h-453l-210 711q-16 63 -34 129.5t-32 126.5q4 -61 6 -126t2 -130v-711h-313z" />
<glyph unicode="O" horiz-adv-x="1204" d="M109 776q0 233 14 387t64.5 246t148.5 130t266 38t266.5 -38t148.5 -130t64.5 -245.5t14.5 -387.5q0 -233 -14.5 -385.5t-64.5 -244t-148.5 -128t-266.5 -36.5t-266 36.5t-148.5 128t-64.5 244t-14 385.5zM502 584q0 -139 14 -205t86 -66q37 0 56.5 16.5t28.5 49.5t11 84 t2 121v438q0 51 -2 92t-11 69.5t-28.5 43t-56.5 14.5t-56.5 -14.5t-29.5 -43t-12 -69.5t-2 -92v-438z" />
<glyph unicode="P" horiz-adv-x="1132" d="M127 0v1554h535q133 0 211.5 -28.5t119.5 -89t53.5 -154.5t12.5 -225v-96q0 -119 -12.5 -208t-56.5 -149.5t-128 -90.5t-227 -30h-117v-483h-391zM518 819h88q27 0 41.5 10.5t20.5 26.5t7 37.5t1 46.5v129q0 27 -1 51.5t-7 45t-20.5 32.5t-41.5 12h-88v-391z" />
<glyph unicode="Q" horiz-adv-x="1204" d="M109 791q0 229 14 380.5t64.5 241.5t148.5 127t266 37t266.5 -37t148.5 -127t64.5 -241.5t14.5 -380.5q0 -221 -13.5 -369t-58.5 -237t-134 -129t-239 -46q10 -41 33 -64.5t50.5 -35.5t58 -16.5t55.5 -4.5q66 0 119 24t88 48v-350q-41 -18 -103.5 -31.5t-132.5 -13.5 q-61 0 -127.5 16.5t-120 58.5t-88 113.5t-34.5 179.5q0 23 2 45.5t4 38.5q-117 14 -185.5 61.5t-104.5 138.5t-46 231.5t-10 341.5zM502 584q0 -139 14 -205t86 -66q37 0 56.5 16.5t28.5 49.5t11 84t2 121v438q0 51 -2 92t-11 69.5t-28.5 43t-56.5 14.5t-56.5 -14.5 t-29.5 -43t-12 -69.5t-2 -92v-438z" />
<glyph unicode="R" horiz-adv-x="1175" d="M127 0v1554h471q117 0 206 -18t147.5 -66.5t88 -130.5t29.5 -211v-53q0 -164 -44 -242.5t-148 -99.5q43 -10 76.5 -26.5t58 -47t37 -77.5t12.5 -121v-172q0 -51 2 -90t5 -73t9 -63.5t13 -62.5h-381q-16 45 -21.5 105.5t-5.5 144.5v172q0 57 -13.5 99t-70.5 42h-80v-563 h-391zM518 872h80q29 0 44 13.5t23.5 34t9.5 46t1 52.5v67q0 25 -1 48.5t-9.5 42t-23.5 30t-44 11.5h-80v-345z" />
<glyph unicode="S" horiz-adv-x="1140" d="M102 397q0 20 2 49t5 52h376q-6 -37 -6 -80q0 -41 12.5 -75t65.5 -34q27 0 42 13.5t23.5 34t9.5 46t1 50.5q0 49 -9.5 82.5t-50.5 60.5q-41 29 -88 49.5t-96 42.5q-53 25 -102 62.5t-88 89t-61.5 118t-22.5 152.5q0 137 29.5 228.5t87 143.5t142.5 73.5t197 21.5 q92 0 173 -12.5t141.5 -52t95.5 -116.5t35 -204q0 -43 -1 -64.5t-3 -31.5h-367q0 8 1 18t1 31q0 18 -2 36.5t-8 34t-18.5 24.5t-34.5 9q-45 0 -56.5 -30.5t-11.5 -77.5q0 -51 12.5 -81t34 -47.5t51 -26.5t62.5 -17q25 -6 57.5 -15.5t63.5 -19.5q76 -27 124 -74t74.5 -107.5 t35.5 -133t9 -150.5q0 -145 -26.5 -239.5t-84 -149.5t-145.5 -76.5t-213 -21.5q-98 0 -184 15t-148.5 60t-99.5 126t-37 214z" />
<glyph unicode="T" horiz-adv-x="966" d="M43 1204v350h885v-350h-250v-1204h-389v1204h-246z" />
<glyph unicode="U" horiz-adv-x="1189" d="M119 432v1122h387v-1122q0 -68 21.5 -90.5t66.5 -22.5q47 0 68.5 23t21.5 90v1122h389v-1122q0 -137 -23.5 -224t-79 -137.5t-146.5 -69.5t-226 -19t-227 19t-147.5 69.5t-80 137.5t-24.5 224z" />
<glyph unicode="V" d="M55 1554h389l86 -550q8 -59 15.5 -111.5t13.5 -102t11 -99.5t10 -105q4 55 9 105t12 100.5t14.5 102.5t17.5 112l86 548h387l-324 -1554h-413z" />
<glyph unicode="W" horiz-adv-x="1716" d="M43 1554h385l64 -503q12 -94 20 -189.5t14 -191.5q4 96 14.5 191t22.5 190l66 503h469l67 -503q12 -92 21.5 -188.5t15.5 -192.5q6 96 15.5 191t19.5 190l61 503h377l-233 -1554h-443l-75 463q-20 121 -37 244.5t-29 246.5q-12 -123 -29.5 -246.5t-40.5 -244.5l-79 -463 h-435z" />
<glyph unicode="X" horiz-adv-x="1169" d="M45 0l320 809l-299 745h370l88 -243q20 -59 40 -124t32 -130q14 66 34.5 130t43.5 124l94 243h338l-291 -739l311 -815h-372l-103 299q-23 61 -39 125.5t-30 130.5q-16 -66 -35 -129.5t-41 -126.5l-107 -299h-354z" />
<glyph unicode="Y" horiz-adv-x="1167" d="M45 1554h424l82 -356q12 -53 23.5 -108.5t15.5 -108.5q6 53 16 108.5t23 108.5l80 356h413l-346 -1067v-487h-383v487z" />
<glyph unicode="Z" horiz-adv-x="991" d="M72 0v340l501 868h-458v346h792v-315l-485 -895h500v-344h-850z" />
<glyph unicode="[" horiz-adv-x="665" d="M186 -272v2054h410v-187h-217v-1679h217v-188h-410z" />
<glyph unicode="\" horiz-adv-x="681" d="M31 1577h174l463 -1661h-172z" />
<glyph unicode="]" horiz-adv-x="665" d="M70 -84h217v1679h-217v187h409v-2054h-409v188z" />
<glyph unicode="^" horiz-adv-x="976" d="M127 817l258 737h197l266 -737h-197l-170 512l-168 -512h-186z" />
<glyph unicode="_" horiz-adv-x="915" d="M27 -98h864v-162h-864v162z" />
<glyph unicode="`" horiz-adv-x="778" d="M127 1288v242l524 -193v-145z" />
<glyph unicode="a" horiz-adv-x="1081" d="M104 356q0 90 18.5 153.5t58.5 103.5t105.5 58.5t157.5 18.5q68 0 104 -6t60 -16v94q0 59 -18.5 77.5t-50.5 18.5q-33 0 -49.5 -15.5t-16.5 -58.5h-330q4 115 31 180.5t80 97.5t134 40t194 8q72 0 140.5 -11.5t121.5 -50t86 -112.5t33 -199v-514q0 -53 1 -87t2 -58.5 t4 -42t7 -35.5h-297l-10 109q-20 -57 -81 -92t-192 -35q-80 0 -135 16t-91 58t-51.5 115t-15.5 185zM461 332q0 -51 18.5 -65.5t42.5 -14.5q63 0 86 37v160q-6 4 -21.5 9t-31.5 5q-55 0 -74.5 -16.5t-19.5 -81.5v-33z" />
<glyph unicode="b" horiz-adv-x="1138" d="M137 0v1554h352v-565q53 66 100.5 93.5t115.5 27.5q121 0 186 -40t95 -112.5t35 -172t5 -216.5q0 -119 -5 -225t-37 -187t-101.5 -128t-196.5 -47q-63 0 -121.5 34.5t-99.5 87.5v-104h-328zM492 430q0 -80 14 -114.5t69 -34.5q59 0 80 34.5t21 120.5v211q0 92 -20.5 128 t-80.5 36q-55 0 -69 -36t-14 -116v-229z" />
<glyph unicode="c" horiz-adv-x="1120" d="M117 557q0 119 13 220.5t60.5 175t140.5 115.5t251 42q129 0 212 -27t131 -76t67.5 -120.5t21.5 -161.5h-332q-2 47 -25.5 67.5t-74.5 20.5q-63 0 -85 -42t-22 -140v-172q0 -98 21.5 -139t85.5 -41q51 0 74.5 21.5t27.5 69.5h328q-2 -92 -21.5 -163.5t-69 -121.5 t-131 -76.5t-208.5 -26.5q-158 0 -251 43t-140.5 118.5t-60.5 181t-13 232.5z" />
<glyph unicode="d" horiz-adv-x="1144" d="M121 569q0 117 5 216.5t34.5 172t95.5 112.5t186 40q68 0 115 -27.5t100 -93.5v565h353v-1554h-326v104q-43 -53 -101.5 -87.5t-121.5 -34.5q-127 0 -196.5 47t-101.5 128t-37 187.5t-5 224.5zM471 436q0 -86 20.5 -120.5t79.5 -34.5q55 0 69.5 34.5t14.5 114.5v229 q0 80 -14 116t-70 36q-59 0 -79.5 -36t-20.5 -128v-211z" />
<glyph unicode="e" horiz-adv-x="1128" d="M113 557q0 123 13 224.5t61.5 175t139.5 113.5t246 40q150 0 239 -41t135 -109.5t59.5 -158.5t13.5 -191q0 -76 -6 -143h-543q0 -104 23.5 -146t78.5 -42q47 0 68 18t25 55h338q-10 -90 -34 -159.5t-73 -116.5t-127 -70.5t-197 -23.5q-152 0 -242.5 44t-139 120.5 t-63.5 182t-15 228.5zM471 670h211q-4 78 -28.5 110.5t-78.5 32.5q-51 0 -75.5 -32.5t-28.5 -110.5z" />
<glyph unicode="f" horiz-adv-x="675" d="M59 823v267h76v81q0 111 18.5 187t59.5 124t104.5 68.5t155.5 20.5q49 0 85 -7.5t52 -15.5v-276q-6 4 -19 6t-40 2q-39 0 -51.5 -26.5t-12.5 -73.5v-90h117v-267h-117v-823h-354v823h-74z" />
<glyph unicode="g" horiz-adv-x="1112" d="M102 563q0 125 5.5 226.5t37 172t101 109.5t196.5 39q63 0 122 -36t100 -89v105h327v-977q0 -127 -13 -232.5t-61.5 -181.5t-140.5 -119t-250 -43q-121 0 -200.5 23.5t-126.5 68.5t-66.5 113t-19.5 154h331q4 -35 21.5 -48.5t60.5 -13.5q63 0 88 41t25 139v146 q-53 -66 -100 -92.5t-115 -26.5q-121 0 -186.5 40t-95 109.5t-35 166t-5.5 206.5zM453 500q0 -92 20.5 -128t79.5 -36q55 0 69.5 36t14.5 115v172q0 80 -14.5 115t-69.5 35q-59 0 -79.5 -34t-20.5 -120v-155z" />
<glyph unicode="h" horiz-adv-x="1140" d="M137 0v1554h355v-565q45 61 97 91t120 30q94 0 155.5 -21.5t95 -60.5t47 -95t13.5 -126v-807h-350v717q0 57 -20.5 75.5t-69.5 18.5t-68.5 -18.5t-19.5 -75.5v-717h-355z" />
<glyph unicode="i" horiz-adv-x="634" d="M139 0v1090h355v-1090h-355zM139 1255v299h355v-299h-355z" />
<glyph unicode="j" horiz-adv-x="636" d="M10 -164q8 -4 20.5 -6t39.5 -2q39 0 52 26.5t13 73.5v1162h354v-1153q0 -111 -18 -187t-59 -124t-105.5 -68.5t-156.5 -20.5q-49 0 -86 7t-54 16v276zM135 1255v299h354v-299h-354z" />
<glyph unicode="k" horiz-adv-x="1075" d="M137 0v1554h352v-620q0 -57 -2 -114.5t-6 -112.5q16 49 33.5 104t40.5 111l63 168h394l-226 -449l236 -641h-397l-70 266q-23 76 -40 153t-34 152q4 -78 6 -157.5t2 -157.5v-256h-352z" />
<glyph unicode="l" horiz-adv-x="628" d="M137 0v1554h355v-1554h-355z" />
<glyph unicode="m" horiz-adv-x="1660" d="M137 0v1090h326v-101q47 66 109.5 93.5t134.5 27.5q121 0 182 -31.5t90 -91.5q51 68 112.5 95.5t135.5 27.5q96 0 156.5 -21.5t95 -60.5t48 -95t13.5 -126v-807h-350v717q0 57 -20.5 75.5t-69.5 18.5t-68.5 -18.5t-19.5 -75.5v-717h-342v717q0 57 -20.5 75.5t-69.5 18.5 t-68.5 -18.5t-19.5 -75.5v-717h-355z" />
<glyph unicode="n" horiz-adv-x="1140" d="M137 0v1090h326v-101q47 66 109.5 93.5t134.5 27.5q96 0 156.5 -21.5t95 -60.5t48 -95t13.5 -126v-807h-350v717q0 57 -20.5 75.5t-69.5 18.5t-68.5 -18.5t-19.5 -75.5v-717h-355z" />
<glyph unicode="o" horiz-adv-x="1157" d="M113 557q0 119 13 220.5t60 175t140.5 115.5t251.5 42t250 -42t140 -115.5t61 -175t13 -220.5q0 -127 -13 -232.5t-61 -181t-140 -118.5t-250 -43t-251.5 43t-140.5 118.5t-60 181t-13 232.5zM471 459q0 -98 21.5 -139t85.5 -41q63 0 84.5 40.5t21.5 139.5v172 q0 98 -21.5 140t-84.5 42t-85 -42t-22 -140v-172z" />
<glyph unicode="p" horiz-adv-x="1142" d="M137 -463v1553h328v-105q41 53 99.5 89t121.5 36q127 0 196.5 -47t101.5 -128t37 -188.5t5 -226.5q0 -117 -5 -216t-35 -171t-95.5 -111.5t-185.5 -39.5q-68 0 -115 26.5t-101 91.5v-563h-352zM492 430q0 -80 14 -115.5t69 -35.5q59 0 80 35.5t21 127.5v213 q0 86 -20.5 120t-80.5 34q-55 0 -69 -35t-14 -115v-229z" />
<glyph unicode="q" horiz-adv-x="1142" d="M117 520q0 119 5 226.5t36.5 188.5t101.5 128t197 47q63 0 121.5 -36t101.5 -89v105h326v-1553h-353v563q-53 -66 -100 -92t-115 -26q-121 0 -186.5 39.5t-95 111.5t-34.5 171t-5 216zM467 442q0 -92 20.5 -127.5t79.5 -35.5q55 0 69.5 35.5t14.5 115.5v229q0 80 -14 115 t-70 35q-59 0 -79.5 -34t-20.5 -120v-213z" />
<glyph unicode="r" horiz-adv-x="823" d="M137 0v1090h326v-101q16 37 42.5 59.5t56.5 37t60.5 19.5t57.5 5q45 0 94 -12v-336q-45 43 -133 43q-72 0 -110.5 -31t-38.5 -102v-672h-355z" />
<glyph unicode="s" horiz-adv-x="966" d="M92 756q0 106 27.5 175.5t77 108.5t119 54.5t153.5 15.5q63 0 129 -9t120 -38t89 -85t35 -149q0 -31 -4 -51h-303v25q0 41 -16.5 55t-49.5 14q-25 0 -42 -12t-17 -43q0 -45 33.5 -65.5t85 -36t110.5 -32.5t110.5 -54t85 -104.5t33.5 -180.5q0 -104 -21.5 -174t-65.5 -112 t-113.5 -59t-167.5 -17q-68 0 -138.5 8t-130 38.5t-97.5 90t-38 162.5q0 27 1 39t3 20h312q-2 -4 -2 -11v-18q0 -43 22.5 -61.5t56.5 -18.5q33 0 56.5 12.5t23.5 55.5q0 31 -13 47t-32.5 24.5t-44 12.5t-47.5 10q-55 12 -115.5 30.5t-109.5 57.5t-82 104.5t-33 170.5z" />
<glyph unicode="t" horiz-adv-x="649" d="M37 823v267h74v317h354v-317h117v-267h-117v-450q0 -47 12 -74t51 -27q29 0 41.5 2t18.5 7v-277q-16 -8 -52 -15t-85 -7q-92 0 -156 20.5t-104.5 68.5t-59 123.5t-18.5 186.5v442h-76z" />
<glyph unicode="u" horiz-adv-x="1134" d="M127 283v807h350v-717q0 -57 19.5 -75.5t66.5 -18.5t65.5 18t18.5 76v717h352v-1090h-323v100q-47 -66 -105.5 -92t-132.5 -26q-94 0 -154.5 20.5t-95 59t-48 95t-13.5 126.5z" />
<glyph unicode="v" horiz-adv-x="962" d="M53 1090h344l56 -390q10 -78 17 -156.5t11 -148.5q4 70 12.5 149t18.5 156l57 390h338l-229 -1090h-402z" />
<glyph unicode="w" horiz-adv-x="1423" d="M45 1090h320l36 -295q14 -106 22.5 -211t12.5 -211q6 106 14.5 210.5t22.5 211.5l39 295h403l37 -295q12 -106 20.5 -211t14.5 -211q4 106 14.5 210.5t22.5 211.5l35 295h315l-164 -1090h-419l-41 324q-14 94 -23.5 188t-15.5 188q-8 -94 -18.5 -188t-22.5 -188l-45 -324 h-420z" />
<glyph unicode="x" horiz-adv-x="1015" d="M47 0l186 580l-172 510h365l35 -125q16 -57 28.5 -115.5t20.5 -118.5q8 59 22.5 117.5t32.5 116.5l39 125h348l-176 -523l187 -567h-375l-37 137q-33 119 -51 246q-14 -121 -51 -246l-41 -137h-361z" />
<glyph unicode="y" horiz-adv-x="952" d="M55 1090h344l56 -390q10 -78 17 -156.5t11 -148.5q4 70 12.5 149t18.5 156l57 390h338l-229 -1090l-105 -463h-380l100 385z" />
<glyph unicode="z" horiz-adv-x="854" d="M84 0v283l190 346q45 80 77 125t48 61q-25 -6 -62.5 -9t-98.5 -3h-138v287h658v-254l-199 -385q-31 -59 -58.5 -101.5t-60.5 -79.5q45 10 85 13.5t87 3.5h156v-287h-684z" />
<glyph unicode="{" horiz-adv-x="768" d="M111 641v229h57q45 0 63.5 25t18.5 100v471q0 90 21.5 150.5t58.5 97.5t86 52.5t102 15.5h180v-250h-135q-41 0 -52 -24.5t-11 -71.5v-471q0 -82 -38 -139.5t-112 -69.5q74 -12 112 -69.5t38 -139.5v-473q0 -47 11 -72t52 -25h135v-249h-180q-53 0 -102 15t-86 52 t-58.5 97.5t-21.5 150.5v473q0 76 -18.5 100.5t-63.5 24.5h-57z" />
<glyph unicode="|" horiz-adv-x="581" d="M180 -362v2156h221v-2156h-221z" />
<glyph unicode="}" horiz-adv-x="768" d="M70 -23h133q41 0 52 25t11 72v473q0 82 38 139t112 70q-74 12 -112 69.5t-38 139.5v471q0 47 -11 71.5t-52 24.5h-133v250h178q53 0 102 -15.5t86 -52.5t58.5 -97.5t21.5 -150.5v-471q0 -76 18.5 -100.5t63.5 -24.5h59v-229h-59q-45 0 -63.5 -24.5t-18.5 -100.5v-473 q0 -90 -21.5 -150.5t-58.5 -97.5t-86 -52t-102 -15h-178v249z" />
<glyph unicode="~" horiz-adv-x="1249" d="M57 547v248q133 82 295 82q74 0 141.5 -14.5t135 -31t137.5 -31t147 -14.5q51 0 90 5.5t71 17.5t59.5 30.5t58.5 47.5v-248q-127 -84 -295 -84q-72 0 -138.5 14.5t-133 33t-136 32.5t-145.5 14q-53 0 -92 -6t-72 -18.5t-61.5 -32t-61.5 -45.5z" />
<glyph unicode="&#xa1;" horiz-adv-x="643" d="M133 0l45 1083h299l43 -1083h-387zM162 1226v328h332v-328h-332z" />
<glyph unicode="&#xa2;" horiz-adv-x="1081" d="M92 797q0 104 9.5 195t43 162t98 119t175.5 66v215h272v-213q86 -12 143.5 -43.5t91 -80t48 -112t14.5 -140.5h-332q-2 47 -24.5 67.5t-73.5 20.5q-66 0 -86 -42t-20 -141v-172q0 -98 20.5 -139t85.5 -41q51 0 73.5 21.5t26.5 70.5h328q0 -78 -14.5 -142.5t-48 -112.5 t-90 -79.5t-142.5 -46.5v-229h-272v231q-111 18 -175.5 67.5t-98 123.5t-43 169t-9.5 206z" />
<glyph unicode="&#xa3;" horiz-adv-x="1003" d="M45 244q0 63 8 112.5t30.5 82t62.5 49t106 16.5q63 0 103 -12.5t77 -28.5q-4 41 -15 78t-34 77h-246v203h111q-47 84 -69.5 163t-22.5 187q0 80 10 153t51 129t121 90t221 34q135 0 214 -24.5t121 -71.5t54.5 -115t12.5 -156v-34.5t-3 -28.5h-305q2 6 2 35q0 14 -2 28.5 t-10 26.5t-25.5 19.5t-50.5 7.5q-35 0 -54 -9.5t-29.5 -23.5t-12.5 -32.5t-2 -39.5q0 -41 3 -78t10 -76.5t21.5 -83.5t37.5 -100h331v-203h-243q10 -47 15 -110.5t5 -149.5q39 -14 83 -22t97 -8h125v-328h-108q-88 0 -154.5 16.5t-142.5 69.5l-12 -14q-41 -47 -103.5 -68.5 t-148.5 -21.5q-135 0 -187.5 67.5t-52.5 194.5zM229 246q0 -58 43 -58q74 0 115 35q-41 39 -66.5 56.5t-54.5 17.5q-16 0 -26.5 -12.5t-10.5 -38.5z" />
<glyph unicode="&#xa4;" horiz-adv-x="1267" d="M109 379l137 135q-23 47 -37 105.5t-14 115.5t14 115.5t37 110.5l-137 133l186 194l123 -145q94 59 219 59q117 0 215 -59l123 145l184 -194l-133 -131q25 -51 39 -109.5t14 -118.5q0 -61 -14 -118.5t-39 -104.5l133 -133l-182 -201l-127 150q-51 -25 -104.5 -41.5 t-108.5 -16.5q-57 0 -112.5 16.5t-102.5 41.5l-127 -150zM373 735q0 -66 20.5 -118t56 -87.5t84 -55t103.5 -19.5t104.5 19.5t85 55t57 88t21.5 117.5q0 66 -21.5 118t-57 89t-85 56.5t-104.5 19.5t-103.5 -19.5t-84 -56.5t-56 -89t-20.5 -118z" />
<glyph unicode="&#xa5;" horiz-adv-x="987" d="M31 1554h381l88 -475l90 475h364l-227 -661h178v-246h-233v-186h233v-246h-233v-215h-371v215h-231v246h231v186h-231v246h172z" />
<glyph unicode="&#xa6;" horiz-adv-x="581" d="M180 -362v907h221v-907h-221zM180 928v866h221v-866h-221z" />
<glyph unicode="&#xa7;" horiz-adv-x="1036" d="M90 47v44.5t4 33.5h312q-4 -20 -5 -33q0 -47 7.5 -73.5t20.5 -39t31.5 -14.5t39.5 -2q20 0 38.5 3t32 15.5t20.5 35t7 63.5q0 55 -37 87t-92 57.5t-119.5 51t-120 69.5t-92.5 113.5t-37 182.5q0 186 56 283q-45 82 -45 227q0 129 23.5 211t72.5 130t124 66.5t177 18.5 q84 0 154.5 -11.5t123 -46t82 -103t29.5 -181.5q0 -18 -1 -39.5t-3 -38.5h-297q2 10 2 17.5v17.5q0 59 -24.5 78.5t-59.5 19.5q-18 0 -34.5 -2t-30 -11t-21.5 -29.5t-8 -57.5q0 -82 45 -107q31 -18 73 -26t88 -17.5t92 -26t87 -50.5q68 -59 91.5 -154.5t23.5 -198.5 q0 -96 -12.5 -158.5t-37.5 -103.5q23 -55 32 -118.5t9 -129.5q0 -139 -27.5 -223t-79.5 -129t-129 -59.5t-175 -14.5q-78 0 -152 10.5t-131 48.5t-92 111.5t-35 202.5zM393 686q0 -61 19.5 -95t51.5 -53.5t71.5 -31t78.5 -25.5q16 39 17 88q0 63 -22.5 97t-56.5 52.5t-73 29 t-71 26.5q-14 -37 -15 -88z" />
<glyph unicode="&#xa8;" horiz-adv-x="1064" d="M127 1204v297h317v-297h-317zM618 1204v297h320v-297h-320z" />
<glyph unicode="&#xaa;" horiz-adv-x="677" d="M125 852q0 109 42 143.5t130 34.5q37 0 58.5 -10t37.5 -27v68q0 45 -13 57t-44 12q-16 0 -33.5 -9t-17.5 -38h-138q-2 6 -2 14.5v16.5q0 49 17.5 78t46.5 44t65.5 20.5t77.5 5.5q37 0 73 -6.5t62.5 -27t43 -60.5t16.5 -107v-287q0 -53 1 -73.5t5 -41.5h-147l-3 60 q-23 -37 -45 -54.5t-79 -17.5q-37 0 -65 8.5t-48.5 32t-30.5 63.5t-10 101zM281 836q0 -33 13 -39t34 -6q16 0 34.5 4t30.5 14v94q-6 4 -16 7t-23 3q-45 0 -59 -9t-14 -48v-20z" />
<glyph unicode="&#xab;" horiz-adv-x="1196" d="M70 662l336 483l122 -135l-249 -348l249 -349l-122 -135zM668 662l336 483l122 -135l-249 -348l249 -349l-122 -135z" />
<glyph unicode="&#xac;" horiz-adv-x="987" d="M63 705v354h844v-1059h-305v705h-539z" />
<glyph unicode="&#xad;" horiz-adv-x="626" d="M70 504v254h487v-254h-487z" />
<glyph unicode="&#xaf;" horiz-adv-x="862" d="M127 1260v192h608v-192h-608z" />
<glyph unicode="&#xb0;" horiz-adv-x="710" d="M115 1284q0 61 13 114.5t42 93.5t74 62.5t108 22.5q68 0 114 -22.5t74.5 -62.5t42 -93t13.5 -115q0 -59 -13.5 -112.5t-42 -93.5t-74.5 -62.5t-114 -22.5q-63 0 -108 22.5t-74 62.5t-42 93.5t-13 112.5zM256 1284q0 -53 22.5 -93t73.5 -40q53 0 77 40t24 93 q0 57 -23.5 94t-77.5 37q-51 0 -73.5 -37t-22.5 -94z" />
<glyph unicode="&#xb1;" horiz-adv-x="1007" d="M57 -102v250h893v-250h-893zM57 633v250h322v321h250v-321h321v-250h-321v-322h-250v322h-322z" />
<glyph unicode="&#xb2;" horiz-adv-x="600" d="M86 797v145q0 68 8 119t27.5 92t50.5 73.5t78 63.5t67.5 52.5t20.5 68.5q0 41 -7 51t-30 10t-30 -15t-7 -42q0 -25 2 -31h-172q-2 18 -3 34.5t-1 29.5q0 74 18.5 118t47 67.5t66.5 29.5t79 6q45 0 83 -10.5t66.5 -38t45 -74.5t16.5 -121q0 -55 -5 -98t-22.5 -79 t-49.5 -67.5t-83 -66.5t-72.5 -59.5t-21.5 -59.5h256v-198h-428z" />
<glyph unicode="&#xb3;" horiz-adv-x="598" d="M82 1024v35h174v-29q0 -23 5 -38t34 -15q35 0 42 15t7 38v70q0 29 -5 48t-38 19h-100v156h102q29 0 33 15.5t4 33.5v61q0 18 -7 30.5t-38 12.5q-27 0 -32 -11t-5 -27v-23h-168v35q0 39 4 78t24.5 70.5t62.5 51t118 19.5t119 -19.5t64.5 -53.5t26.5 -78t5 -91 q0 -59 -12.5 -105t-48.5 -69q70 -47 69 -223q0 -51 -7 -96t-30.5 -78t-67.5 -51.5t-118 -18.5q-72 0 -115 18.5t-65.5 51.5t-29.5 76t-7 92z" />
<glyph unicode="&#xb4;" horiz-adv-x="778" d="M127 1192v145l524 193v-242z" />
<glyph unicode="&#xb5;" horiz-adv-x="1134" d="M131 -463v1553h350v-717q0 -57 19.5 -75.5t66.5 -18.5t65.5 18t18.5 76v717h355v-1090h-326v100q-41 -57 -89 -83.5t-108 -32.5v-447h-352z" />
<glyph unicode="&#xb6;" horiz-adv-x="1175" d="M115 1274q0 55 15 106.5t47 90t81 61t117 22.5h684v-118l-60 -111v-1616h-272v1579h-158v-1282q0 -84 -13 -141.5t-48 -92t-96.5 -49t-157.5 -14.5h-61v254h63q16 0 29.5 14.5t13.5 30.5v1006q-96 29 -140 97.5t-44 162.5z" />
<glyph unicode="&#xb7;" horiz-adv-x="591" d="M127 676v328h336v-328h-336z" />
<glyph unicode="&#xb8;" horiz-adv-x="544" d="M127 -70h289v-163l-103 -230h-153l41 152h-74v241z" />
<glyph unicode="&#xb9;" horiz-adv-x="565" d="M55 1411l181 246h174v-860h-179v581l-71 -98z" />
<glyph unicode="&#xba;" horiz-adv-x="696" d="M129 958q0 66 6 122.5t28.5 96.5t65.5 62.5t119 22.5q74 0 117 -22.5t66.5 -62.5t29.5 -96.5t6 -122.5q0 -68 -6 -125t-29.5 -98t-66.5 -64.5t-117 -23.5q-76 0 -119 23.5t-65.5 64.5t-28.5 98.5t-6 124.5zM285 905q0 -59 12 -85.5t51 -26.5q37 0 49.5 26.5t12.5 85.5v99 q0 59 -12.5 85.5t-49.5 26.5q-39 0 -51 -26.5t-12 -85.5v-99z" />
<glyph unicode="&#xbb;" horiz-adv-x="1196" d="M70 313l249 349l-249 348l123 135l335 -483l-335 -484zM668 313l249 349l-249 348l123 135l335 -483l-335 -484z" />
<glyph unicode="&#xbc;" horiz-adv-x="1347" d="M127 1411l181 246h174v-860h-179v581l-71 -98zM185 -43l712 1640h220l-709 -1640h-223zM768 111v211l184 518h221v-533h45v-196h-45v-131h-170v131h-235zM928 307h77q0 78 3 147.5t10 141.5q-16 -70 -39 -140.5t-51 -148.5z" />
<glyph unicode="&#xbd;" horiz-adv-x="1390" d="M127 1411l181 246h174v-860h-179v581l-71 -98zM195 -43l712 1640h220l-709 -1640h-223zM834 -20v145q0 68 8 119t27.5 92t50.5 73.5t78 63.5t67.5 52.5t20.5 68.5q0 41 -7 51t-30 10t-30 -15t-7 -42q0 -25 2 -31h-172q-2 18 -3 34.5t-1 29.5q0 74 18.5 118t47 67.5 t66.5 29.5t79 6q45 0 83 -10.5t66.5 -38t45 -74.5t16.5 -121q0 -55 -5 -98t-22.5 -79t-49.5 -67.5t-83 -66.5t-72.5 -59.5t-21.5 -59.5h256v-198h-428z" />
<glyph unicode="&#xbe;" horiz-adv-x="1366" d="M127 1024v35h174v-29q0 -23 5 -38t34 -15q35 0 42 15t7 38v70q0 29 -5 48t-38 19h-100v156h102q29 0 33 15.5t4 33.5v61q0 18 -7 30.5t-38 12.5q-27 0 -32 -11t-5 -27v-23h-168v35q0 39 4 78t24.5 70.5t62.5 51t118 19.5t119 -19.5t64.5 -53.5t26.5 -78t5 -91 q0 -59 -12.5 -105t-48.5 -69q70 -47 69 -223q0 -51 -7 -96t-30.5 -78t-67.5 -51.5t-118 -18.5q-72 0 -115 18.5t-65.5 51.5t-29.5 76t-7 92zM219 -43l712 1640h220l-709 -1640h-223zM785 111v211l184 518h221v-533h45v-196h-45v-131h-170v131h-235zM945 307h77q0 78 3 147.5 t10 141.5q-16 -70 -39 -140.5t-51 -148.5z" />
<glyph unicode="&#xbf;" horiz-adv-x="874" d="M43 360q0 66 7 137.5t36 124.5t67 89t72.5 71t59 76t24.5 104v127h293v-133q0 -61 -5 -131t-34 -121q-33 -55 -72.5 -92t-74.5 -82q-25 -29 -31 -61.5t-6 -73.5q0 -43 11.5 -80t56.5 -37q47 0 63 28.5t16 82.5q0 10 -1 26.5t-3 28.5h303q2 -14 3.5 -30.5t1.5 -47.5 q0 -125 -30 -200.5t-83 -117.5t-126 -56.5t-157 -14.5t-155.5 13.5t-123.5 55.5t-82 116.5t-30 197.5zM289 1226v328h334v-328h-334z" />
<glyph unicode="&#xc0;" d="M55 0l326 1554h412l313 -1554h-373l-47 305h-211l-47 -305h-373zM256 1753v242l524 -193v-145zM520 621h121q-12 76 -21.5 141t-15.5 124.5t-11 118t-9 123.5q-4 -66 -10.5 -124t-14.5 -117.5t-17.5 -125t-21.5 -140.5z" />
<glyph unicode="&#xc1;" d="M55 0l326 1554h412l313 -1554h-373l-47 305h-211l-47 -305h-373zM379 1657v145l524 193v-242zM520 621h121q-12 76 -21.5 141t-15.5 124.5t-11 118t-9 123.5q-4 -66 -10.5 -124t-14.5 -117.5t-17.5 -125t-21.5 -140.5z" />
<glyph unicode="&#xc2;" d="M55 0l326 1554h412l313 -1554h-373l-47 305h-211l-47 -305h-373zM246 1649v157l338 189l332 -189v-157l-332 131zM520 621h121q-12 76 -21.5 141t-15.5 124.5t-11 118t-9 123.5q-4 -66 -10.5 -124t-14.5 -117.5t-17.5 -125t-21.5 -140.5z" />
<glyph unicode="&#xc3;" d="M55 0l326 1554h412l313 -1554h-373l-47 305h-211l-47 -305h-373zM252 1682v221q80 66 170 65q43 0 81 -12t77 -25.5t78.5 -26t82.5 -12.5q59 0 93 20.5t73 63.5v-219q-80 -70 -174 -69q-39 0 -76.5 12t-75.5 26.5t-78 26.5t-85 12q-59 0 -95 -20t-71 -63zM520 621h121 q-12 76 -21.5 141t-15.5 124.5t-11 118t-9 123.5q-4 -66 -10.5 -124t-14.5 -117.5t-17.5 -125t-21.5 -140.5z" />
<glyph unicode="&#xc4;" d="M55 0l326 1554h412l313 -1554h-373l-47 305h-211l-47 -305h-373zM174 1669v297h317v-297h-317zM520 621h121q-12 76 -21.5 141t-15.5 124.5t-11 118t-9 123.5q-4 -66 -10.5 -124t-14.5 -117.5t-17.5 -125t-21.5 -140.5zM665 1669v297h320v-297h-320z" />
<glyph unicode="&#xc5;" d="M55 0l326 1554h412l313 -1554h-373l-47 305h-211l-47 -305h-373zM387 1798q0 33 6 68t25.5 63.5t58.5 47t105 18.5q63 0 101 -18.5t58.5 -47t25.5 -63.5t5 -68t-5 -67.5t-25.5 -62t-58.5 -45t-101 -17.5q-66 0 -105 17.5t-58.5 45t-25.5 62t-6 67.5zM508 1798 q0 -31 11.5 -57.5t62.5 -26.5q49 0 61 27t12 57q0 35 -12 61.5t-61 26.5q-51 0 -62.5 -26.5t-11.5 -61.5zM520 621h121q-12 76 -21.5 141t-15.5 124.5t-11 118t-9 123.5q-4 -66 -10.5 -124t-14.5 -117.5t-17.5 -125t-21.5 -140.5z" />
<glyph unicode="&#xc6;" horiz-adv-x="1611" d="M55 0l373 1554h1071v-360h-366v-215h342v-326h-342v-297h374v-356h-739v305h-276l-56 -305h-381zM561 621h207v573h-102z" />
<glyph unicode="&#xc7;" d="M109 776q0 233 14 387t64.5 246t148.5 130t266 38q143 0 231.5 -26.5t136.5 -90t64.5 -166t16.5 -256.5h-351q2 6 2 23.5v30.5q0 74 -20 111.5t-80 37.5q-37 0 -56.5 -14.5t-29.5 -43t-12 -69.5t-2 -92v-438q0 -139 14 -205t86 -66q59 0 79.5 43t20.5 136v37t-2 26h353 q0 -164 -15.5 -273.5t-62.5 -176t-136 -95t-237 -28.5q-168 0 -266 36.5t-148.5 128t-64.5 244t-14 385.5zM457 -70h289v-163l-103 -230h-153l41 152h-74v241z" />
<glyph unicode="&#xc8;" horiz-adv-x="1034" d="M127 0v1554h795v-360h-426v-215h405v-326h-405v-297h432v-356h-801zM213 1753v242l524 -193v-145z" />
<glyph unicode="&#xc9;" horiz-adv-x="1034" d="M127 0v1554h795v-360h-426v-215h405v-326h-405v-297h432v-356h-801zM332 1657v145l524 193v-242z" />
<glyph unicode="&#xca;" horiz-adv-x="1034" d="M127 0v1554h795v-360h-426v-215h405v-326h-405v-297h432v-356h-801zM199 1649v157l338 189l332 -189v-157l-332 131z" />
<glyph unicode="&#xcb;" horiz-adv-x="1034" d="M127 0v1554h795v-360h-426v-215h405v-326h-405v-297h432v-356h-801zM129 1669v297h317v-297h-317zM620 1669v297h320v-297h-320z" />
<glyph unicode="&#xcc;" horiz-adv-x="665" d="M12 1753v242l524 -193v-145zM139 0v1554h389v-1554h-389z" />
<glyph unicode="&#xcd;" horiz-adv-x="665" d="M131 1657v145l524 193v-242zM139 0v1554h389v-1554h-389z" />
<glyph unicode="&#xce;" horiz-adv-x="665" d="M0 1649v157l338 189l332 -189v-157l-332 131zM139 0v1554h389v-1554h-389z" />
<glyph unicode="&#xcf;" horiz-adv-x="665" d="M-70 1669v297h317v-297h-317zM139 0v1554h389v-1554h-389zM421 1669v297h320v-297h-320z" />
<glyph unicode="&#xd0;" horiz-adv-x="1206" d="M39 653v326h92v575h487q139 0 231.5 -35.5t148 -116.5t78 -212t22.5 -320v-186q0 -188 -22.5 -319.5t-78 -212t-147.5 -116.5t-232 -36h-487v653h-92zM524 338h76q61 0 83 66.5t22 195.5v354q0 131 -21.5 197t-83.5 66h-76v-238h94v-326h-94v-315z" />
<glyph unicode="&#xd1;" horiz-adv-x="1273" d="M121 0v1554h491l164 -581q18 -63 35.5 -129t30.5 -131q-6 129 -6 260v581h319v-1554h-453l-210 711q-16 63 -34 129.5t-32 126.5q4 -61 6 -126t2 -130v-711h-313zM309 1682v221q80 66 170 65q43 0 81 -12t77 -25.5t78.5 -26t82.5 -12.5q59 0 93 20.5t73 63.5v-219 q-80 -70 -174 -69q-39 0 -76.5 12t-75.5 26.5t-78 26.5t-85 12q-59 0 -95 -20t-71 -63z" />
<glyph unicode="&#xd2;" horiz-adv-x="1204" d="M109 776q0 233 14 387t64.5 246t148.5 130t266 38t266.5 -38t148.5 -130t64.5 -245.5t14.5 -387.5q0 -233 -14.5 -385.5t-64.5 -244t-148.5 -128t-266.5 -36.5t-266 36.5t-148.5 128t-64.5 244t-14 385.5zM279 1753v242l524 -193v-145zM502 584q0 -139 14 -205t86 -66 q37 0 56.5 16.5t28.5 49.5t11 84t2 121v438q0 51 -2 92t-11 69.5t-28.5 43t-56.5 14.5t-56.5 -14.5t-29.5 -43t-12 -69.5t-2 -92v-438z" />
<glyph unicode="&#xd3;" horiz-adv-x="1204" d="M109 776q0 233 14 387t64.5 246t148.5 130t266 38t266.5 -38t148.5 -130t64.5 -245.5t14.5 -387.5q0 -233 -14.5 -385.5t-64.5 -244t-148.5 -128t-266.5 -36.5t-266 36.5t-148.5 128t-64.5 244t-14 385.5zM401 1657v145l524 193v-242zM502 584q0 -139 14 -205t86 -66 q37 0 56.5 16.5t28.5 49.5t11 84t2 121v438q0 51 -2 92t-11 69.5t-28.5 43t-56.5 14.5t-56.5 -14.5t-29.5 -43t-12 -69.5t-2 -92v-438z" />
<glyph unicode="&#xd4;" horiz-adv-x="1204" d="M109 776q0 233 14 387t64.5 246t148.5 130t266 38t266.5 -38t148.5 -130t64.5 -245.5t14.5 -387.5q0 -233 -14.5 -385.5t-64.5 -244t-148.5 -128t-266.5 -36.5t-266 36.5t-148.5 128t-64.5 244t-14 385.5zM266 1649v157l338 189l332 -189v-157l-332 131zM502 584 q0 -139 14 -205t86 -66q37 0 56.5 16.5t28.5 49.5t11 84t2 121v438q0 51 -2 92t-11 69.5t-28.5 43t-56.5 14.5t-56.5 -14.5t-29.5 -43t-12 -69.5t-2 -92v-438z" />
<glyph unicode="&#xd5;" horiz-adv-x="1204" d="M109 776q0 233 14 387t64.5 246t148.5 130t266 38t266.5 -38t148.5 -130t64.5 -245.5t14.5 -387.5q0 -233 -14.5 -385.5t-64.5 -244t-148.5 -128t-266.5 -36.5t-266 36.5t-148.5 128t-64.5 244t-14 385.5zM274 1682v221q80 66 170 65q43 0 81 -12t77 -25.5t78.5 -26 t82.5 -12.5q59 0 93 20.5t73 63.5v-219q-80 -70 -174 -69q-39 0 -76.5 12t-75.5 26.5t-78 26.5t-85 12q-59 0 -95 -20t-71 -63zM502 584q0 -139 14 -205t86 -66q37 0 56.5 16.5t28.5 49.5t11 84t2 121v438q0 51 -2 92t-11 69.5t-28.5 43t-56.5 14.5t-56.5 -14.5t-29.5 -43 t-12 -69.5t-2 -92v-438z" />
<glyph unicode="&#xd6;" horiz-adv-x="1204" d="M109 776q0 233 14 387t64.5 246t148.5 130t266 38t266.5 -38t148.5 -130t64.5 -245.5t14.5 -387.5q0 -233 -14.5 -385.5t-64.5 -244t-148.5 -128t-266.5 -36.5t-266 36.5t-148.5 128t-64.5 244t-14 385.5zM197 1669v297h317v-297h-317zM502 584q0 -139 14 -205t86 -66 q37 0 56.5 16.5t28.5 49.5t11 84t2 121v438q0 51 -2 92t-11 69.5t-28.5 43t-56.5 14.5t-56.5 -14.5t-29.5 -43t-12 -69.5t-2 -92v-438zM688 1669v297h320v-297h-320z" />
<glyph unicode="&#xd7;" horiz-adv-x="1034" d="M113 530l227 228l-227 227l176 176l227 -227l227 227l177 -176l-228 -227l228 -228l-177 -176l-227 228l-227 -228z" />
<glyph unicode="&#xd8;" horiz-adv-x="1204" d="M109 776q0 233 14 387t64.5 246t148.5 130t266 38q158 0 260 -37l64 141l143 -65l-76 -170q66 -88 84.5 -250t18.5 -420q0 -233 -14.5 -385.5t-64.5 -244t-148.5 -128t-266.5 -36.5q-166 0 -266 36l-78 -170l-139 70l88 195q-33 43 -52.5 104.5t-29.5 143t-13 185 t-3 230.5zM502 756l190 413q-8 35 -28.5 53.5t-61.5 18.5q-37 0 -56.5 -14.5t-29.5 -43t-12 -69.5t-2 -92v-266zM512 399q8 -45 28.5 -65.5t61.5 -20.5q37 0 56.5 16.5t28.5 49.5t11 84t2 121v229z" />
<glyph unicode="&#xd9;" horiz-adv-x="1189" d="M119 432v1122h387v-1122q0 -68 21.5 -90.5t66.5 -22.5q47 0 68.5 23t21.5 90v1122h389v-1122q0 -137 -23.5 -224t-79 -137.5t-146.5 -69.5t-226 -19t-227 19t-147.5 69.5t-80 137.5t-24.5 224zM270 1753v242l524 -193v-145z" />
<glyph unicode="&#xda;" horiz-adv-x="1189" d="M119 432v1122h387v-1122q0 -68 21.5 -90.5t66.5 -22.5q47 0 68.5 23t21.5 90v1122h389v-1122q0 -137 -23.5 -224t-79 -137.5t-146.5 -69.5t-226 -19t-227 19t-147.5 69.5t-80 137.5t-24.5 224zM393 1657v145l524 193v-242z" />
<glyph unicode="&#xdb;" horiz-adv-x="1189" d="M119 432v1122h387v-1122q0 -68 21.5 -90.5t66.5 -22.5q47 0 68.5 23t21.5 90v1122h389v-1122q0 -137 -23.5 -224t-79 -137.5t-146.5 -69.5t-226 -19t-227 19t-147.5 69.5t-80 137.5t-24.5 224zM260 1649v157l338 189l332 -189v-157l-332 131z" />
<glyph unicode="&#xdc;" horiz-adv-x="1189" d="M119 432v1122h387v-1122q0 -68 21.5 -90.5t66.5 -22.5q47 0 68.5 23t21.5 90v1122h389v-1122q0 -137 -23.5 -224t-79 -137.5t-146.5 -69.5t-226 -19t-227 19t-147.5 69.5t-80 137.5t-24.5 224zM188 1669v297h317v-297h-317zM679 1669v297h320v-297h-320z" />
<glyph unicode="&#xdd;" horiz-adv-x="1167" d="M45 1554h424l82 -356q12 -53 23.5 -108.5t15.5 -108.5q6 53 16 108.5t23 108.5l80 356h413l-346 -1067v-487h-383v487zM391 1657v145l524 193v-242z" />
<glyph unicode="&#xde;" horiz-adv-x="1126" d="M127 0v1554h391v-235h55q162 0 258.5 -28.5t147.5 -89t66.5 -155t15.5 -225.5v-112q0 -117 -15.5 -207t-66.5 -149.5t-147.5 -90.5t-258.5 -31h-55v-231h-391zM518 573h55q66 0 85.5 31t19.5 90v140q0 78 -19.5 109.5t-85.5 31.5h-55v-402z" />
<glyph unicode="&#xdf;" horiz-adv-x="1286" d="M119 0v1194q0 113 23.5 184.5t73.5 112.5t128 57.5t184 16.5q94 0 172 -12.5t133.5 -52.5t85 -113.5t29.5 -194.5v-217q0 -55 5 -87t17.5 -55.5t31 -45t45.5 -56.5q33 -43 57 -81t40.5 -76.5t25 -84t8.5 -102.5q0 -123 -27 -200.5t-80 -123t-132.5 -62.5t-188.5 -17 q-45 4 -90.5 7t-88.5 9v295q78 -33 172 -33q61 0 87 25.5t26 97.5q0 47 -23.5 87t-55.5 77t-65.5 72.5t-52.5 78.5q-23 51 -28.5 109.5t-5.5 114.5v288q0 35 -27 42.5t-49 7.5q-23 0 -50.5 -7.5t-27.5 -42.5v-1212h-352z" />
<glyph unicode="&#xe0;" horiz-adv-x="1081" d="M104 356q0 90 18.5 153.5t58.5 103.5t105.5 58.5t157.5 18.5q68 0 104 -6t60 -16v94q0 59 -18.5 77.5t-50.5 18.5q-33 0 -49.5 -15.5t-16.5 -58.5h-330q4 115 31 180.5t80 97.5t134 40t194 8q72 0 140.5 -11.5t121.5 -50t86 -112.5t33 -199v-514q0 -53 1 -87t2 -58.5 t4 -42t7 -35.5h-297l-10 109q-20 -57 -81 -92t-192 -35q-80 0 -135 16t-91 58t-51.5 115t-15.5 185zM238 1288v242l524 -193v-145zM461 332q0 -51 18.5 -65.5t42.5 -14.5q63 0 86 37v160q-6 4 -21.5 9t-31.5 5q-55 0 -74.5 -16.5t-19.5 -81.5v-33z" />
<glyph unicode="&#xe1;" horiz-adv-x="1081" d="M104 356q0 90 18.5 153.5t58.5 103.5t105.5 58.5t157.5 18.5q68 0 104 -6t60 -16v94q0 59 -18.5 77.5t-50.5 18.5q-33 0 -49.5 -15.5t-16.5 -58.5h-330q4 115 31 180.5t80 97.5t134 40t194 8q72 0 140.5 -11.5t121.5 -50t86 -112.5t33 -199v-514q0 -53 1 -87t2 -58.5 t4 -42t7 -35.5h-297l-10 109q-20 -57 -81 -92t-192 -35q-80 0 -135 16t-91 58t-51.5 115t-15.5 185zM360 1192v145l524 193v-242zM461 332q0 -51 18.5 -65.5t42.5 -14.5q63 0 86 37v160q-6 4 -21.5 9t-31.5 5q-55 0 -74.5 -16.5t-19.5 -81.5v-33z" />
<glyph unicode="&#xe2;" horiz-adv-x="1081" d="M104 356q0 90 18.5 153.5t58.5 103.5t105.5 58.5t157.5 18.5q68 0 104 -6t60 -16v94q0 59 -18.5 77.5t-50.5 18.5q-33 0 -49.5 -15.5t-16.5 -58.5h-330q4 115 31 180.5t80 97.5t134 40t194 8q72 0 140.5 -11.5t121.5 -50t86 -112.5t33 -199v-514q0 -53 1 -87t2 -58.5 t4 -42t7 -35.5h-297l-10 109q-20 -57 -81 -92t-192 -35q-80 0 -135 16t-91 58t-51.5 115t-15.5 185zM225 1184v157l338 189l332 -189v-157l-332 131zM461 332q0 -51 18.5 -65.5t42.5 -14.5q63 0 86 37v160q-6 4 -21.5 9t-31.5 5q-55 0 -74.5 -16.5t-19.5 -81.5v-33z" />
<glyph unicode="&#xe3;" horiz-adv-x="1081" d="M104 356q0 90 18.5 153.5t58.5 103.5t105.5 58.5t157.5 18.5q68 0 104 -6t60 -16v94q0 59 -18.5 77.5t-50.5 18.5q-33 0 -49.5 -15.5t-16.5 -58.5h-330q4 115 31 180.5t80 97.5t134 40t194 8q72 0 140.5 -11.5t121.5 -50t86 -112.5t33 -199v-514q0 -53 1 -87t2 -58.5 t4 -42t7 -35.5h-297l-10 109q-20 -57 -81 -92t-192 -35q-80 0 -135 16t-91 58t-51.5 115t-15.5 185zM233 1217v221q80 66 170 65q43 0 81 -12t77 -25.5t78.5 -26t82.5 -12.5q59 0 93 20.5t73 63.5v-219q-80 -70 -174 -69q-39 0 -76.5 12t-75.5 26.5t-78 26.5t-85 12 q-59 0 -95 -20t-71 -63zM461 332q0 -51 18.5 -65.5t42.5 -14.5q63 0 86 37v160q-6 4 -21.5 9t-31.5 5q-55 0 -74.5 -16.5t-19.5 -81.5v-33z" />
<glyph unicode="&#xe4;" horiz-adv-x="1081" d="M104 356q0 90 18.5 153.5t58.5 103.5t105.5 58.5t157.5 18.5q68 0 104 -6t60 -16v94q0 59 -18.5 77.5t-50.5 18.5q-33 0 -49.5 -15.5t-16.5 -58.5h-330q4 115 31 180.5t80 97.5t134 40t194 8q72 0 140.5 -11.5t121.5 -50t86 -112.5t33 -199v-514q0 -53 1 -87t2 -58.5 t4 -42t7 -35.5h-297l-10 109q-20 -57 -81 -92t-192 -35q-80 0 -135 16t-91 58t-51.5 115t-15.5 185zM156 1204v297h317v-297h-317zM461 332q0 -51 18.5 -65.5t42.5 -14.5q63 0 86 37v160q-6 4 -21.5 9t-31.5 5q-55 0 -74.5 -16.5t-19.5 -81.5v-33zM647 1204v297h320v-297 h-320z" />
<glyph unicode="&#xe5;" horiz-adv-x="1081" d="M104 356q0 90 18.5 153.5t58.5 103.5t105.5 58.5t157.5 18.5q68 0 104 -6t60 -16v94q0 59 -18.5 77.5t-50.5 18.5q-33 0 -49.5 -15.5t-16.5 -58.5h-330q4 115 31 180.5t80 97.5t134 40t194 8q72 0 140.5 -11.5t121.5 -50t86 -112.5t33 -199v-514q0 -53 1 -87t2 -58.5 t4 -42t7 -35.5h-297l-10 109q-20 -57 -81 -92t-192 -35q-80 0 -135 16t-91 58t-51.5 115t-15.5 185zM369 1333q0 33 6 68t25.5 63.5t58.5 47t105 18.5q63 0 101 -18.5t58.5 -47t25.5 -63.5t5 -68t-5 -67.5t-25.5 -62t-58.5 -45t-101 -17.5q-66 0 -105 17.5t-58.5 45 t-25.5 62t-6 67.5zM461 332q0 -51 18.5 -65.5t42.5 -14.5q63 0 86 37v160q-6 4 -21.5 9t-31.5 5q-55 0 -74.5 -16.5t-19.5 -81.5v-33zM490 1333q0 -31 11.5 -57.5t62.5 -26.5q49 0 61 27t12 57q0 35 -12 61.5t-61 26.5q-51 0 -62.5 -26.5t-11.5 -61.5z" />
<glyph unicode="&#xe6;" horiz-adv-x="1646" d="M119 356q0 90 18.5 153.5t58.5 103.5t105.5 58.5t157.5 18.5q66 0 102.5 -6t61.5 -16v94q0 59 -18.5 77.5t-51.5 18.5q-35 0 -50.5 -15.5t-15.5 -58.5h-329q4 115 30.5 180.5t76.5 97.5t124 40t174 8q86 0 162 -34t104 -87q27 49 102 85t173 36q141 0 226 -41t129 -109.5 t57.5 -158.5t13.5 -191q0 -37 -2 -72.5t-6 -70.5h-541q0 -104 23.5 -146t78.5 -42q47 0 67.5 18t25.5 55h337q-10 -90 -33.5 -159.5t-72.5 -116.5t-127 -70.5t-197 -23.5q-63 0 -112 13t-87 35.5t-68 52.5t-54 64q-18 -31 -49 -60.5t-74 -53t-100.5 -37.5t-126.5 -14 q-80 0 -136.5 16t-91 58t-50 115t-15.5 185zM473 332q0 -51 19.5 -65.5t44.5 -14.5q63 0 86 37v160q-6 4 -21.5 9t-32.5 5q-55 0 -75.5 -16.5t-20.5 -81.5v-33zM981 670h209q-2 78 -27.5 110.5t-77.5 32.5q-51 0 -75.5 -32.5t-28.5 -110.5z" />
<glyph unicode="&#xe7;" horiz-adv-x="1120" d="M117 557q0 119 13 220.5t60.5 175t140.5 115.5t251 42q129 0 212 -26.5t131 -76t67.5 -121t21.5 -161.5h-332q-2 47 -25.5 67.5t-74.5 20.5q-63 0 -85 -42t-22 -140v-172q0 -98 21.5 -139t85.5 -41q51 0 74.5 21.5t27.5 70.5h328q-2 -92 -21.5 -164t-69 -122t-131 -76.5 t-208.5 -26.5q-158 0 -251 43t-140.5 118.5t-60.5 181t-13 232.5zM436 -70h289v-163l-103 -230h-153l41 152h-74v241z" />
<glyph unicode="&#xe8;" horiz-adv-x="1128" d="M113 557q0 123 13 224.5t61.5 175t139.5 113.5t246 40q150 0 239 -41t135 -109.5t59.5 -158.5t13.5 -191q0 -76 -6 -143h-543q0 -104 23.5 -146t78.5 -42q47 0 68 18t25 55h338q-10 -90 -34 -159.5t-73 -116.5t-127 -70.5t-197 -23.5q-152 0 -242.5 44t-139 120.5 t-63.5 182t-15 228.5zM256 1288v242l524 -193v-145zM471 670h211q-4 78 -28.5 110.5t-78.5 32.5q-51 0 -75.5 -32.5t-28.5 -110.5z" />
<glyph unicode="&#xe9;" horiz-adv-x="1128" d="M113 557q0 123 13 224.5t61.5 175t139.5 113.5t246 40q150 0 239 -41t135 -109.5t59.5 -158.5t13.5 -191q0 -76 -6 -143h-543q0 -104 23.5 -146t78.5 -42q47 0 68 18t25 55h338q-10 -90 -34 -159.5t-73 -116.5t-127 -70.5t-197 -23.5q-152 0 -242.5 44t-139 120.5 t-63.5 182t-15 228.5zM379 1192v145l524 193v-242zM471 670h211q-4 78 -28.5 110.5t-78.5 32.5q-51 0 -75.5 -32.5t-28.5 -110.5z" />
<glyph unicode="&#xea;" horiz-adv-x="1128" d="M113 557q0 123 13 224.5t61.5 175t139.5 113.5t246 40q150 0 239 -41t135 -109.5t59.5 -158.5t13.5 -191q0 -76 -6 -143h-543q0 -104 23.5 -146t78.5 -42q47 0 68 18t25 55h338q-10 -90 -34 -159.5t-73 -116.5t-127 -70.5t-197 -23.5q-152 0 -242.5 44t-139 120.5 t-63.5 182t-15 228.5zM246 1184v157l338 189l332 -189v-157l-332 131zM471 670h211q-4 78 -28.5 110.5t-78.5 32.5q-51 0 -75.5 -32.5t-28.5 -110.5z" />
<glyph unicode="&#xeb;" horiz-adv-x="1128" d="M113 557q0 123 13 224.5t61.5 175t139.5 113.5t246 40q150 0 239 -41t135 -109.5t59.5 -158.5t13.5 -191q0 -76 -6 -143h-543q0 -104 23.5 -146t78.5 -42q47 0 68 18t25 55h338q-10 -90 -34 -159.5t-73 -116.5t-127 -70.5t-197 -23.5q-152 0 -242.5 44t-139 120.5 t-63.5 182t-15 228.5zM158 1204v297h317v-297h-317zM471 670h211q-4 78 -28.5 110.5t-78.5 32.5q-51 0 -75.5 -32.5t-28.5 -110.5zM649 1204v297h320v-297h-320z" />
<glyph unicode="&#xec;" horiz-adv-x="675" d="M37 1288v242l524 -193v-145zM180 0v1090h355v-1090h-355z" />
<glyph unicode="&#xed;" horiz-adv-x="675" d="M119 1192v145l524 193v-242zM139 0v1090h355v-1090h-355z" />
<glyph unicode="&#xee;" horiz-adv-x="749" d="M43 1184v157l338 189l332 -189v-157l-332 131zM196 0v1090h355v-1090h-355z" />
<glyph unicode="&#xef;" horiz-adv-x="749" d="M-29 1204v297h317v-297h-317zM196 0v1090h355v-1090h-355zM462 1204v297h320v-297h-320z" />
<glyph unicode="&#xf0;" horiz-adv-x="1171" d="M119 502q0 98 7 198.5t42 181.5t108.5 131t208.5 50q66 0 134.5 -16.5t113.5 -42.5q-10 70 -47 127t-94 98l-240 -125l-57 125l147 78q-90 33 -190 32l41 267q156 0 270.5 -30t202.5 -93l176 94l57 -129l-127 -68q47 -53 81 -122.5t55.5 -161.5t31 -209t9.5 -264 q0 -170 -11.5 -291t-57.5 -199t-139 -114.5t-255 -36.5q-156 0 -248 35.5t-141.5 102t-63.5 163t-14 219.5zM489 393q0 -25 1.5 -46t10.5 -36.5t29.5 -25t57.5 -9.5q39 0 61.5 9.5t31.5 25t11 37t2 45.5v246q0 31 -2 57.5t-11 47t-31.5 31.5t-61.5 11q-37 0 -57.5 -11 t-29.5 -31.5t-10.5 -47t-1.5 -57.5v-246z" />
<glyph unicode="&#xf1;" horiz-adv-x="1140" d="M137 0v1090h326v-101q47 66 109.5 93.5t134.5 27.5q96 0 156.5 -21.5t95 -60.5t48 -95t13.5 -126v-807h-350v717q0 57 -20.5 75.5t-69.5 18.5t-68.5 -18.5t-19.5 -75.5v-717h-355zM242 1217v221q80 66 170 65q43 0 81 -12t77 -25.5t78.5 -26t82.5 -12.5q59 0 93 20.5 t73 63.5v-219q-80 -70 -174 -69q-39 0 -76.5 12t-75.5 26.5t-78 26.5t-85 12q-59 0 -95 -20t-71 -63z" />
<glyph unicode="&#xf2;" horiz-adv-x="1157" d="M113 557q0 119 13 220.5t60 175t140.5 115.5t251.5 42t250 -42t140 -115.5t61 -175t13 -220.5q0 -127 -13 -232.5t-61 -181t-140 -118.5t-250 -43t-251.5 43t-140.5 118.5t-60 181t-13 232.5zM254 1288v242l524 -193v-145zM471 459q0 -98 21.5 -139t85.5 -41 q63 0 84.5 40.5t21.5 139.5v172q0 98 -21.5 140t-84.5 42t-85 -42t-22 -140v-172z" />
<glyph unicode="&#xf3;" horiz-adv-x="1157" d="M113 557q0 119 13 220.5t60 175t140.5 115.5t251.5 42t250 -42t140 -115.5t61 -175t13 -220.5q0 -127 -13 -232.5t-61 -181t-140 -118.5t-250 -43t-251.5 43t-140.5 118.5t-60 181t-13 232.5zM377 1192v145l524 193v-242zM471 459q0 -98 21.5 -139t85.5 -41 q63 0 84.5 40.5t21.5 139.5v172q0 98 -21.5 140t-84.5 42t-85 -42t-22 -140v-172z" />
<glyph unicode="&#xf4;" horiz-adv-x="1157" d="M113 557q0 119 13 220.5t60 175t140.5 115.5t251.5 42t250 -42t140 -115.5t61 -175t13 -220.5q0 -127 -13 -232.5t-61 -181t-140 -118.5t-250 -43t-251.5 43t-140.5 118.5t-60 181t-13 232.5zM244 1184v157l338 189l332 -189v-157l-332 131zM471 459q0 -98 21.5 -139 t85.5 -41q63 0 84.5 40.5t21.5 139.5v172q0 98 -21.5 140t-84.5 42t-85 -42t-22 -140v-172z" />
<glyph unicode="&#xf5;" horiz-adv-x="1157" d="M113 557q0 119 13 220.5t60 175t140.5 115.5t251.5 42t250 -42t140 -115.5t61 -175t13 -220.5q0 -127 -13 -232.5t-61 -181t-140 -118.5t-250 -43t-251.5 43t-140.5 118.5t-60 181t-13 232.5zM250 1217v221q80 66 170 65q43 0 81 -12t77 -25.5t78.5 -26t82.5 -12.5 q59 0 93 20.5t73 63.5v-219q-80 -70 -174 -69q-39 0 -76.5 12t-75.5 26.5t-78 26.5t-85 12q-59 0 -95 -20t-71 -63zM471 459q0 -98 21.5 -139t85.5 -41q63 0 84.5 40.5t21.5 139.5v172q0 98 -21.5 140t-84.5 42t-85 -42t-22 -140v-172z" />
<glyph unicode="&#xf6;" horiz-adv-x="1157" d="M113 557q0 119 13 220.5t60 175t140.5 115.5t251.5 42t250 -42t140 -115.5t61 -175t13 -220.5q0 -127 -13 -232.5t-61 -181t-140 -118.5t-250 -43t-251.5 43t-140.5 118.5t-60 181t-13 232.5zM172 1204v297h317v-297h-317zM471 459q0 -98 21.5 -139t85.5 -41 q63 0 84.5 40.5t21.5 139.5v172q0 98 -21.5 140t-84.5 42t-85 -42t-22 -140v-172zM663 1204v297h320v-297h-320z" />
<glyph unicode="&#xf7;" horiz-adv-x="1007" d="M57 633v250h893v-250h-893zM348 133v328h336v-328h-336zM348 1055v328h336v-328h-336z" />
<glyph unicode="&#xf8;" horiz-adv-x="1169" d="M119 557q0 119 13 220.5t60.5 175t139.5 115.5t250 42q113 0 196 -23l103 191l141 -88l-96 -182q78 -74 99.5 -190t21.5 -261q0 -127 -13.5 -232.5t-61.5 -181t-140.5 -118.5t-249.5 -43q-57 0 -103.5 5t-87.5 15l-92 -174l-141 96l84 158q-41 37 -65.5 87t-37 110.5 t-16.5 130t-4 147.5zM475 518l154 287q-10 4 -22.5 6t-24.5 2q-63 0 -85 -42t-22 -140v-113zM541 283q10 -4 19 -4h22q63 0 85.5 40.5t22.5 139.5v102z" />
<glyph unicode="&#xf9;" horiz-adv-x="1134" d="M127 283v807h350v-717q0 -57 19.5 -75.5t66.5 -18.5t65.5 18t18.5 76v717h352v-1090h-323v100q-47 -66 -105.5 -92t-132.5 -26q-94 0 -154.5 20.5t-95 59t-48 95t-13.5 126.5zM244 1288v242l524 -193v-145z" />
<glyph unicode="&#xfa;" horiz-adv-x="1134" d="M127 283v807h350v-717q0 -57 19.5 -75.5t66.5 -18.5t65.5 18t18.5 76v717h352v-1090h-323v100q-47 -66 -105.5 -92t-132.5 -26q-94 0 -154.5 20.5t-95 59t-48 95t-13.5 126.5zM367 1192v145l524 193v-242z" />
<glyph unicode="&#xfb;" horiz-adv-x="1134" d="M127 283v807h350v-717q0 -57 19.5 -75.5t66.5 -18.5t65.5 18t18.5 76v717h352v-1090h-323v100q-47 -66 -105.5 -92t-132.5 -26q-94 0 -154.5 20.5t-95 59t-48 95t-13.5 126.5zM231 1184v157l338 189l332 -189v-157l-332 131z" />
<glyph unicode="&#xfc;" horiz-adv-x="1134" d="M127 283v807h350v-717q0 -57 19.5 -75.5t66.5 -18.5t65.5 18t18.5 76v717h352v-1090h-323v100q-47 -66 -105.5 -92t-132.5 -26q-94 0 -154.5 20.5t-95 59t-48 95t-13.5 126.5zM162 1204v297h317v-297h-317zM653 1204v297h320v-297h-320z" />
<glyph unicode="&#xfd;" horiz-adv-x="952" d="M55 1090h344l56 -390q10 -78 17 -156.5t11 -148.5q4 70 12.5 149t18.5 156l57 390h338l-229 -1090l-105 -463h-380l100 385zM283 1192v145l524 193v-242z" />
<glyph unicode="&#xfe;" horiz-adv-x="1146" d="M139 -463v2017h353v-565q53 66 100 93.5t115 27.5q121 0 186 -41t95 -116.5t35 -184.5t5 -242q0 -121 -5 -220t-35 -172t-95.5 -112.5t-185.5 -39.5q-68 0 -115 26.5t-100 91.5v-563h-353zM494 430q0 -80 14 -115.5t70 -35.5q59 0 79.5 35.5t20.5 127.5v205 q0 92 -20.5 128t-79.5 36q-55 0 -69.5 -36t-14.5 -116v-229z" />
<glyph unicode="&#xff;" horiz-adv-x="952" d="M55 1090h344l56 -390q10 -78 17 -156.5t11 -148.5q4 70 12.5 149t18.5 156l57 390h338l-229 -1090l-105 -463h-380l100 385zM74 1204v297h317v-297h-317zM565 1204v297h320v-297h-320z" />
<glyph unicode="&#x100;" d="M55 0l326 1554h412l313 -1554h-373l-47 305h-211l-47 -305h-373zM277 1725v192h608v-192h-608zM520 621h121q-12 76 -21.5 141t-15.5 124.5t-11 118t-9 123.5q-4 -66 -10.5 -124t-14.5 -117.5t-17.5 -125t-21.5 -140.5z" />
<glyph unicode="&#x101;" horiz-adv-x="1081" d="M104 356q0 90 18.5 153.5t58.5 103.5t105.5 58.5t157.5 18.5q68 0 104 -6t60 -16v94q0 59 -18.5 77.5t-50.5 18.5q-33 0 -49.5 -15.5t-16.5 -58.5h-330q4 115 31 180.5t80 97.5t134 40t194 8q72 0 140.5 -11.5t121.5 -50t86 -112.5t33 -199v-514q0 -53 1 -87t2 -58.5 t4 -42t7 -35.5h-297l-10 109q-20 -57 -81 -92t-192 -35q-80 0 -135 16t-91 58t-51.5 115t-15.5 185zM252 1260v192h608v-192h-608zM461 332q0 -51 18.5 -65.5t42.5 -14.5q63 0 86 37v160q-6 4 -21.5 9t-31.5 5q-55 0 -74.5 -16.5t-19.5 -81.5v-33z" />
<glyph unicode="&#x102;" d="M55 0l326 1554h412l313 -1554h-373l-47 305h-211l-47 -305h-373zM203 1995h195q14 -88 60 -137.5t124 -49.5q76 0 123 49.5t61 137.5h193q-16 -180 -113.5 -281.5t-263.5 -101.5t-264.5 101.5t-114.5 281.5zM520 621h121q-12 76 -21.5 141t-15.5 124.5t-11 118t-9 123.5 q-4 -66 -10.5 -124t-14.5 -117.5t-17.5 -125t-21.5 -140.5z" />
<glyph unicode="&#x103;" horiz-adv-x="1081" d="M104 356q0 90 18.5 153.5t58.5 103.5t105.5 58.5t157.5 18.5q68 0 104 -6t60 -16v94q0 59 -18.5 77.5t-50.5 18.5q-33 0 -49.5 -15.5t-16.5 -58.5h-330q4 115 31 180.5t80 97.5t134 40t194 8q72 0 140.5 -11.5t121.5 -50t86 -112.5t33 -199v-514q0 -53 1 -87t2 -58.5 t4 -42t7 -35.5h-297l-10 109q-20 -57 -81 -92t-192 -35q-80 0 -135 16t-91 58t-51.5 115t-15.5 185zM178 1530h195q14 -88 60 -137.5t124 -49.5q76 0 123 49.5t61 137.5h193q-16 -180 -113.5 -281.5t-263.5 -101.5t-264.5 101.5t-114.5 281.5zM461 332q0 -51 18.5 -65.5 t42.5 -14.5q63 0 86 37v160q-6 4 -21.5 9t-31.5 5q-55 0 -74.5 -16.5t-19.5 -81.5v-33z" />
<glyph unicode="&#x104;" d="M55 0l326 1554h412l313 -1554q-113 -29 -161 -51.5t-48 -67.5q0 -57 64 -57h145v-287h-184q-43 0 -81 9.5t-67 33t-46 64.5t-17 104q0 80 43 135l-68 422h-211l-47 -305h-373zM520 621h121q-12 76 -21.5 141t-15.5 124.5t-11 118t-9 123.5q-4 -66 -10.5 -124 t-14.5 -117.5t-17.5 -125t-21.5 -140.5z" />
<glyph unicode="&#x105;" horiz-adv-x="1081" d="M104 356q0 90 18.5 153.5t58.5 103.5t105.5 58.5t157.5 18.5q68 0 104 -6t60 -16v94q0 59 -18.5 77.5t-50.5 18.5q-33 0 -49.5 -15.5t-16.5 -58.5h-330q4 115 31 180.5t80 97.5t134 40t194 8q72 0 140.5 -11.5t121.5 -50t86 -112.5t33 -199v-514q0 -53 1 -87t2 -58.5 t4 -42t7 -35.5q-113 -29 -161 -51.5t-48 -67.5q0 -57 63 -57h146v-287h-184q-43 0 -81 9.5t-67 33t-46 64.5t-17 104q0 66 27.5 113t74.5 76l-14 172q-20 -57 -81 -92t-192 -35q-80 0 -135 16t-91 58t-51.5 115t-15.5 185zM461 332q0 -51 18.5 -65.5t42.5 -14.5q63 0 86 37 v160q-6 4 -21.5 9t-31.5 5q-55 0 -74.5 -16.5t-19.5 -81.5v-33z" />
<glyph unicode="&#x106;" d="M109 776q0 233 14 387t64.5 246t148.5 130t266 38q143 0 231.5 -26.5t136.5 -90t64.5 -166t16.5 -256.5h-351q2 6 2 23.5v30.5q0 74 -20 111.5t-80 37.5q-37 0 -56.5 -14.5t-29.5 -43t-12 -69.5t-2 -92v-438q0 -139 14 -205t86 -66q59 0 79.5 43t20.5 136v37t-2 26h353 q0 -164 -15.5 -273.5t-62.5 -176t-136 -95t-237 -28.5q-168 0 -266 36.5t-148.5 128t-64.5 244t-14 385.5zM399 1657v145l524 193v-242z" />
<glyph unicode="&#x107;" horiz-adv-x="1120" d="M117 557q0 119 13 220.5t60.5 175t140.5 115.5t251 42q129 0 212 -26.5t131 -76t67.5 -121t21.5 -161.5h-332q-2 47 -25.5 67.5t-74.5 20.5q-63 0 -85 -42t-22 -140v-172q0 -98 21.5 -139t85.5 -41q51 0 74.5 21.5t27.5 70.5h328q-2 -92 -21.5 -164t-69 -122t-131 -76.5 t-208.5 -26.5q-158 0 -251 43t-140.5 118.5t-60.5 181t-13 232.5zM379 1192v145l524 193v-242z" />
<glyph unicode="&#x108;" d="M109 776q0 233 14 387t64.5 246t148.5 130t266 38q143 0 231.5 -26.5t136.5 -90t64.5 -166t16.5 -256.5h-351q2 6 2 23.5v30.5q0 74 -20 111.5t-80 37.5q-37 0 -56.5 -14.5t-29.5 -43t-12 -69.5t-2 -92v-438q0 -139 14 -205t86 -66q59 0 79.5 43t20.5 136v37t-2 26h353 q0 -164 -15.5 -273.5t-62.5 -176t-136 -95t-237 -28.5q-168 0 -266 36.5t-148.5 128t-64.5 244t-14 385.5zM266 1649v157l338 189l332 -189v-157l-332 131z" />
<glyph unicode="&#x109;" horiz-adv-x="1120" d="M117 557q0 119 13 220.5t60.5 175t140.5 115.5t251 42q129 0 212 -26.5t131 -76t67.5 -121t21.5 -161.5h-332q-2 47 -25.5 67.5t-74.5 20.5q-63 0 -85 -42t-22 -140v-172q0 -98 21.5 -139t85.5 -41q51 0 74.5 21.5t27.5 70.5h328q-2 -92 -21.5 -164t-69 -122t-131 -76.5 t-208.5 -26.5q-158 0 -251 43t-140.5 118.5t-60.5 181t-13 232.5zM246 1184v157l338 189l332 -189v-157l-332 131z" />
<glyph unicode="&#x10a;" d="M109 776q0 233 14 387t64.5 246t148.5 130t266 38q143 0 231.5 -26.5t136.5 -90t64.5 -166t16.5 -256.5h-351q2 6 2 23.5v30.5q0 74 -20 111.5t-80 37.5q-37 0 -56.5 -14.5t-29.5 -43t-12 -69.5t-2 -92v-438q0 -139 14 -205t86 -66q59 0 79.5 43t20.5 136v37t-2 26h353 q0 -164 -15.5 -273.5t-62.5 -176t-136 -95t-237 -28.5q-168 0 -266 36.5t-148.5 128t-64.5 244t-14 385.5zM440 1669v297h319v-297h-319z" />
<glyph unicode="&#x10b;" horiz-adv-x="1120" d="M117 557q0 119 13 220.5t60.5 175t140.5 115.5t251 42q129 0 212 -26.5t131 -76t67.5 -121t21.5 -161.5h-332q-2 47 -25.5 67.5t-74.5 20.5q-63 0 -85 -42t-22 -140v-172q0 -98 21.5 -139t85.5 -41q51 0 74.5 21.5t27.5 70.5h328q-2 -92 -21.5 -164t-69 -122t-131 -76.5 t-208.5 -26.5q-158 0 -251 43t-140.5 118.5t-60.5 181t-13 232.5zM420 1204v297h319v-297h-319z" />
<glyph unicode="&#x10c;" d="M109 776q0 233 14 387t64.5 246t148.5 130t266 38q143 0 231.5 -26.5t136.5 -90t64.5 -166t16.5 -256.5h-351q2 6 2 23.5v30.5q0 74 -20 111.5t-80 37.5q-37 0 -56.5 -14.5t-29.5 -43t-12 -69.5t-2 -92v-438q0 -139 14 -205t86 -66q59 0 79.5 43t20.5 136v37t-2 26h353 q0 -164 -15.5 -273.5t-62.5 -176t-136 -95t-237 -28.5q-168 0 -266 36.5t-148.5 128t-64.5 244t-14 385.5zM285 1837v158l313 -152l320 152v-158l-320 -229z" />
<glyph unicode="&#x10d;" horiz-adv-x="1120" d="M117 557q0 119 13 220.5t60.5 175t140.5 115.5t251 42q129 0 212 -26.5t131 -76t67.5 -121t21.5 -161.5h-332q-2 47 -25.5 67.5t-74.5 20.5q-63 0 -85 -42t-22 -140v-172q0 -98 21.5 -139t85.5 -41q51 0 74.5 21.5t27.5 70.5h328q-2 -92 -21.5 -164t-69 -122t-131 -76.5 t-208.5 -26.5q-158 0 -251 43t-140.5 118.5t-60.5 181t-13 232.5zM264 1372v158l313 -152l320 152v-158l-320 -229z" />
<glyph unicode="&#x10e;" horiz-adv-x="1200" d="M127 0v1554h485q139 0 231.5 -35.5t148 -116.5t78 -212t22.5 -320v-186q0 -188 -22.5 -319.5t-78 -212t-147.5 -116.5t-232 -36h-485zM242 1837v158l313 -152l320 152v-158l-320 -229zM518 338h76q63 0 84.5 66.5t21.5 195.5v354q0 131 -21.5 197t-84.5 66h-76v-879z" />
<glyph unicode="&#x10f;" horiz-adv-x="1431" d="M121 569q0 117 5 216.5t34.5 172t95.5 112.5t186 40q68 0 115 -27.5t100 -93.5v565h353v-1554h-326v104q-43 -53 -101.5 -87.5t-121.5 -34.5q-127 0 -196.5 47t-101.5 128t-37 187.5t-5 224.5zM471 436q0 -86 20.5 -120.5t79.5 -34.5q55 0 69.5 34.5t14.5 114.5v229 q0 80 -14 116t-70 36q-59 0 -79.5 -36t-20.5 -128v-211zM1122 1227v327h336v-251l-121 -299h-176l53 223h-92z" />
<glyph unicode="&#x110;" horiz-adv-x="1206" d="M39 653v326h92v575h487q139 0 231.5 -35.5t148 -116.5t78 -212t22.5 -320v-186q0 -188 -22.5 -319.5t-78 -212t-147.5 -116.5t-232 -36h-487v653h-92zM524 338h76q61 0 83 66.5t22 195.5v354q0 131 -21.5 197t-83.5 66h-76v-238h94v-326h-94v-315z" />
<glyph unicode="&#x111;" horiz-adv-x="1144" d="M121 569q0 117 5 216.5t34.5 172t95.5 112.5t186 40q68 0 115 -27.5t100 -93.5v271h-182v192h182v102h353v-102h135v-192h-135v-1260h-326v104q-43 -53 -101.5 -87.5t-121.5 -34.5q-127 0 -196.5 47t-101.5 128t-37 187.5t-5 224.5zM471 436q0 -86 20.5 -120.5 t79.5 -34.5q55 0 69.5 34.5t14.5 114.5v229q0 80 -14 116t-70 36q-59 0 -79.5 -36t-20.5 -128v-211z" />
<glyph unicode="&#x112;" horiz-adv-x="1034" d="M127 0v1554h795v-360h-426v-215h405v-326h-405v-297h432v-356h-801zM229 1725v192h608v-192h-608z" />
<glyph unicode="&#x113;" horiz-adv-x="1128" d="M113 557q0 123 13 224.5t61.5 175t139.5 113.5t246 40q150 0 239 -41t135 -109.5t59.5 -158.5t13.5 -191q0 -76 -6 -143h-543q0 -104 23.5 -146t78.5 -42q47 0 68 18t25 55h338q-10 -90 -34 -159.5t-73 -116.5t-127 -70.5t-197 -23.5q-152 0 -242.5 44t-139 120.5 t-63.5 182t-15 228.5zM270 1260v192h608v-192h-608zM471 670h211q-4 78 -28.5 110.5t-78.5 32.5q-51 0 -75.5 -32.5t-28.5 -110.5z" />
<glyph unicode="&#x114;" horiz-adv-x="1034" d="M127 0v1554h795v-360h-426v-215h405v-326h-405v-297h432v-356h-801zM158 1995h195q14 -88 60 -137.5t124 -49.5q76 0 123 49.5t61 137.5h193q-16 -180 -113.5 -281.5t-263.5 -101.5t-264.5 101.5t-114.5 281.5z" />
<glyph unicode="&#x115;" horiz-adv-x="1128" d="M113 557q0 123 13 224.5t61.5 175t139.5 113.5t246 40q150 0 239 -41t135 -109.5t59.5 -158.5t13.5 -191q0 -76 -6 -143h-543q0 -104 23.5 -146t78.5 -42q47 0 68 18t25 55h338q-10 -90 -34 -159.5t-73 -116.5t-127 -70.5t-197 -23.5q-152 0 -242.5 44t-139 120.5 t-63.5 182t-15 228.5zM203 1530h195q14 -88 60 -137.5t124 -49.5q76 0 123 49.5t61 137.5h193q-16 -180 -113.5 -281.5t-263.5 -101.5t-264.5 101.5t-114.5 281.5zM471 670h211q-4 78 -28.5 110.5t-78.5 32.5q-51 0 -75.5 -32.5t-28.5 -110.5z" />
<glyph unicode="&#x116;" horiz-adv-x="1034" d="M127 0v1554h795v-360h-426v-215h405v-326h-405v-297h432v-356h-801zM373 1669v297h319v-297h-319z" />
<glyph unicode="&#x117;" horiz-adv-x="1128" d="M113 557q0 123 13 224.5t61.5 175t139.5 113.5t246 40q150 0 239 -41t135 -109.5t59.5 -158.5t13.5 -191q0 -76 -6 -143h-543q0 -104 23.5 -146t78.5 -42q47 0 68 18t25 55h338q-10 -90 -34 -159.5t-73 -116.5t-127 -70.5t-197 -23.5q-152 0 -242.5 44t-139 120.5 t-63.5 182t-15 228.5zM420 1204v297h319v-297h-319zM471 670h211q-4 78 -28.5 110.5t-78.5 32.5q-51 0 -75.5 -32.5t-28.5 -110.5z" />
<glyph unicode="&#x118;" horiz-adv-x="1034" d="M127 0v1554h795v-360h-426v-215h405v-326h-405v-297h432v-356q-113 -29 -161 -51.5t-48 -67.5q0 -57 63 -57h146v-287h-185q-43 0 -80.5 9.5t-66.5 33t-46.5 64.5t-17.5 104q0 61 26 105.5t66 75t91 48t100 23.5h-688z" />
<glyph unicode="&#x119;" horiz-adv-x="1128" d="M113 557q0 123 13 224.5t61.5 175t139.5 113.5t246 40q150 0 239 -41t135 -109.5t59.5 -158.5t13.5 -191q0 -76 -6 -143h-543q0 -104 23.5 -146t78.5 -42q47 0 68 18t25 55h338q-14 -129 -58.5 -211t-148.5 -127q-61 -27 -97 -64.5t-36 -68.5q0 -57 63 -57h145v-287h-184 q-43 0 -81 9.5t-66.5 33t-46 64.5t-17.5 104q0 72 45 132.5t109 103.5q-14 0 -28.5 -1t-29.5 -1q-152 0 -242.5 44t-139 120.5t-63.5 182t-15 228.5zM471 670h211q-4 78 -28.5 110.5t-78.5 32.5q-51 0 -75.5 -32.5t-28.5 -110.5z" />
<glyph unicode="&#x11a;" horiz-adv-x="1034" d="M127 0v1554h795v-360h-426v-215h405v-326h-405v-297h432v-356h-801zM217 1837v158l313 -152l320 152v-158l-320 -229z" />
<glyph unicode="&#x11b;" horiz-adv-x="1128" d="M113 557q0 123 13 224.5t61.5 175t139.5 113.5t246 40q150 0 239 -41t135 -109.5t59.5 -158.5t13.5 -191q0 -76 -6 -143h-543q0 -104 23.5 -146t78.5 -42q47 0 68 18t25 55h338q-10 -90 -34 -159.5t-73 -116.5t-127 -70.5t-197 -23.5q-152 0 -242.5 44t-139 120.5 t-63.5 182t-15 228.5zM264 1372v158l313 -152l320 152v-158l-320 -229zM471 670h211q-4 78 -28.5 110.5t-78.5 32.5q-51 0 -75.5 -32.5t-28.5 -110.5z" />
<glyph unicode="&#x11c;" horiz-adv-x="1193" d="M109 776q0 233 14 387t64.5 246t148.5 130t266 38q143 0 231.5 -26.5t136.5 -90t64.5 -166t16.5 -256.5h-351q2 6 2 23.5v30.5q0 74 -20 111.5t-80 37.5q-37 0 -56.5 -14.5t-29.5 -43t-12 -69.5t-2 -92v-430q0 -70 2 -117t12 -76.5t29.5 -42t56.5 -12.5h105v207h-99v332 h461v-883h-467q-168 0 -266 34t-148.5 122t-64.5 237.5t-14 382.5zM262 1649v157l338 189l332 -189v-157l-332 131z" />
<glyph unicode="&#x11d;" horiz-adv-x="1112" d="M102 563q0 125 5.5 226.5t37 172t101 109.5t196.5 39q63 0 122 -36t100 -89v105h327v-977q0 -127 -13 -232.5t-61.5 -181.5t-140.5 -119t-250 -43q-121 0 -200.5 23.5t-126.5 68.5t-66.5 113t-19.5 154h331q4 -35 21.5 -48.5t60.5 -13.5q63 0 88 41t25 139v146 q-53 -66 -100 -92.5t-115 -26.5q-121 0 -186.5 40t-95 109.5t-35 166t-5.5 206.5zM221 1184v157l338 189l332 -189v-157l-332 131zM453 500q0 -92 20.5 -128t79.5 -36q55 0 69.5 36t14.5 115v172q0 80 -14.5 115t-69.5 35q-59 0 -79.5 -34t-20.5 -120v-155z" />
<glyph unicode="&#x11e;" horiz-adv-x="1193" d="M109 776q0 233 14 387t64.5 246t148.5 130t266 38q143 0 231.5 -26.5t136.5 -90t64.5 -166t16.5 -256.5h-351q2 6 2 23.5v30.5q0 74 -20 111.5t-80 37.5q-37 0 -56.5 -14.5t-29.5 -43t-12 -69.5t-2 -92v-430q0 -70 2 -117t12 -76.5t29.5 -42t56.5 -12.5h105v207h-99v332 h461v-883h-467q-168 0 -266 34t-148.5 122t-64.5 237.5t-14 382.5zM213 1995h195q14 -88 60 -137.5t124 -49.5q76 0 123 49.5t61 137.5h193q-16 -180 -113.5 -281.5t-263.5 -101.5t-264.5 101.5t-114.5 281.5z" />
<glyph unicode="&#x11f;" horiz-adv-x="1112" d="M102 563q0 125 5.5 226.5t37 172t101 109.5t196.5 39q63 0 122 -36t100 -89v105h327v-977q0 -127 -13 -232.5t-61.5 -181.5t-140.5 -119t-250 -43q-121 0 -200.5 23.5t-126.5 68.5t-66.5 113t-19.5 154h331q4 -35 21.5 -48.5t60.5 -13.5q63 0 88 41t25 139v146 q-53 -66 -100 -92.5t-115 -26.5q-121 0 -186.5 40t-95 109.5t-35 166t-5.5 206.5zM178 1530h195q14 -88 60 -137.5t124 -49.5q76 0 123 49.5t61 137.5h193q-16 -180 -113.5 -281.5t-263.5 -101.5t-264.5 101.5t-114.5 281.5zM453 500q0 -92 20.5 -128t79.5 -36q55 0 69.5 36 t14.5 115v172q0 80 -14.5 115t-69.5 35q-59 0 -79.5 -34t-20.5 -120v-155z" />
<glyph unicode="&#x120;" horiz-adv-x="1193" d="M109 776q0 233 14 387t64.5 246t148.5 130t266 38q143 0 231.5 -26.5t136.5 -90t64.5 -166t16.5 -256.5h-351q2 6 2 23.5v30.5q0 74 -20 111.5t-80 37.5q-37 0 -56.5 -14.5t-29.5 -43t-12 -69.5t-2 -92v-430q0 -70 2 -117t12 -76.5t29.5 -42t56.5 -12.5h105v207h-99v332 h461v-883h-467q-168 0 -266 34t-148.5 122t-64.5 237.5t-14 382.5zM436 1669v297h319v-297h-319z" />
<glyph unicode="&#x121;" horiz-adv-x="1112" d="M102 563q0 125 5.5 226.5t37 172t101 109.5t196.5 39q63 0 122 -36t100 -89v105h327v-977q0 -127 -13 -232.5t-61.5 -181.5t-140.5 -119t-250 -43q-121 0 -200.5 23.5t-126.5 68.5t-66.5 113t-19.5 154h331q4 -35 21.5 -48.5t60.5 -13.5q63 0 88 41t25 139v146 q-53 -66 -100 -92.5t-115 -26.5q-121 0 -186.5 40t-95 109.5t-35 166t-5.5 206.5zM395 1204v297h319v-297h-319zM453 500q0 -92 20.5 -128t79.5 -36q55 0 69.5 36t14.5 115v172q0 80 -14.5 115t-69.5 35q-59 0 -79.5 -34t-20.5 -120v-155z" />
<glyph unicode="&#x122;" horiz-adv-x="1193" d="M109 776q0 233 14 387t64.5 246t148.5 130t266 38q143 0 231.5 -26.5t136.5 -90t64.5 -166t16.5 -256.5h-351q2 6 2 23.5v30.5q0 74 -20 111.5t-80 37.5q-37 0 -56.5 -14.5t-29.5 -43t-12 -69.5t-2 -92v-430q0 -70 2 -117t12 -76.5t29.5 -42t56.5 -12.5h105v207h-99v332 h461v-883h-467q-168 0 -266 34t-148.5 122t-64.5 237.5t-14 382.5zM473 -70h289v-163l-103 -230h-153l41 152h-74v241z" />
<glyph unicode="&#x123;" horiz-adv-x="1112" d="M102 563q0 125 5.5 226.5t37 172t101 109.5t196.5 39q63 0 122 -36t100 -89v105h327v-977q0 -127 -13 -232.5t-61.5 -181.5t-140.5 -119t-250 -43q-121 0 -200.5 23.5t-126.5 68.5t-66.5 113t-19.5 154h331q4 -35 21.5 -48.5t60.5 -13.5q63 0 88 41t25 139v146 q-53 -66 -100 -92.5t-115 -26.5q-121 0 -186.5 40t-95 109.5t-35 166t-5.5 206.5zM422 1190v163l103 230h153l-41 -152h74v-241h-289zM453 500q0 -92 20.5 -128t79.5 -36q55 0 69.5 36t14.5 115v172q0 80 -14.5 115t-69.5 35q-59 0 -79.5 -34t-20.5 -120v-155z" />
<glyph unicode="&#x124;" horiz-adv-x="1218" d="M127 0v1554h391v-577h178v577h394v-1554h-394v635h-178v-635h-391zM274 1649v157l338 189l332 -189v-157l-332 131z" />
<glyph unicode="&#x125;" horiz-adv-x="1140" d="M137 0v1554h355v-565q45 61 97 91t120 30q94 0 155.5 -21.5t95 -60.5t47 -95t13.5 -126v-807h-350v717q0 57 -20.5 75.5t-69.5 18.5t-68.5 -18.5t-19.5 -75.5v-717h-355zM137 1649v157l338 189l332 -189v-157l-332 131z" />
<glyph unicode="&#x126;" horiz-adv-x="1218" d="M127 0v1554h391v-196h178v196h394v-1554h-394v635h-178v-635h-391zM518 977h178v188h-178v-188z" />
<glyph unicode="&#x127;" horiz-adv-x="1140" d="M0 1260v192h137v102h355v-102h178v-192h-178v-271q45 61 97 91t120 30q94 0 155.5 -21.5t95 -60.5t47 -95t13.5 -126v-807h-350v717q0 57 -20.5 75.5t-69.5 18.5t-68.5 -18.5t-19.5 -75.5v-717h-355v1260h-137z" />
<glyph unicode="&#x128;" horiz-adv-x="665" d="M8 1682v221q80 66 170 65q43 0 81 -12t77 -25.5t78.5 -26t82.5 -12.5q59 0 93 20.5t73 63.5v-219q-80 -70 -174 -69q-39 0 -76.5 12t-75.5 26.5t-78 26.5t-85 12q-59 0 -95 -20t-71 -63zM139 0v1554h389v-1554h-389z" />
<glyph unicode="&#x129;" horiz-adv-x="749" d="M49 1217v221q80 66 170 65q43 0 81 -12t77 -25.5t78.5 -26t82.5 -12.5q59 0 93 20.5t73 63.5v-219q-80 -70 -174 -69q-39 0 -76.5 12t-75.5 26.5t-78 26.5t-85 12q-59 0 -95 -20t-71 -63zM196 0v1090h355v-1090h-355z" />
<glyph unicode="&#x12a;" horiz-adv-x="665" d="M31 1725v192h608v-192h-608zM139 0v1554h389v-1554h-389z" />
<glyph unicode="&#x12b;" horiz-adv-x="749" d="M74 1260v192h608v-192h-608zM196 0v1090h355v-1090h-355z" />
<glyph unicode="&#x12c;" horiz-adv-x="665" d="M-43 1995h195q14 -88 60 -137.5t124 -49.5q76 0 123 49.5t61 137.5h193q-16 -180 -113.5 -281.5t-263.5 -101.5t-264.5 101.5t-114.5 281.5zM139 0v1554h389v-1554h-389z" />
<glyph unicode="&#x12d;" horiz-adv-x="749" d="M0 1530h195q14 -88 60 -137.5t124 -49.5q76 0 123 49.5t61 137.5h193q-16 -180 -113.5 -281.5t-263.5 -101.5t-264.5 101.5t-114.5 281.5zM196 0v1090h355v-1090h-355z" />
<glyph unicode="&#x12e;" horiz-adv-x="665" d="M74 -252q0 90 65 152v1654h389v-1554h2q-121 -23 -195.5 -48.5t-74.5 -70.5q0 -29 15.5 -43t58.5 -14h196v-287h-245q-43 0 -81 9.5t-66.5 33t-46 64.5t-17.5 104z" />
<glyph unicode="&#x12f;" horiz-adv-x="634" d="M57 -252q0 53 22.5 93t59.5 69v1180h355v-1090q-125 -25 -187.5 -48.5t-62.5 -70.5q0 -57 63 -57h146v-287h-185q-43 0 -80.5 9.5t-66.5 33t-46.5 64.5t-17.5 104zM139 1255v299h355v-299h-355z" />
<glyph unicode="&#x130;" horiz-adv-x="665" d="M139 0v1554h389v-1554h-389zM172 1669v297h319v-297h-319z" />
<glyph unicode="&#x131;" horiz-adv-x="634" d="M139 0v1090h355v-1090h-355z" />
<glyph unicode="&#x132;" horiz-adv-x="1765" d="M139 0v1554h389v-1554h-389zM723 432v123h375v-123q0 -68 17.5 -90.5t68.5 -22.5q39 0 56.5 23t17.5 90v1122h391v-1122q0 -137 -22.5 -224t-79 -137.5t-152.5 -69.5t-244 -19q-125 0 -206.5 23.5t-131 75.5t-70 138t-20.5 213z" />
<glyph unicode="&#x133;" horiz-adv-x="1271" d="M139 0v1090h355v-1090h-355zM139 1255v299h355v-299h-355zM645 -164q8 -4 20.5 -6t39.5 -2q39 0 52 26.5t13 73.5v1162h354v-1153q0 -111 -18 -187t-59 -124t-105.5 -68.5t-156.5 -20.5q-49 0 -86 7t-54 16v276zM770 1255v299h354v-299h-354z" />
<glyph unicode="&#x134;" horiz-adv-x="1099" d="M57 432v123h375v-123q0 -68 17.5 -90.5t68.5 -22.5q39 0 56.5 23t17.5 90v1122h391v-1122q0 -137 -22.5 -224t-79 -137.5t-152.5 -69.5t-244 -19q-125 0 -206.5 23.5t-131 75.5t-70 138t-20.5 213zM326 1649v157l338 189l332 -189v-157l-332 131z" />
<glyph unicode="&#x135;" horiz-adv-x="636" d="M-27 1184v157l338 189l332 -189v-157l-332 131zM10 -164q8 -4 20.5 -6t39.5 -2q39 0 52 26.5t13 73.5v1162h354v-1153q0 -111 -18 -187t-59 -124t-105.5 -68.5t-156.5 -20.5q-49 0 -86 7t-54 16v276z" />
<glyph unicode="&#x136;" horiz-adv-x="1243" d="M127 0v1554h385v-251q0 -74 -1 -126.5t-2 -93.5t-4 -75.5t-5 -75.5q12 39 23.5 71.5t23.5 67.5t28.5 75t38.5 89l142 319h428l-363 -700l375 -854h-434l-150 377q-31 80 -59.5 165t-50.5 156q2 -37 4 -71.5t4 -74.5t2 -88v-112v-352h-385zM489 -70h289v-163l-103 -230 h-153l41 152h-74v241z" />
<glyph unicode="&#x137;" horiz-adv-x="1075" d="M137 0v1554h352v-620q0 -57 -2 -114.5t-6 -112.5q16 49 33.5 104t40.5 111l63 168h394l-226 -449l236 -641h-397l-70 266q-23 76 -40 153t-34 152q4 -78 6 -157.5t2 -157.5v-256h-352zM414 -70h289v-163l-103 -230h-153l41 152h-74v241z" />
<glyph unicode="&#x139;" horiz-adv-x="940" d="M127 0v1554h391v-1204h377v-350h-768zM186 1657v145l524 193v-242z" />
<glyph unicode="&#x13a;" horiz-adv-x="628" d="M117 1657v145l524 193v-242zM137 0v1554h355v-1554h-355z" />
<glyph unicode="&#x13b;" horiz-adv-x="940" d="M127 0v1554h391v-1204h377v-350h-768zM367 -70h289v-163l-103 -230h-153l41 152h-74v241z" />
<glyph unicode="&#x13c;" horiz-adv-x="628" d="M137 0v1554h355v-1554h-355zM170 -70h289v-163l-103 -230h-153l41 152h-74v241z" />
<glyph unicode="&#x13d;" horiz-adv-x="940" d="M127 0v1554h391v-1204h377v-350h-768zM598 1227v327h336v-251l-121 -299h-176l53 223h-92z" />
<glyph unicode="&#x13e;" horiz-adv-x="915" d="M137 0v1554h355v-1554h-355zM608 1227v327h336v-251l-121 -299h-176l53 223h-92z" />
<glyph unicode="&#x13f;" horiz-adv-x="940" d="M127 0v1554h391v-1204h377v-350h-768zM571 715v297h319v-297h-319z" />
<glyph unicode="&#x140;" horiz-adv-x="866" d="M137 0v1554h355v-1554h-355zM588 672v297h319v-297h-319z" />
<glyph unicode="&#x141;" horiz-adv-x="954" d="M55 569v248l88 25v712h389v-600l193 56v-246l-193 -55v-359h379v-350h-768v594z" />
<glyph unicode="&#x142;" horiz-adv-x="667" d="M53 641v242l90 26v645h355v-540l104 30v-243l-104 -31v-770h-355v668z" />
<glyph unicode="&#x143;" horiz-adv-x="1273" d="M121 0v1554h491l164 -581q18 -63 35.5 -129t30.5 -131q-6 129 -6 260v581h319v-1554h-453l-210 711q-16 63 -34 129.5t-32 126.5q4 -61 6 -126t2 -130v-711h-313zM436 1657v145l524 193v-242z" />
<glyph unicode="&#x144;" horiz-adv-x="1140" d="M137 0v1090h326v-101q47 66 109.5 93.5t134.5 27.5q96 0 156.5 -21.5t95 -60.5t48 -95t13.5 -126v-807h-350v717q0 57 -20.5 75.5t-69.5 18.5t-68.5 -18.5t-19.5 -75.5v-717h-355zM369 1192v145l524 193v-242z" />
<glyph unicode="&#x145;" horiz-adv-x="1273" d="M121 0v1554h491l164 -581q18 -63 35.5 -129t30.5 -131q-6 129 -6 260v581h319v-1554h-453l-210 711q-16 63 -34 129.5t-32 126.5q4 -61 6 -126t2 -130v-711h-313zM471 -70h289v-163l-103 -230h-153l41 152h-74v241z" />
<glyph unicode="&#x146;" horiz-adv-x="1140" d="M137 0v1090h326v-101q47 66 109.5 93.5t134.5 27.5q96 0 156.5 -21.5t95 -60.5t48 -95t13.5 -126v-807h-350v717q0 57 -20.5 75.5t-69.5 18.5t-68.5 -18.5t-19.5 -75.5v-717h-355zM426 -70h289v-163l-103 -230h-153l41 152h-74v241z" />
<glyph unicode="&#x147;" horiz-adv-x="1273" d="M121 0v1554h491l164 -581q18 -63 35.5 -129t30.5 -131q-6 129 -6 260v581h319v-1554h-453l-210 711q-16 63 -34 129.5t-32 126.5q4 -61 6 -126t2 -130v-711h-313zM340 1837v158l313 -152l320 152v-158l-320 -229z" />
<glyph unicode="&#x148;" horiz-adv-x="1140" d="M137 0v1090h326v-101q47 66 109.5 93.5t134.5 27.5q96 0 156.5 -21.5t95 -60.5t48 -95t13.5 -126v-807h-350v717q0 57 -20.5 75.5t-69.5 18.5t-68.5 -18.5t-19.5 -75.5v-717h-355zM254 1372v158l313 -152l320 152v-158l-320 -229z" />
<glyph unicode="&#x14a;" horiz-adv-x="1273" d="M121 0v1554h491l230 -763q-6 129 -6 260v503h319v-1617q0 -111 -18.5 -187t-59.5 -124t-105.5 -68.5t-156.5 -20.5q-49 0 -86 7t-53 16v276q10 -4 25.5 -6t50.5 -2q49 0 66.5 26.5t17.5 73.5v2l-410 1037q4 -61 6 -126t2 -130v-711h-313z" />
<glyph unicode="&#x14b;" horiz-adv-x="1140" d="M137 0v1090h326v-101q47 66 109.5 93.5t134.5 27.5q96 0 156.5 -21.5t95 -60.5t48 -95t13.5 -126v-870q0 -111 -18.5 -187t-59.5 -124t-105.5 -68.5t-156.5 -20.5q-49 0 -86 7t-53 16v276q8 -4 20 -6t39 -2q39 0 54.5 26.5t15.5 73.5v789q0 57 -20.5 75.5t-69.5 18.5 t-68.5 -18.5t-19.5 -75.5v-717h-355z" />
<glyph unicode="&#x14c;" horiz-adv-x="1204" d="M109 776q0 233 14 387t64.5 246t148.5 130t266 38t266.5 -38t148.5 -130t64.5 -245.5t14.5 -387.5q0 -233 -14.5 -385.5t-64.5 -244t-148.5 -128t-266.5 -36.5t-266 36.5t-148.5 128t-64.5 244t-14 385.5zM297 1725v192h608v-192h-608zM502 584q0 -139 14 -205t86 -66 q37 0 56.5 16.5t28.5 49.5t11 84t2 121v438q0 51 -2 92t-11 69.5t-28.5 43t-56.5 14.5t-56.5 -14.5t-29.5 -43t-12 -69.5t-2 -92v-438z" />
<glyph unicode="&#x14d;" horiz-adv-x="1157" d="M113 557q0 119 13 220.5t60 175t140.5 115.5t251.5 42t250 -42t140 -115.5t61 -175t13 -220.5q0 -127 -13 -232.5t-61 -181t-140 -118.5t-250 -43t-251.5 43t-140.5 118.5t-60 181t-13 232.5zM274 1260v192h608v-192h-608zM471 459q0 -98 21.5 -139t85.5 -41 q63 0 84.5 40.5t21.5 139.5v172q0 98 -21.5 140t-84.5 42t-85 -42t-22 -140v-172z" />
<glyph unicode="&#x14e;" horiz-adv-x="1204" d="M109 776q0 233 14 387t64.5 246t148.5 130t266 38t266.5 -38t148.5 -130t64.5 -245.5t14.5 -387.5q0 -233 -14.5 -385.5t-64.5 -244t-148.5 -128t-266.5 -36.5t-266 36.5t-148.5 128t-64.5 244t-14 385.5zM223 1995h195q14 -88 60 -137.5t124 -49.5q76 0 123 49.5 t61 137.5h193q-16 -180 -113.5 -281.5t-263.5 -101.5t-264.5 101.5t-114.5 281.5zM502 584q0 -139 14 -205t86 -66q37 0 56.5 16.5t28.5 49.5t11 84t2 121v438q0 51 -2 92t-11 69.5t-28.5 43t-56.5 14.5t-56.5 -14.5t-29.5 -43t-12 -69.5t-2 -92v-438z" />
<glyph unicode="&#x14f;" horiz-adv-x="1157" d="M113 557q0 119 13 220.5t60 175t140.5 115.5t251.5 42t250 -42t140 -115.5t61 -175t13 -220.5q0 -127 -13 -232.5t-61 -181t-140 -118.5t-250 -43t-251.5 43t-140.5 118.5t-60 181t-13 232.5zM201 1530h195q14 -88 60 -137.5t124 -49.5q76 0 123 49.5t61 137.5h193 q-16 -180 -113.5 -281.5t-263.5 -101.5t-264.5 101.5t-114.5 281.5zM471 459q0 -98 21.5 -139t85.5 -41q63 0 84.5 40.5t21.5 139.5v172q0 98 -21.5 140t-84.5 42t-85 -42t-22 -140v-172z" />
<glyph unicode="&#x150;" horiz-adv-x="1204" d="M109 776q0 233 14 387t64.5 246t148.5 130t266 38t266.5 -38t148.5 -130t64.5 -245.5t14.5 -387.5q0 -233 -14.5 -385.5t-64.5 -244t-148.5 -128t-266.5 -36.5t-266 36.5t-148.5 128t-64.5 244t-14 385.5zM291 1669l151 326h184l-159 -326h-176zM502 584q0 -139 14 -205 t86 -66q37 0 56.5 16.5t28.5 49.5t11 84t2 121v438q0 51 -2 92t-11 69.5t-28.5 43t-56.5 14.5t-56.5 -14.5t-29.5 -43t-12 -69.5t-2 -92v-438zM657 1669l150 326h188l-166 -326h-172z" />
<glyph unicode="&#x151;" horiz-adv-x="1157" d="M113 557q0 119 13 220.5t60 175t140.5 115.5t251.5 42t250 -42t140 -115.5t61 -175t13 -220.5q0 -127 -13 -232.5t-61 -181t-140 -118.5t-250 -43t-251.5 43t-140.5 118.5t-60 181t-13 232.5zM267 1204l151 326h184l-159 -326h-176zM471 459q0 -98 21.5 -139t85.5 -41 q63 0 84.5 40.5t21.5 139.5v172q0 98 -21.5 140t-84.5 42t-85 -42t-22 -140v-172zM633 1204l150 326h188l-166 -326h-172z" />
<glyph unicode="&#x152;" horiz-adv-x="1603" d="M109 776q0 233 14 387t65.5 246t149.5 130t266 38q125 0 205 -23h682v-360h-424v-215h406v-326h-406v-297h432v-356h-702q-74 -18 -193 -18q-168 0 -266 36.5t-149.5 128t-65.5 244t-14 385.5zM504 584q0 -139 14 -205t86 -66q35 0 55.5 16.5t29.5 49.5t11 84t2 121v438 q0 51 -2 92t-11 69.5t-29.5 43t-55.5 14.5q-37 0 -56.5 -14.5t-29.5 -43t-12 -69.5t-2 -92v-438z" />
<glyph unicode="&#x153;" horiz-adv-x="1718" d="M119 557q0 119 13 220.5t60.5 175t139.5 115.5t250 42q117 0 182 -23.5t100 -64.5q35 43 103.5 65.5t185.5 22.5q150 0 239 -41t135 -109.5t59 -158.5t13 -191q0 -76 -6 -143h-542q0 -104 23.5 -146t78.5 -42q47 0 67.5 18t24.5 55h338q-10 -90 -33.5 -159.5t-73 -116.5 t-127 -70.5t-196.5 -23.5q-113 0 -181.5 23.5t-103.5 70.5q-35 -47 -100.5 -70.5t-185.5 -23.5q-158 0 -250 43t-139.5 118.5t-60.5 181t-13 232.5zM475 459q0 -98 21.5 -139t85.5 -41q63 0 85.5 40.5t22.5 139.5v172q0 98 -22.5 140t-85.5 42t-85 -42t-22 -140v-172z M1051 670h211q-4 78 -29 110.5t-78 32.5q-51 0 -75.5 -32.5t-28.5 -110.5z" />
<glyph unicode="&#x154;" horiz-adv-x="1175" d="M127 0v1554h471q117 0 206 -18t147.5 -66.5t88 -130.5t29.5 -211v-53q0 -164 -44 -242.5t-148 -99.5q43 -10 76.5 -26.5t58 -47t37 -77.5t12.5 -121v-172q0 -51 2 -90t5 -73t9 -63.5t13 -62.5h-381q-16 45 -21.5 105.5t-5.5 144.5v172q0 57 -13.5 99t-70.5 42h-80v-563 h-391zM367 1657v145l524 193v-242zM518 872h80q29 0 44 13.5t23.5 34t9.5 46t1 52.5v67q0 25 -1 48.5t-9.5 42t-23.5 30t-44 11.5h-80v-345z" />
<glyph unicode="&#x155;" horiz-adv-x="823" d="M137 0v1090h326v-101q16 37 42.5 59.5t56.5 37t60.5 19.5t57.5 5q45 0 94 -12v-336q-45 43 -133 43q-72 0 -110.5 -31t-38.5 -102v-672h-355zM252 1192v145l524 193v-242z" />
<glyph unicode="&#x156;" horiz-adv-x="1175" d="M127 0v1554h471q117 0 206 -18t147.5 -66.5t88 -130.5t29.5 -211v-53q0 -164 -44 -242.5t-148 -99.5q43 -10 76.5 -26.5t58 -47t37 -77.5t12.5 -121v-172q0 -51 2 -90t5 -73t9 -63.5t13 -62.5h-381q-16 45 -21.5 105.5t-5.5 144.5v172q0 57 -13.5 99t-70.5 42h-80v-563 h-391zM467 -70h289v-163l-103 -230h-153l41 152h-74v241zM518 872h80q29 0 44 13.5t23.5 34t9.5 46t1 52.5v67q0 25 -1 48.5t-9.5 42t-23.5 30t-44 11.5h-80v-345z" />
<glyph unicode="&#x157;" horiz-adv-x="823" d="M137 0v1090h326v-101q16 37 42.5 59.5t56.5 37t60.5 19.5t57.5 5q45 0 94 -12v-336q-45 43 -133 43q-72 0 -110.5 -31t-38.5 -102v-672h-355zM174 -70h289v-163l-103 -230h-153l41 152h-74v241z" />
<glyph unicode="&#x158;" horiz-adv-x="1175" d="M127 0v1554h471q117 0 206 -18t147.5 -66.5t88 -130.5t29.5 -211v-53q0 -164 -44 -242.5t-148 -99.5q43 -10 76.5 -26.5t58 -47t37 -77.5t12.5 -121v-172q0 -51 2 -90t5 -73t9 -63.5t13 -62.5h-381q-16 45 -21.5 105.5t-5.5 144.5v172q0 57 -13.5 99t-70.5 42h-80v-563 h-391zM250 1837v158l313 -152l320 152v-158l-320 -229zM518 872h80q29 0 44 13.5t23.5 34t9.5 46t1 52.5v67q0 25 -1 48.5t-9.5 42t-23.5 30t-44 11.5h-80v-345z" />
<glyph unicode="&#x159;" horiz-adv-x="823" d="M137 0v1090h326v-101q16 37 42.5 59.5t56.5 37t60.5 19.5t57.5 5q45 0 94 -12v-336q-45 43 -133 43q-72 0 -110.5 -31t-38.5 -102v-672h-355zM137 1372v158l313 -152l320 152v-158l-320 -229z" />
<glyph unicode="&#x15a;" horiz-adv-x="1140" d="M102 397q0 20 2 49t5 52h376q-6 -37 -6 -80q0 -41 12.5 -75t65.5 -34q27 0 42 13.5t23.5 34t9.5 46t1 50.5q0 49 -9.5 82.5t-50.5 60.5q-41 29 -88 49.5t-96 42.5q-53 25 -102 62.5t-88 89t-61.5 118t-22.5 152.5q0 137 29.5 228.5t87 143.5t142.5 73.5t197 21.5 q92 0 173 -12.5t141.5 -52t95.5 -116.5t35 -204q0 -43 -1 -64.5t-3 -31.5h-367q0 8 1 18t1 31q0 18 -2 36.5t-8 34t-18.5 24.5t-34.5 9q-45 0 -56.5 -30.5t-11.5 -77.5q0 -51 12.5 -81t34 -47.5t51 -26.5t62.5 -17q25 -6 57.5 -15.5t63.5 -19.5q76 -27 124 -74t74.5 -107.5 t35.5 -133t9 -150.5q0 -145 -26.5 -239.5t-84 -149.5t-145.5 -76.5t-213 -21.5q-98 0 -184 15t-148.5 60t-99.5 126t-37 214zM389 1657v145l524 193v-242z" />
<glyph unicode="&#x15b;" horiz-adv-x="966" d="M92 756q0 106 27.5 175.5t77 108.5t119 54.5t153.5 15.5q63 0 129 -9t120 -38t89 -85t35 -149q0 -31 -4 -51h-303v25q0 41 -16.5 55t-49.5 14q-25 0 -42 -12t-17 -43q0 -45 33.5 -65.5t85 -36t110.5 -32.5t110.5 -54t85 -104.5t33.5 -180.5q0 -104 -21.5 -174t-65.5 -112 t-113.5 -59t-167.5 -17q-68 0 -138.5 8t-130 38.5t-97.5 90t-38 162.5q0 27 1 39t3 20h312q-2 -4 -2 -11v-18q0 -43 22.5 -61.5t56.5 -18.5q33 0 56.5 12.5t23.5 55.5q0 31 -13 47t-32.5 24.5t-44 12.5t-47.5 10q-55 12 -115.5 30.5t-109.5 57.5t-82 104.5t-33 170.5z M283 1192v145l524 193v-242z" />
<glyph unicode="&#x15c;" horiz-adv-x="1140" d="M102 397q0 20 2 49t5 52h376q-6 -37 -6 -80q0 -41 12.5 -75t65.5 -34q27 0 42 13.5t23.5 34t9.5 46t1 50.5q0 49 -9.5 82.5t-50.5 60.5q-41 29 -88 49.5t-96 42.5q-53 25 -102 62.5t-88 89t-61.5 118t-22.5 152.5q0 137 29.5 228.5t87 143.5t142.5 73.5t197 21.5 q92 0 173 -12.5t141.5 -52t95.5 -116.5t35 -204q0 -43 -1 -64.5t-3 -31.5h-367q0 8 1 18t1 31q0 18 -2 36.5t-8 34t-18.5 24.5t-34.5 9q-45 0 -56.5 -30.5t-11.5 -77.5q0 -51 12.5 -81t34 -47.5t51 -26.5t62.5 -17q25 -6 57.5 -15.5t63.5 -19.5q76 -27 124 -74t74.5 -107.5 t35.5 -133t9 -150.5q0 -145 -26.5 -239.5t-84 -149.5t-145.5 -76.5t-213 -21.5q-98 0 -184 15t-148.5 60t-99.5 126t-37 214zM246 1649v157l338 189l332 -189v-157l-332 131z" />
<glyph unicode="&#x15d;" horiz-adv-x="966" d="M92 756q0 106 27.5 175.5t77 108.5t119 54.5t153.5 15.5q63 0 129 -9t120 -38t89 -85t35 -149q0 -31 -4 -51h-303v25q0 41 -16.5 55t-49.5 14q-25 0 -42 -12t-17 -43q0 -45 33.5 -65.5t85 -36t110.5 -32.5t110.5 -54t85 -104.5t33.5 -180.5q0 -104 -21.5 -174t-65.5 -112 t-113.5 -59t-167.5 -17q-68 0 -138.5 8t-130 38.5t-97.5 90t-38 162.5q0 27 1 39t3 20h312q-2 -4 -2 -11v-18q0 -43 22.5 -61.5t56.5 -18.5q33 0 56.5 12.5t23.5 55.5q0 31 -13 47t-32.5 24.5t-44 12.5t-47.5 10q-55 12 -115.5 30.5t-109.5 57.5t-82 104.5t-33 170.5z M147 1184v157l338 189l332 -189v-157l-332 131z" />
<glyph unicode="&#x15e;" horiz-adv-x="1140" d="M102 397q0 20 2 49t5 52h376q-6 -37 -6 -80q0 -41 12.5 -75t65.5 -34q27 0 42 13.5t23.5 34t9.5 46t1 50.5q0 49 -9.5 82.5t-50.5 60.5q-41 29 -88 49.5t-96 42.5q-53 25 -102 62.5t-88 89t-61.5 118t-22.5 152.5q0 137 29.5 228.5t87 143.5t142.5 73.5t197 21.5 q92 0 173 -12.5t141.5 -52t95.5 -116.5t35 -204q0 -43 -1 -64.5t-3 -31.5h-367q0 8 1 18t1 31q0 18 -2 36.5t-8 34t-18.5 24.5t-34.5 9q-45 0 -56.5 -30.5t-11.5 -77.5q0 -51 12.5 -81t34 -47.5t51 -26.5t62.5 -17q25 -6 57.5 -15.5t63.5 -19.5q76 -27 124 -74t74.5 -107.5 t35.5 -133t9 -150.5q0 -145 -26.5 -239.5t-84 -149.5t-145.5 -76.5t-213 -21.5q-98 0 -184 15t-148.5 60t-99.5 126t-37 214zM438 -70h289v-163l-103 -230h-153l41 152h-74v241z" />
<glyph unicode="&#x15f;" horiz-adv-x="966" d="M92 756q0 106 27.5 175.5t77 108.5t119 54.5t153.5 15.5q63 0 129 -9t120 -38t89 -85t35 -149q0 -31 -4 -51h-303v25q0 41 -16.5 55t-49.5 14q-25 0 -42 -12t-17 -43q0 -45 33.5 -65.5t85 -36t110.5 -32.5t110.5 -54t85 -104.5t33.5 -180.5q0 -104 -21.5 -174t-65.5 -112 t-113.5 -59t-167.5 -17q-68 0 -138.5 8t-130 38.5t-97.5 90t-38 162.5q0 27 1 39t3 20h312q-2 -4 -2 -11v-18q0 -43 22.5 -61.5t56.5 -18.5q33 0 56.5 12.5t23.5 55.5q0 31 -13 47t-32.5 24.5t-44 12.5t-47.5 10q-55 12 -115.5 30.5t-109.5 57.5t-82 104.5t-33 170.5z M344 -70h289v-163l-103 -230h-153l41 152h-74v241z" />
<glyph unicode="&#x160;" horiz-adv-x="1140" d="M102 397q0 20 2 49t5 52h376q-6 -37 -6 -80q0 -41 12.5 -75t65.5 -34q27 0 42 13.5t23.5 34t9.5 46t1 50.5q0 49 -9.5 82.5t-50.5 60.5q-41 29 -88 49.5t-96 42.5q-53 25 -102 62.5t-88 89t-61.5 118t-22.5 152.5q0 137 29.5 228.5t87 143.5t142.5 73.5t197 21.5 q92 0 173 -12.5t141.5 -52t95.5 -116.5t35 -204q0 -43 -1 -64.5t-3 -31.5h-367q0 8 1 18t1 31q0 18 -2 36.5t-8 34t-18.5 24.5t-34.5 9q-45 0 -56.5 -30.5t-11.5 -77.5q0 -51 12.5 -81t34 -47.5t51 -26.5t62.5 -17q25 -6 57.5 -15.5t63.5 -19.5q76 -27 124 -74t74.5 -107.5 t35.5 -133t9 -150.5q0 -145 -26.5 -239.5t-84 -149.5t-145.5 -76.5t-213 -21.5q-98 0 -184 15t-148.5 60t-99.5 126t-37 214zM274 1837v158l313 -152l320 152v-158l-320 -229z" />
<glyph unicode="&#x161;" horiz-adv-x="966" d="M92 756q0 106 27.5 175.5t77 108.5t119 54.5t153.5 15.5q63 0 129 -9t120 -38t89 -85t35 -149q0 -31 -4 -51h-303v25q0 41 -16.5 55t-49.5 14q-25 0 -42 -12t-17 -43q0 -45 33.5 -65.5t85 -36t110.5 -32.5t110.5 -54t85 -104.5t33.5 -180.5q0 -104 -21.5 -174t-65.5 -112 t-113.5 -59t-167.5 -17q-68 0 -138.5 8t-130 38.5t-97.5 90t-38 162.5q0 27 1 39t3 20h312q-2 -4 -2 -11v-18q0 -43 22.5 -61.5t56.5 -18.5q33 0 56.5 12.5t23.5 55.5q0 31 -13 47t-32.5 24.5t-44 12.5t-47.5 10q-55 12 -115.5 30.5t-109.5 57.5t-82 104.5t-33 170.5z M176 1372v158l313 -152l320 152v-158l-320 -229z" />
<glyph unicode="&#x162;" horiz-adv-x="966" d="M43 1204v350h885v-350h-250v-1204h-389v1204h-246zM338 -70h289v-163l-103 -230h-153l41 152h-74v241z" />
<glyph unicode="&#x163;" horiz-adv-x="649" d="M37 823v267h74v317h354v-317h117v-267h-117v-450q0 -47 12 -74t51 -27q29 0 41.5 2t18.5 7v-277q-16 -8 -52 -15t-85 -7q-92 0 -156 20.5t-104.5 68.5t-59 123.5t-18.5 186.5v442h-76zM221 -70h289v-163l-103 -230h-153l41 152h-74v241z" />
<glyph unicode="&#x164;" horiz-adv-x="966" d="M43 1204v350h885v-350h-250v-1204h-389v1204h-246zM166 1837v158l313 -152l320 152v-158l-320 -229z" />
<glyph unicode="&#x165;" horiz-adv-x="897" d="M37 823v267h74v317h354v-317h117v-267h-117v-450q0 -47 12 -74t51 -27q29 0 41.5 2t18.5 7v-277q-16 -8 -52 -15t-85 -7q-92 0 -156 20.5t-104.5 68.5t-59 123.5t-18.5 186.5v442h-76zM598 1227v327h336v-251l-121 -299h-176l53 223h-92z" />
<glyph unicode="&#x166;" horiz-adv-x="966" d="M43 1204v350h885v-350h-250v-323h131v-254h-131v-627h-389v627h-131v254h131v323h-246z" />
<glyph unicode="&#x167;" horiz-adv-x="649" d="M37 823v267h74v317h354v-317h117v-267h-117v-149h117v-254h-117v-47q0 -47 12 -74t51 -27q29 0 41.5 2t18.5 7v-277q-16 -8 -52 -15t-85 -7q-92 0 -156 20.5t-104.5 68.5t-59 123.5t-18.5 186.5v39h-74v254h74v149h-76z" />
<glyph unicode="&#x168;" horiz-adv-x="1189" d="M119 432v1122h387v-1122q0 -68 21.5 -90.5t66.5 -22.5q47 0 68.5 23t21.5 90v1122h389v-1122q0 -137 -23.5 -224t-79 -137.5t-146.5 -69.5t-226 -19t-227 19t-147.5 69.5t-80 137.5t-24.5 224zM266 1682v221q80 66 170 65q43 0 81 -12t77 -25.5t78.5 -26t82.5 -12.5 q59 0 93 20.5t73 63.5v-219q-80 -70 -174 -69q-39 0 -76.5 12t-75.5 26.5t-78 26.5t-85 12q-59 0 -95 -20t-71 -63z" />
<glyph unicode="&#x169;" horiz-adv-x="1134" d="M127 283v807h350v-717q0 -57 19.5 -75.5t66.5 -18.5t65.5 18t18.5 76v717h352v-1090h-323v100q-47 -66 -105.5 -92t-132.5 -26q-94 0 -154.5 20.5t-95 59t-48 95t-13.5 126.5zM240 1217v221q80 66 170 65q43 0 81 -12t77 -25.5t78.5 -26t82.5 -12.5q59 0 93 20.5t73 63.5 v-219q-80 -70 -174 -69q-39 0 -76.5 12t-75.5 26.5t-78 26.5t-85 12q-59 0 -95 -20t-71 -63z" />
<glyph unicode="&#x16a;" horiz-adv-x="1189" d="M119 432v1122h387v-1122q0 -68 21.5 -90.5t66.5 -22.5q47 0 68.5 23t21.5 90v1122h389v-1122q0 -137 -23.5 -224t-79 -137.5t-146.5 -69.5t-226 -19t-227 19t-147.5 69.5t-80 137.5t-24.5 224zM291 1725v192h608v-192h-608z" />
<glyph unicode="&#x16b;" horiz-adv-x="1134" d="M127 283v807h350v-717q0 -57 19.5 -75.5t66.5 -18.5t65.5 18t18.5 76v717h352v-1090h-323v100q-47 -66 -105.5 -92t-132.5 -26q-94 0 -154.5 20.5t-95 59t-48 95t-13.5 126.5zM262 1260v192h608v-192h-608z" />
<glyph unicode="&#x16c;" horiz-adv-x="1189" d="M119 432v1122h387v-1122q0 -68 21.5 -90.5t66.5 -22.5q47 0 68.5 23t21.5 90v1122h389v-1122q0 -137 -23.5 -224t-79 -137.5t-146.5 -69.5t-226 -19t-227 19t-147.5 69.5t-80 137.5t-24.5 224zM217 1995h195q14 -88 60 -137.5t124 -49.5q76 0 123 49.5t61 137.5h193 q-16 -180 -113.5 -281.5t-263.5 -101.5t-264.5 101.5t-114.5 281.5z" />
<glyph unicode="&#x16d;" horiz-adv-x="1134" d="M127 283v807h350v-717q0 -57 19.5 -75.5t66.5 -18.5t65.5 18t18.5 76v717h352v-1090h-323v100q-47 -66 -105.5 -92t-132.5 -26q-94 0 -154.5 20.5t-95 59t-48 95t-13.5 126.5zM188 1530h195q14 -88 60 -137.5t124 -49.5q76 0 123 49.5t61 137.5h193 q-16 -180 -113.5 -281.5t-263.5 -101.5t-264.5 101.5t-114.5 281.5z" />
<glyph unicode="&#x16e;" horiz-adv-x="1189" d="M119 432v1122h387v-1122q0 -68 21.5 -90.5t66.5 -22.5q47 0 68.5 23t21.5 90v1122h389v-1122q0 -137 -23.5 -224t-79 -137.5t-146.5 -69.5t-226 -19t-227 19t-147.5 69.5t-80 137.5t-24.5 224zM401 1798q0 33 6 68t25.5 63.5t58.5 47t105 18.5q63 0 101 -18.5t58.5 -47 t25.5 -63.5t5 -68t-5 -67.5t-25.5 -62t-58.5 -45t-101 -17.5q-66 0 -105 17.5t-58.5 45t-25.5 62t-6 67.5zM522 1798q0 -31 11.5 -57.5t62.5 -26.5q49 0 61 27t12 57q0 35 -12 61.5t-61 26.5q-51 0 -62.5 -26.5t-11.5 -61.5z" />
<glyph unicode="&#x16f;" horiz-adv-x="1134" d="M127 283v807h350v-717q0 -57 19.5 -75.5t66.5 -18.5t65.5 18t18.5 76v717h352v-1090h-323v100q-47 -66 -105.5 -92t-132.5 -26q-94 0 -154.5 20.5t-95 59t-48 95t-13.5 126.5zM375 1333q0 33 6 68t25.5 63.5t58.5 47t105 18.5q63 0 101 -18.5t58.5 -47t25.5 -63.5t5 -68 t-5 -67.5t-25.5 -62t-58.5 -45t-101 -17.5q-66 0 -105 17.5t-58.5 45t-25.5 62t-6 67.5zM496 1333q0 -31 11.5 -57.5t62.5 -26.5q49 0 61 27t12 57q0 35 -12 61.5t-61 26.5q-51 0 -62.5 -26.5t-11.5 -61.5z" />
<glyph unicode="&#x170;" horiz-adv-x="1189" d="M119 432v1122h387v-1122q0 -68 21.5 -90.5t66.5 -22.5q47 0 68.5 23t21.5 90v1122h389v-1122q0 -137 -23.5 -224t-79 -137.5t-146.5 -69.5t-226 -19t-227 19t-147.5 69.5t-80 137.5t-24.5 224zM320 1669l151 326h184l-159 -326h-176zM686 1669l150 326h188l-166 -326 h-172z" />
<glyph unicode="&#x171;" horiz-adv-x="1134" d="M127 283v807h350v-717q0 -57 19.5 -75.5t66.5 -18.5t65.5 18t18.5 76v717h352v-1090h-323v100q-47 -66 -105.5 -92t-132.5 -26q-94 0 -154.5 20.5t-95 59t-48 95t-13.5 126.5zM273 1204l151 326h184l-159 -326h-176zM639 1204l150 326h188l-166 -326h-172z" />
<glyph unicode="&#x172;" horiz-adv-x="1189" d="M119 432v1122h387v-1122q0 -68 21.5 -90.5t66.5 -22.5q47 0 68.5 23t21.5 90v1122h389v-1122q0 -109 -14.5 -183.5t-47 -125.5t-85 -81t-127.5 -46q-104 -23 -148.5 -46.5t-44.5 -68.5q0 -57 64 -57h145v-287h-184q-43 0 -81 9.5t-66.5 33t-46 64.5t-17.5 104 q0 98 59.5 153.5t138.5 80.5h-20q-135 0 -227 19t-147.5 69.5t-80 137.5t-24.5 224z" />
<glyph unicode="&#x173;" horiz-adv-x="1134" d="M127 283v807h350v-717q0 -57 19.5 -75.5t66.5 -18.5t65.5 18t18.5 76v717h352v-1090q-113 -29 -160.5 -51.5t-47.5 -67.5q0 -57 63 -57h145v-287h-184q-43 0 -81 9.5t-66.5 33t-46 64.5t-17.5 104q0 55 20.5 96t51.5 70v186q-47 -66 -105.5 -92t-132.5 -26 q-94 0 -154.5 20.5t-95 59t-48 95t-13.5 126.5z" />
<glyph unicode="&#x174;" horiz-adv-x="1716" d="M43 1554h385l64 -503q12 -94 20 -189.5t14 -191.5q4 96 14.5 191t22.5 190l66 503h469l67 -503q12 -92 21.5 -188.5t15.5 -192.5q6 96 15.5 191t19.5 190l61 503h377l-233 -1554h-443l-75 463q-20 121 -37 244.5t-29 246.5q-12 -123 -29.5 -246.5t-40.5 -244.5l-79 -463 h-435zM522 1649v157l338 189l332 -189v-157l-332 131z" />
<glyph unicode="&#x175;" horiz-adv-x="1423" d="M45 1090h320l36 -295q14 -106 22.5 -211t12.5 -211q6 106 14.5 210.5t22.5 211.5l39 295h403l37 -295q12 -106 20.5 -211t14.5 -211q4 106 14.5 210.5t22.5 211.5l35 295h315l-164 -1090h-419l-41 324q-14 94 -23.5 188t-15.5 188q-8 -94 -18.5 -188t-22.5 -188l-45 -324 h-420zM377 1184v157l338 189l332 -189v-157l-332 131z" />
<glyph unicode="&#x176;" horiz-adv-x="1167" d="M45 1554h424l82 -356q12 -53 23.5 -108.5t15.5 -108.5q6 53 16 108.5t23 108.5l80 356h413l-346 -1067v-487h-383v487zM254 1649v157l338 189l332 -189v-157l-332 131z" />
<glyph unicode="&#x177;" horiz-adv-x="952" d="M55 1090h344l56 -390q10 -78 17 -156.5t11 -148.5q4 70 12.5 149t18.5 156l57 390h338l-229 -1090l-105 -463h-380l100 385zM147 1184v157l338 189l332 -189v-157l-332 131z" />
<glyph unicode="&#x178;" horiz-adv-x="1167" d="M45 1554h424l82 -356q12 -53 23.5 -108.5t15.5 -108.5q6 53 16 108.5t23 108.5l80 356h413l-346 -1067v-487h-383v487zM178 1669v297h317v-297h-317zM669 1669v297h320v-297h-320z" />
<glyph unicode="&#x179;" horiz-adv-x="991" d="M72 0v340l501 868h-458v346h792v-315l-485 -895h500v-344h-850zM315 1657v145l524 193v-242z" />
<glyph unicode="&#x17a;" horiz-adv-x="854" d="M84 0v283l190 346q45 80 77 125t48 61q-25 -6 -62.5 -9t-98.5 -3h-138v287h658v-254l-199 -385q-31 -59 -58.5 -101.5t-60.5 -79.5q45 10 85 13.5t87 3.5h156v-287h-684zM238 1192v145l524 193v-242z" />
<glyph unicode="&#x17b;" horiz-adv-x="991" d="M72 0v340l501 868h-458v346h792v-315l-485 -895h500v-344h-850zM356 1669v297h319v-297h-319z" />
<glyph unicode="&#x17c;" horiz-adv-x="854" d="M84 0v283l190 346q45 80 77 125t48 61q-25 -6 -62.5 -9t-98.5 -3h-138v287h658v-254l-199 -385q-31 -59 -58.5 -101.5t-60.5 -79.5q45 10 85 13.5t87 3.5h156v-287h-684zM279 1204v297h319v-297h-319z" />
<glyph unicode="&#x17d;" horiz-adv-x="991" d="M72 0v340l501 868h-458v346h792v-315l-485 -895h500v-344h-850zM199 1837v158l313 -152l320 152v-158l-320 -229z" />
<glyph unicode="&#x17e;" horiz-adv-x="854" d="M84 0v283l190 346q45 80 77 125t48 61q-25 -6 -62.5 -9t-98.5 -3h-138v287h658v-254l-199 -385q-31 -59 -58.5 -101.5t-60.5 -79.5q45 10 85 13.5t87 3.5h156v-287h-684zM123 1372v158l313 -152l320 152v-158l-320 -229z" />
<glyph unicode="&#x192;" horiz-adv-x="962" d="M61 -39h64q55 0 77.5 22.5t33.5 88.5l100 809h-90v286h125l12 54q20 102 48 167.5t73 102.5t112.5 50t165.5 13h119v-270h-92q-72 0 -76 -70l-6 -47h133v-286h-168l-106 -850q-12 -106 -41 -173t-76 -105t-116.5 -51t-164.5 -13h-127v272z" />
<glyph unicode="&#x1a0;" horiz-adv-x="1331" d="M109 776q0 233 14 387t65.5 246t149.5 130t266 38q111 0 187.5 -16.5t131 -53.5t88 -95t56.5 -144q12 -47 31.5 -64.5t44.5 -17.5q39 0 39 84v284h250v-284q0 -66 -10.5 -125.5t-35 -104.5t-65.5 -71.5t-102 -26.5q-70 0 -125 43q2 -47 3 -99t1 -110q0 -233 -14.5 -385.5 t-65.5 -244t-148.5 -128t-265.5 -36.5t-266 36.5t-149.5 128t-65.5 244t-14 385.5zM504 584q0 -139 14 -205t86 -66q35 0 55.5 16.5t29.5 49.5t11 84t2 121v438q0 51 -2 92t-11 69.5t-29.5 43t-55.5 14.5q-37 0 -56.5 -14.5t-29.5 -43t-12 -69.5t-2 -92v-438z" />
<glyph unicode="&#x1a1;" horiz-adv-x="1288" d="M113 557q0 119 13 220.5t60 175t139.5 115.5t249.5 42q113 0 191 -22.5t128 -62.5t80 -96.5t48 -123.5q12 -49 32.5 -66.5t45.5 -17.5q39 0 39 84v285h247v-285q0 -66 -9 -125t-33.5 -104.5t-65.5 -72t-102 -26.5q-37 0 -72 12.5t-64 38.5q-2 -121 -17 -221t-63.5 -173 t-139.5 -112.5t-245 -39.5q-158 0 -250 43t-139 118.5t-60 181t-13 232.5zM469 459q0 -98 21.5 -139t84.5 -41t86 40.5t23 139.5v172q0 98 -22.5 140t-86.5 42q-63 0 -84.5 -42t-21.5 -140v-172z" />
<glyph unicode="&#x1af;" horiz-adv-x="1331" d="M119 432v1122h387v-1122q0 -68 20.5 -90.5t67.5 -22.5t67.5 23t20.5 90v1122h391v-327q23 -41 60 -41q39 0 38 84v284h248v-284q0 -66 -9 -125.5t-33.5 -104.5t-65.5 -71.5t-103 -26.5q-82 0 -135 51v-561q0 -137 -23.5 -224t-79 -137.5t-146.5 -69.5t-226 -19t-227 19 t-148.5 69.5t-80 137.5t-23.5 224z" />
<glyph unicode="&#x1b0;" horiz-adv-x="1257" d="M127 283v807h350v-717q0 -57 19.5 -75.5t66.5 -18.5t65.5 18t18.5 76v717h354v-330q23 -39 58 -39q39 0 39 84v285h250v-285q0 -66 -10.5 -125t-35 -104.5t-65.5 -72t-102 -26.5q-37 0 -71 12.5t-63 38.5v-528h-325v100q-47 -66 -105.5 -92t-132.5 -26q-94 0 -154.5 20.5 t-95 59t-48 95t-13.5 126.5z" />
<glyph unicode="&#x218;" horiz-adv-x="1140" d="M102 397q0 20 2 49t5 52h376q-6 -37 -6 -80q0 -41 12.5 -75t65.5 -34q27 0 42 13.5t23.5 34t9.5 46t1 50.5q0 49 -9.5 82.5t-50.5 60.5q-41 29 -88 49.5t-96 42.5q-53 25 -102 62.5t-88 89t-61.5 118t-22.5 152.5q0 137 29.5 228.5t87 143.5t142.5 73.5t197 21.5 q92 0 173 -12.5t141.5 -52t95.5 -116.5t35 -204q0 -43 -1 -64.5t-3 -31.5h-367q0 8 1 18t1 31q0 18 -2 36.5t-8 34t-18.5 24.5t-34.5 9q-45 0 -56.5 -30.5t-11.5 -77.5q0 -51 12.5 -81t34 -47.5t51 -26.5t62.5 -17q25 -6 57.5 -15.5t63.5 -19.5q76 -27 124 -74t74.5 -107.5 t35.5 -133t9 -150.5q0 -145 -26.5 -239.5t-84 -149.5t-145.5 -76.5t-213 -21.5q-98 0 -184 15t-148.5 60t-99.5 126t-37 214zM438 -70h289v-163l-103 -230h-153l41 152h-74v241z" />
<glyph unicode="&#x219;" horiz-adv-x="966" d="M92 756q0 106 27.5 175.5t77 108.5t119 54.5t153.5 15.5q63 0 129 -9t120 -38t89 -85t35 -149q0 -31 -4 -51h-303v25q0 41 -16.5 55t-49.5 14q-25 0 -42 -12t-17 -43q0 -45 33.5 -65.5t85 -36t110.5 -32.5t110.5 -54t85 -104.5t33.5 -180.5q0 -104 -21.5 -174t-65.5 -112 t-113.5 -59t-167.5 -17q-68 0 -138.5 8t-130 38.5t-97.5 90t-38 162.5q0 27 1 39t3 20h312q-2 -4 -2 -11v-18q0 -43 22.5 -61.5t56.5 -18.5q33 0 56.5 12.5t23.5 55.5q0 31 -13 47t-32.5 24.5t-44 12.5t-47.5 10q-55 12 -115.5 30.5t-109.5 57.5t-82 104.5t-33 170.5z M344 -70h289v-163l-103 -230h-153l41 152h-74v241z" />
<glyph unicode="&#x21a;" horiz-adv-x="966" d="M43 1204v350h885v-350h-250v-1204h-389v1204h-246zM338 -70h289v-163l-103 -230h-153l41 152h-74v241z" />
<glyph unicode="&#x21b;" horiz-adv-x="649" d="M37 823v267h74v317h354v-317h117v-267h-117v-450q0 -47 12 -74t51 -27q29 0 41.5 2t18.5 7v-277q-16 -8 -52 -15t-85 -7q-92 0 -156 20.5t-104.5 68.5t-59 123.5t-18.5 186.5v442h-76zM221 -70h289v-163l-103 -230h-153l41 152h-74v241z" />
<glyph unicode="&#x237;" horiz-adv-x="636" d="M10 -164q8 -4 20.5 -6t39.5 -2q39 0 52 26.5t13 73.5v1162h354v-1153q0 -111 -18 -187t-59 -124t-105.5 -68.5t-156.5 -20.5q-49 0 -86 7t-54 16v276z" />
<glyph unicode="&#x2c6;" horiz-adv-x="923" d="M127 1184v157l338 189l332 -189v-157l-332 131z" />
<glyph unicode="&#x2c7;" horiz-adv-x="886" d="M127 1372v158l313 -152l320 152v-158l-320 -229z" />
<glyph unicode="&#x2c9;" horiz-adv-x="862" d="M127 1260v192h608v-192h-608z" />
<glyph unicode="&#x2d8;" horiz-adv-x="1011" d="M127 1530h195q14 -88 60 -137.5t124 -49.5q76 0 123 49.5t61 137.5h193q-16 -180 -113.5 -281.5t-263.5 -101.5t-264.5 101.5t-114.5 281.5z" />
<glyph unicode="&#x2d9;" horiz-adv-x="573" d="M127 1204v297h319v-297h-319z" />
<glyph unicode="&#x2da;" horiz-adv-x="641" d="M127 1333q0 33 6 68t25.5 63.5t58.5 47t105 18.5q63 0 101 -18.5t58.5 -47t25.5 -63.5t5 -68t-5 -67.5t-25.5 -62t-58.5 -45t-101 -17.5q-66 0 -105 17.5t-58.5 45t-25.5 62t-6 67.5zM248 1333q0 -31 11.5 -57.5t62.5 -26.5q49 0 61 27t12 57q0 35 -12 61.5t-61 26.5 q-51 0 -62.5 -26.5t-11.5 -61.5z" />
<glyph unicode="&#x2db;" horiz-adv-x="649" d="M127 -252q0 61 25.5 105.5t65.5 75t91 48t101 23.5h112q-113 -29 -161 -51.5t-48 -67.5q0 -57 64 -57h145v-287h-184q-43 0 -81 9.5t-66.5 33t-46 64.5t-17.5 104z" />
<glyph unicode="&#x2dc;" horiz-adv-x="911" d="M127 1217v221q80 66 170 65q43 0 81 -12t77 -25.5t78.5 -26t82.5 -12.5q59 0 93 20.5t73 63.5v-219q-80 -70 -174 -69q-39 0 -76.5 12t-75.5 26.5t-78 26.5t-85 12q-59 0 -95 -20t-71 -63z" />
<glyph unicode="&#x2dd;" horiz-adv-x="960" d="M109 1204l151 326h184l-159 -326h-176zM475 1204l150 326h188l-166 -326h-172z" />
<glyph unicode="&#x303;" horiz-adv-x="788" d="M127 1348v127q29 25 64.5 37t74.5 12q35 0 65.5 -9.5t61.5 -19.5t61.5 -19.5t67.5 -9.5q53 0 82 15.5t55 48.5v-125q-63 -53 -143 -53q-33 0 -63.5 9t-60.5 20.5t-61.5 20.5t-66.5 9q-53 0 -81.5 -15.5t-55.5 -47.5zM131 1118v107l262 133l264 -133v-107l-264 105z" />
<glyph unicode="&#x309;" horiz-adv-x="616" d="M127 1362v18q0 31 3 58.5t20.5 47t54.5 32t102 12.5q68 0 103.5 -11.5t53 -30t20.5 -40t3 -39.5q0 -35 -4 -65.5t-28 -57.5q-18 -18 -38 -32.5t-38 -30.5q-16 -16 -19.5 -29.5t-3.5 -32.5v-2h-118v6q0 29 2 50.5t16 41.5q10 16 30.5 31t39.5 31q25 18 24 55q0 27 -6 49.5 t-43 22.5q-35 0 -40 -22.5t-5 -43.5v-18h-129z" />
<glyph unicode="&#x323;" horiz-adv-x="483" d="M127 -221h227v-242h-227v242z" />
<glyph unicode="&#x37e;" horiz-adv-x="591" d="M127 0v328h336v-252l-115 -279h-188l41 203h-74zM127 762v328h336v-328h-336z" />
<glyph unicode="&#x394;" d="M55 0l324 1554h414l313 -1554h-1051zM498 350h166l-31 201q-10 59 -16.5 111.5t-12.5 101.5t-11 99t-11 106q-8 -111 -21.5 -206t-32.5 -214z" />
<glyph unicode="&#x3a9;" horiz-adv-x="1269" d="M119 948q0 147 8 263t56 198t152.5 125t299.5 43q193 0 298 -43t153.5 -125t56.5 -197.5t8 -263.5q0 -90 -13.5 -181t-38 -171t-58 -144.5t-74.5 -101.5h163v-350h-428v281q72 98 96.5 241.5t24.5 349.5q0 90 -3 154t-20.5 103.5t-56 58t-108.5 18.5q-72 0 -110 -18.5 t-55 -58t-20.5 -103t-3.5 -154.5q0 -207 25 -350t96 -241v-281h-428v350h164q-41 37 -74.5 101.5t-58.5 144.5t-38 171t-13 181z" />
<glyph unicode="&#x3bc;" horiz-adv-x="1134" d="M131 -463v1553h350v-717q0 -57 19.5 -75.5t66.5 -18.5t65.5 18t18.5 76v717h355v-1090h-326v100q-41 -57 -89 -83.5t-108 -32.5v-447h-352z" />
<glyph unicode="&#x3c0;" horiz-adv-x="1193" d="M139 0v1090h842v-736q0 -37 14.5 -58.5t59.5 -21.5t90 21v-279q-49 -23 -101.5 -28.5t-97.5 -5.5q-98 0 -160.5 19t-98.5 63.5t-49 115t-13 172.5v451h-131v-803h-355z" />
<glyph unicode="&#x1e80;" horiz-adv-x="1716" d="M43 1554h385l64 -503q12 -94 20 -189.5t14 -191.5q4 96 14.5 191t22.5 190l66 503h469l67 -503q12 -92 21.5 -188.5t15.5 -192.5q6 96 15.5 191t19.5 190l61 503h377l-233 -1554h-443l-75 463q-20 121 -37 244.5t-29 246.5q-12 -123 -29.5 -246.5t-40.5 -244.5l-79 -463 h-435zM535 1753v242l524 -193v-145z" />
<glyph unicode="&#x1e81;" horiz-adv-x="1423" d="M45 1090h320l36 -295q14 -106 22.5 -211t12.5 -211q6 106 14.5 210.5t22.5 211.5l39 295h403l37 -295q12 -106 20.5 -211t14.5 -211q4 106 14.5 210.5t22.5 211.5l35 295h315l-164 -1090h-419l-41 324q-14 94 -23.5 188t-15.5 188q-8 -94 -18.5 -188t-22.5 -188l-45 -324 h-420zM387 1288v242l524 -193v-145z" />
<glyph unicode="&#x1e82;" horiz-adv-x="1716" d="M43 1554h385l64 -503q12 -94 20 -189.5t14 -191.5q4 96 14.5 191t22.5 190l66 503h469l67 -503q12 -92 21.5 -188.5t15.5 -192.5q6 96 15.5 191t19.5 190l61 503h377l-233 -1554h-443l-75 463q-20 121 -37 244.5t-29 246.5q-12 -123 -29.5 -246.5t-40.5 -244.5l-79 -463 h-435zM657 1657v145l524 193v-242z" />
<glyph unicode="&#x1e83;" horiz-adv-x="1423" d="M45 1090h320l36 -295q14 -106 22.5 -211t12.5 -211q6 106 14.5 210.5t22.5 211.5l39 295h403l37 -295q12 -106 20.5 -211t14.5 -211q4 106 14.5 210.5t22.5 211.5l35 295h315l-164 -1090h-419l-41 324q-14 94 -23.5 188t-15.5 188q-8 -94 -18.5 -188t-22.5 -188l-45 -324 h-420zM510 1192v145l524 193v-242z" />
<glyph unicode="&#x1e84;" horiz-adv-x="1716" d="M43 1554h385l64 -503q12 -94 20 -189.5t14 -191.5q4 96 14.5 191t22.5 190l66 503h469l67 -503q12 -92 21.5 -188.5t15.5 -192.5q6 96 15.5 191t19.5 190l61 503h377l-233 -1554h-443l-75 463q-20 121 -37 244.5t-29 246.5q-12 -123 -29.5 -246.5t-40.5 -244.5l-79 -463 h-435zM453 1669v297h317v-297h-317zM944 1669v297h320v-297h-320z" />
<glyph unicode="&#x1e85;" horiz-adv-x="1423" d="M45 1090h320l36 -295q14 -106 22.5 -211t12.5 -211q6 106 14.5 210.5t22.5 211.5l39 295h403l37 -295q12 -106 20.5 -211t14.5 -211q4 106 14.5 210.5t22.5 211.5l35 295h315l-164 -1090h-419l-41 324q-14 94 -23.5 188t-15.5 188q-8 -94 -18.5 -188t-22.5 -188l-45 -324 h-420zM305 1204v297h317v-297h-317zM796 1204v297h320v-297h-320z" />
<glyph unicode="&#x1ea0;" d="M55 0l326 1554h412l313 -1554h-373l-47 305h-211l-47 -305h-373zM467 -221h227v-242h-227v242zM520 621h121q-12 76 -21.5 141t-15.5 124.5t-11 118t-9 123.5q-4 -66 -10.5 -124t-14.5 -117.5t-17.5 -125t-21.5 -140.5z" />
<glyph unicode="&#x1ea1;" horiz-adv-x="1081" d="M104 356q0 90 18.5 153.5t58.5 103.5t105.5 58.5t157.5 18.5q68 0 104 -6t60 -16v94q0 59 -18.5 77.5t-50.5 18.5q-33 0 -49.5 -15.5t-16.5 -58.5h-330q4 115 31 180.5t80 97.5t134 40t194 8q72 0 140.5 -11.5t121.5 -50t86 -112.5t33 -199v-514q0 -53 1 -87t2 -58.5 t4 -42t7 -35.5h-297l-10 109q-20 -57 -81 -92t-192 -35q-80 0 -135 16t-91 58t-51.5 115t-15.5 185zM426 -221h227v-242h-227v242zM461 332q0 -51 18.5 -65.5t42.5 -14.5q63 0 86 37v160q-6 4 -21.5 9t-31.5 5q-55 0 -74.5 -16.5t-19.5 -81.5v-33z" />
<glyph unicode="&#x1ea2;" d="M55 0l326 1554h412l313 -1554h-373l-47 305h-211l-47 -305h-373zM412 1827v18q0 31 3 58.5t20.5 47t54.5 32t102 12.5q68 0 103.5 -11.5t53 -30t20.5 -40t3 -39.5q0 -35 -4 -65.5t-28 -57.5q-18 -18 -38 -32.5t-38 -30.5q-16 -16 -19.5 -29.5t-3.5 -32.5v-2h-118v6 q0 29 2 50.5t16 41.5q10 16 30.5 31t39.5 31q25 18 24 55q0 27 -6 49.5t-43 22.5q-35 0 -40 -22.5t-5 -43.5v-18h-129zM520 621h121q-12 76 -21.5 141t-15.5 124.5t-11 118t-9 123.5q-4 -66 -10.5 -124t-14.5 -117.5t-17.5 -125t-21.5 -140.5z" />
<glyph unicode="&#x1ea3;" horiz-adv-x="1081" d="M104 356q0 90 18.5 153.5t58.5 103.5t105.5 58.5t157.5 18.5q68 0 104 -6t60 -16v94q0 59 -18.5 77.5t-50.5 18.5q-33 0 -49.5 -15.5t-16.5 -58.5h-330q4 115 31 180.5t80 97.5t134 40t194 8q72 0 140.5 -11.5t121.5 -50t86 -112.5t33 -199v-514q0 -53 1 -87t2 -58.5 t4 -42t7 -35.5h-297l-10 109q-20 -57 -81 -92t-192 -35q-80 0 -135 16t-91 58t-51.5 115t-15.5 185zM379 1362v18q0 31 3 58.5t20.5 47t54.5 32t102 12.5q68 0 103.5 -11.5t53 -30t20.5 -40t3 -39.5q0 -35 -4 -65.5t-28 -57.5q-18 -18 -38 -32.5t-38 -30.5 q-16 -16 -19.5 -29.5t-3.5 -32.5v-2h-118v6q0 29 2 50.5t16 41.5q10 16 30.5 31t39.5 31q25 18 24 55q0 27 -6 49.5t-43 22.5q-35 0 -40 -22.5t-5 -43.5v-18h-129zM461 332q0 -51 18.5 -65.5t42.5 -14.5q63 0 86 37v160q-6 4 -21.5 9t-31.5 5q-55 0 -74.5 -16.5t-19.5 -81.5 v-33z" />
<glyph unicode="&#x1ea4;" d="M55 0l326 1554h412l313 -1554h-373l-47 305h-211l-47 -305h-373zM326 1583v107l262 133l131 -66v74l314 164v-162l-293 -88l112 -55v-107l-264 105zM520 621h121q-12 76 -21.5 141t-15.5 124.5t-11 118t-9 123.5q-4 -66 -10.5 -124t-14.5 -117.5t-17.5 -125t-21.5 -140.5 z" />
<glyph unicode="&#x1ea5;" horiz-adv-x="1081" d="M104 356q0 90 18.5 153.5t58.5 103.5t105.5 58.5t157.5 18.5q68 0 104 -6t60 -16v94q0 59 -18.5 77.5t-50.5 18.5q-33 0 -49.5 -15.5t-16.5 -58.5h-330q4 115 31 180.5t80 97.5t134 40t194 8q72 0 140.5 -11.5t121.5 -50t86 -112.5t33 -199v-514q0 -53 1 -87t2 -58.5 t4 -42t7 -35.5h-297l-10 109q-20 -57 -81 -92t-192 -35q-80 0 -135 16t-91 58t-51.5 115t-15.5 185zM291 1118v107l262 133l131 -66v74l314 164v-162l-293 -88l112 -55v-107l-264 105zM461 332q0 -51 18.5 -65.5t42.5 -14.5q63 0 86 37v160q-6 4 -21.5 9t-31.5 5 q-55 0 -74.5 -16.5t-19.5 -81.5v-33z" />
<glyph unicode="&#x1ea6;" d="M55 0l326 1554h412l313 -1554h-373l-47 305h-211l-47 -305h-373zM137 1833v162l313 -164v-74l131 66l263 -133v-107l-263 105l-266 -105v107l113 55zM520 621h121q-12 76 -21.5 141t-15.5 124.5t-11 118t-9 123.5q-4 -66 -10.5 -124t-14.5 -117.5t-17.5 -125 t-21.5 -140.5z" />
<glyph unicode="&#x1ea7;" horiz-adv-x="1081" d="M96 1368v162l313 -164v-74l131 66l263 -133v-107l-263 105l-266 -105v107l113 55zM104 356q0 90 18.5 153.5t58.5 103.5t105.5 58.5t157.5 18.5q68 0 104 -6t60 -16v94q0 59 -18.5 77.5t-50.5 18.5q-33 0 -49.5 -15.5t-16.5 -58.5h-330q4 115 31 180.5t80 97.5t134 40 t194 8q72 0 140.5 -11.5t121.5 -50t86 -112.5t33 -199v-514q0 -53 1 -87t2 -58.5t4 -42t7 -35.5h-297l-10 109q-20 -57 -81 -92t-192 -35q-80 0 -135 16t-91 58t-51.5 115t-15.5 185zM461 332q0 -51 18.5 -65.5t42.5 -14.5q63 0 86 37v160q-6 4 -21.5 9t-31.5 5 q-55 0 -74.5 -16.5t-19.5 -81.5v-33z" />
<glyph unicode="&#x1ea8;" d="M55 0l326 1554h412l313 -1554h-373l-47 305h-211l-47 -305h-373zM324 1583v107l262 133l264 -133v-107l-264 105zM520 621h121q-12 76 -21.5 141t-15.5 124.5t-11 118t-9 123.5q-4 -66 -10.5 -124t-14.5 -117.5t-17.5 -125t-21.5 -140.5zM787 1827v18q0 31 3 58.5 t20.5 47t52 32t96.5 12.5q63 0 98 -11.5t51.5 -30t20.5 -40t4 -39.5q0 -35 -4 -65.5t-29 -57.5q-16 -18 -34.5 -32.5t-34.5 -30.5q-18 -16 -22.5 -29.5t-4.5 -32.5v-2h-115v6q0 29 2 50.5t19 41.5q10 16 30.5 31t36.5 31q14 10 17.5 24.5t3.5 30.5q0 27 -5 49.5t-38 22.5 q-35 0 -40 -22.5t-5 -43.5v-18h-123z" />
<glyph unicode="&#x1ea9;" horiz-adv-x="1081" d="M104 356q0 90 18.5 153.5t58.5 103.5t105.5 58.5t157.5 18.5q68 0 104 -6t60 -16v94q0 59 -18.5 77.5t-50.5 18.5q-33 0 -49.5 -15.5t-16.5 -58.5h-330q4 115 31 180.5t80 97.5t134 40t194 8q72 0 140.5 -11.5t121.5 -50t86 -112.5t33 -199v-514q0 -53 1 -87t2 -58.5 t4 -42t7 -35.5h-297l-10 109q-20 -57 -81 -92t-192 -35q-80 0 -135 16t-91 58t-51.5 115t-15.5 185zM279 1118v107l262 133l264 -133v-107l-264 105zM461 332q0 -51 18.5 -65.5t42.5 -14.5q63 0 86 37v160q-6 4 -21.5 9t-31.5 5q-55 0 -74.5 -16.5t-19.5 -81.5v-33z M742 1362v18q0 31 3 58.5t20.5 47t52 32t96.5 12.5q63 0 98 -11.5t51.5 -30t20.5 -40t4 -39.5q0 -35 -4 -65.5t-29 -57.5q-16 -18 -34.5 -32.5t-34.5 -30.5q-18 -16 -22.5 -29.5t-4.5 -32.5v-2h-115v6q0 29 2 50.5t19 41.5q10 16 30.5 31t36.5 31q14 10 17.5 24.5t3.5 30.5 q0 27 -5 49.5t-38 22.5q-35 0 -40 -22.5t-5 -43.5v-18h-123z" />
<glyph unicode="&#x1eaa;" d="M55 0l326 1554h412l313 -1554h-373l-47 305h-211l-47 -305h-373zM313 1813v127q29 25 64.5 37t74.5 12q35 0 65.5 -9.5t61.5 -19.5t61.5 -19.5t67.5 -9.5q53 0 82 15.5t55 48.5v-125q-63 -53 -143 -53q-33 0 -63.5 9t-60.5 20.5t-61.5 20.5t-66.5 9q-53 0 -81.5 -15.5 t-55.5 -47.5zM317 1583v107l262 133l264 -133v-107l-264 105zM520 621h121q-12 76 -21.5 141t-15.5 124.5t-11 118t-9 123.5q-4 -66 -10.5 -124t-14.5 -117.5t-17.5 -125t-21.5 -140.5z" />
<glyph unicode="&#x1eab;" horiz-adv-x="1081" d="M104 356q0 90 18.5 153.5t58.5 103.5t105.5 58.5t157.5 18.5q68 0 104 -6t60 -16v94q0 59 -18.5 77.5t-50.5 18.5q-33 0 -49.5 -15.5t-16.5 -58.5h-330q4 115 31 180.5t80 97.5t134 40t194 8q72 0 140.5 -11.5t121.5 -50t86 -112.5t33 -199v-514q0 -53 1 -87t2 -58.5 t4 -42t7 -35.5h-297l-10 109q-20 -57 -81 -92t-192 -35q-80 0 -135 16t-91 58t-51.5 115t-15.5 185zM295 1348v127q29 25 64.5 37t74.5 12q35 0 65.5 -9.5t61.5 -19.5t61.5 -19.5t67.5 -9.5q53 0 82 15.5t55 48.5v-125q-63 -53 -143 -53q-33 0 -63.5 9t-60.5 20.5 t-61.5 20.5t-66.5 9q-53 0 -81.5 -15.5t-55.5 -47.5zM299 1118v107l262 133l264 -133v-107l-264 105zM461 332q0 -51 18.5 -65.5t42.5 -14.5q63 0 86 37v160q-6 4 -21.5 9t-31.5 5q-55 0 -74.5 -16.5t-19.5 -81.5v-33z" />
<glyph unicode="&#x1eac;" d="M55 0l326 1554h412l313 -1554h-373l-47 305h-211l-47 -305h-373zM246 1649v157l338 189l332 -189v-157l-332 131zM467 -221h227v-242h-227v242zM520 621h121q-12 76 -21.5 141t-15.5 124.5t-11 118t-9 123.5q-4 -66 -10.5 -124t-14.5 -117.5t-17.5 -125t-21.5 -140.5z " />
<glyph unicode="&#x1ead;" horiz-adv-x="1081" d="M104 356q0 90 18.5 153.5t58.5 103.5t105.5 58.5t157.5 18.5q68 0 104 -6t60 -16v94q0 59 -18.5 77.5t-50.5 18.5q-33 0 -49.5 -15.5t-16.5 -58.5h-330q4 115 31 180.5t80 97.5t134 40t194 8q72 0 140.5 -11.5t121.5 -50t86 -112.5t33 -199v-514q0 -53 1 -87t2 -58.5 t4 -42t7 -35.5h-297l-10 109q-20 -57 -81 -92t-192 -35q-80 0 -135 16t-91 58t-51.5 115t-15.5 185zM225 1184v157l338 189l332 -189v-157l-332 131zM446 -221h227v-242h-227v242zM461 332q0 -51 18.5 -65.5t42.5 -14.5q63 0 86 37v160q-6 4 -21.5 9t-31.5 5 q-55 0 -74.5 -16.5t-19.5 -81.5v-33z" />
<glyph unicode="&#x1eae;" d="M55 0l326 1554h412l313 -1554h-373l-47 305h-211l-47 -305h-373zM301 1831h154q10 -59 41.5 -85t80.5 -26t81 24t42 77l-186 -60v93l315 141v-131l-100 -33h129q-10 -111 -81 -174.5t-200 -63.5q-119 0 -190.5 63.5t-85.5 174.5zM520 621h121q-12 76 -21.5 141 t-15.5 124.5t-11 118t-9 123.5q-4 -66 -10.5 -124t-14.5 -117.5t-17.5 -125t-21.5 -140.5z" />
<glyph unicode="&#x1eaf;" horiz-adv-x="1081" d="M104 356q0 90 18.5 153.5t58.5 103.5t105.5 58.5t157.5 18.5q68 0 104 -6t60 -16v94q0 59 -18.5 77.5t-50.5 18.5q-33 0 -49.5 -15.5t-16.5 -58.5h-330q4 115 31 180.5t80 97.5t134 40t194 8q72 0 140.5 -11.5t121.5 -50t86 -112.5t33 -199v-514q0 -53 1 -87t2 -58.5 t4 -42t7 -35.5h-297l-10 109q-20 -57 -81 -92t-192 -35q-80 0 -135 16t-91 58t-51.5 115t-15.5 185zM274 1366h154q10 -59 41.5 -85t80.5 -26t81 24t42 77l-186 -60v93l315 141v-131l-100 -33h129q-10 -111 -81 -174.5t-200 -63.5q-119 0 -190.5 63.5t-85.5 174.5zM461 332 q0 -51 18.5 -65.5t42.5 -14.5q63 0 86 37v160q-6 4 -21.5 9t-31.5 5q-55 0 -74.5 -16.5t-19.5 -81.5v-33z" />
<glyph unicode="&#x1eb0;" d="M55 0l326 1554h412l313 -1554h-373l-47 305h-211l-47 -305h-373zM301 1831h129l-102 33v131l315 -141v-93l-186 60q12 -53 42.5 -77t82.5 -24q49 0 80.5 26t41.5 85h154q-14 -111 -86 -174.5t-190 -63.5q-129 0 -200 63.5t-81 174.5zM520 621h121q-12 76 -21.5 141 t-15.5 124.5t-11 118t-9 123.5q-4 -66 -10.5 -124t-14.5 -117.5t-17.5 -125t-21.5 -140.5z" />
<glyph unicode="&#x1eb1;" horiz-adv-x="1081" d="M104 356q0 90 18.5 153.5t58.5 103.5t105.5 58.5t157.5 18.5q68 0 104 -6t60 -16v94q0 59 -18.5 77.5t-50.5 18.5q-33 0 -49.5 -15.5t-16.5 -58.5h-330q4 115 31 180.5t80 97.5t134 40t194 8q72 0 140.5 -11.5t121.5 -50t86 -112.5t33 -199v-514q0 -53 1 -87t2 -58.5 t4 -42t7 -35.5h-297l-10 109q-20 -57 -81 -92t-192 -35q-80 0 -135 16t-91 58t-51.5 115t-15.5 185zM277 1366h129l-102 33v131l315 -141v-93l-186 60q12 -53 42.5 -77t82.5 -24q49 0 80.5 26t41.5 85h154q-14 -111 -86 -174.5t-190 -63.5q-129 0 -200 63.5t-81 174.5z M461 332q0 -51 18.5 -65.5t42.5 -14.5q63 0 86 37v160q-6 4 -21.5 9t-31.5 5q-55 0 -74.5 -16.5t-19.5 -81.5v-33z" />
<glyph unicode="&#x1eb2;" d="M55 0l326 1554h412l313 -1554h-373l-47 305h-211l-47 -305h-373zM301 1831h154q10 -59 41.5 -85t80.5 -26q53 0 84 26t41 85h156q-10 -111 -81 -174.5t-200 -63.5q-119 0 -190.5 63.5t-85.5 174.5zM453 1884v13q0 20 3 37.5t15 30.5t37.5 21.5t73.5 8.5q45 0 70.5 -7 t37.5 -19.5t14 -27t2 -26.5q0 -23 -3 -43.5t-23 -36.5q-12 -12 -25.5 -21.5t-27.5 -21.5q-10 -10 -11.5 -18.5t-1.5 -20.5v-2h-84v4q0 18 2 32.5t13 29.5q6 10 19 19t28 20q14 12 14 36q0 16 -4 32t-29 16q-23 0 -25.5 -14.5t-2.5 -28.5v-13h-92zM520 621h121 q-12 76 -21.5 141t-15.5 124.5t-11 118t-9 123.5q-4 -66 -10.5 -124t-14.5 -117.5t-17.5 -125t-21.5 -140.5z" />
<glyph unicode="&#x1eb3;" horiz-adv-x="1081" d="M104 356q0 90 18.5 153.5t58.5 103.5t105.5 58.5t157.5 18.5q68 0 104 -6t60 -16v94q0 59 -18.5 77.5t-50.5 18.5q-33 0 -49.5 -15.5t-16.5 -58.5h-330q4 115 31 180.5t80 97.5t134 40t194 8q72 0 140.5 -11.5t121.5 -50t86 -112.5t33 -199v-514q0 -53 1 -87t2 -58.5 t4 -42t7 -35.5h-297l-10 109q-20 -57 -81 -92t-192 -35q-80 0 -135 16t-91 58t-51.5 115t-15.5 185zM279 1366h154q10 -59 41.5 -85t80.5 -26q53 0 84 26t41 85h156q-10 -111 -81 -174.5t-200 -63.5q-119 0 -190.5 63.5t-85.5 174.5zM431 1419v13q0 20 3 37.5t15 30.5 t37.5 21.5t73.5 8.5q45 0 70.5 -7t37.5 -19.5t14 -27t2 -26.5q0 -23 -3 -43.5t-23 -36.5q-12 -12 -25.5 -21.5t-27.5 -21.5q-10 -10 -11.5 -18.5t-1.5 -20.5v-2h-84v4q0 18 2 32.5t13 29.5q6 10 19 19t28 20q14 12 14 36q0 16 -4 32t-29 16q-23 0 -25.5 -14.5t-2.5 -28.5 v-13h-92zM461 332q0 -51 18.5 -65.5t42.5 -14.5q63 0 86 37v160q-6 4 -21.5 9t-31.5 5q-55 0 -74.5 -16.5t-19.5 -81.5v-33z" />
<glyph unicode="&#x1eb4;" d="M55 0l326 1554h412l313 -1554h-373l-47 305h-211l-47 -305h-373zM301 1831h16v109q29 25 65 37t75 12q35 0 65.5 -9.5t61 -19.5t62.5 -19.5t69 -9.5q51 0 79.5 15.5t55.5 48.5v-125q-35 -27 -64 -39h72q-10 -111 -81 -174.5t-200 -63.5q-119 0 -190.5 63.5t-85.5 174.5z M332 1831h123q10 -59 41.5 -85t80.5 -26q100 0 121 97q-31 0 -60.5 10t-58 20.5t-59.5 19.5t-65 9q-45 0 -72 -11t-51 -34zM520 621h121q-12 76 -21.5 141t-15.5 124.5t-11 118t-9 123.5q-4 -66 -10.5 -124t-14.5 -117.5t-17.5 -125t-21.5 -140.5z" />
<glyph unicode="&#x1eb5;" horiz-adv-x="1081" d="M104 356q0 90 18.5 153.5t58.5 103.5t105.5 58.5t157.5 18.5q68 0 104 -6t60 -16v94q0 59 -18.5 77.5t-50.5 18.5q-33 0 -49.5 -15.5t-16.5 -58.5h-330q4 115 31 180.5t80 97.5t134 40t194 8q72 0 140.5 -11.5t121.5 -50t86 -112.5t33 -199v-514q0 -53 1 -87t2 -58.5 t4 -42t7 -35.5h-297l-10 109q-20 -57 -81 -92t-192 -35q-80 0 -135 16t-91 58t-51.5 115t-15.5 185zM279 1366h16v109q29 25 65 37t75 12q35 0 65.5 -9.5t61 -19.5t62.5 -19.5t69 -9.5q51 0 79.5 15.5t55.5 48.5v-125q-35 -27 -64 -39h72q-10 -111 -81 -174.5t-200 -63.5 q-119 0 -190.5 63.5t-85.5 174.5zM310 1366h123q10 -59 41.5 -85t80.5 -26q100 0 121 97q-31 0 -60.5 10t-58 20.5t-59.5 19.5t-65 9q-45 0 -72 -11t-51 -34zM461 332q0 -51 18.5 -65.5t42.5 -14.5q63 0 86 37v160q-6 4 -21.5 9t-31.5 5q-55 0 -74.5 -16.5t-19.5 -81.5v-33z " />
<glyph unicode="&#x1eb6;" d="M55 0l326 1554h412l313 -1554h-373l-47 305h-211l-47 -305h-373zM203 1995h195q14 -88 60 -137.5t124 -49.5q76 0 123 49.5t61 137.5h193q-16 -180 -113.5 -281.5t-263.5 -101.5t-264.5 101.5t-114.5 281.5zM467 -221h227v-242h-227v242zM520 621h121q-12 76 -21.5 141 t-15.5 124.5t-11 118t-9 123.5q-4 -66 -10.5 -124t-14.5 -117.5t-17.5 -125t-21.5 -140.5z" />
<glyph unicode="&#x1eb7;" horiz-adv-x="1081" d="M104 356q0 90 18.5 153.5t58.5 103.5t105.5 58.5t157.5 18.5q68 0 104 -6t60 -16v94q0 59 -18.5 77.5t-50.5 18.5q-33 0 -49.5 -15.5t-16.5 -58.5h-330q4 115 31 180.5t80 97.5t134 40t194 8q72 0 140.5 -11.5t121.5 -50t86 -112.5t33 -199v-514q0 -53 1 -87t2 -58.5 t4 -42t7 -35.5h-297l-10 109q-20 -57 -81 -92t-192 -35q-80 0 -135 16t-91 58t-51.5 115t-15.5 185zM178 1530h195q14 -88 60 -137.5t124 -49.5q76 0 123 49.5t61 137.5h193q-16 -180 -113.5 -281.5t-263.5 -101.5t-264.5 101.5t-114.5 281.5zM444 -221h227v-242h-227v242z M461 332q0 -51 18.5 -65.5t42.5 -14.5q63 0 86 37v160q-6 4 -21.5 9t-31.5 5q-55 0 -74.5 -16.5t-19.5 -81.5v-33z" />
<glyph unicode="&#x1eb8;" horiz-adv-x="1034" d="M127 0v1554h795v-360h-426v-215h405v-326h-405v-297h432v-356h-801zM420 -221h227v-242h-227v242z" />
<glyph unicode="&#x1eb9;" horiz-adv-x="1128" d="M113 557q0 123 13 224.5t61.5 175t139.5 113.5t246 40q150 0 239 -41t135 -109.5t59.5 -158.5t13.5 -191q0 -76 -6 -143h-543q0 -104 23.5 -146t78.5 -42q47 0 68 18t25 55h338q-10 -90 -34 -159.5t-73 -116.5t-127 -70.5t-197 -23.5q-152 0 -242.5 44t-139 120.5 t-63.5 182t-15 228.5zM451 -221h227v-242h-227v242zM471 670h211q-4 78 -28.5 110.5t-78.5 32.5q-51 0 -75.5 -32.5t-28.5 -110.5z" />
<glyph unicode="&#x1eba;" horiz-adv-x="1034" d="M127 0v1554h795v-360h-426v-215h405v-326h-405v-297h432v-356h-801zM358 1827v18q0 31 3 58.5t20.5 47t54.5 32t102 12.5q68 0 103.5 -11.5t53 -30t20.5 -40t3 -39.5q0 -35 -4 -65.5t-28 -57.5q-18 -18 -38 -32.5t-38 -30.5q-16 -16 -19.5 -29.5t-3.5 -32.5v-2h-118v6 q0 29 2 50.5t16 41.5q10 16 30.5 31t39.5 31q25 18 24 55q0 27 -6 49.5t-43 22.5q-35 0 -40 -22.5t-5 -43.5v-18h-129z" />
<glyph unicode="&#x1ebb;" horiz-adv-x="1128" d="M113 557q0 123 13 224.5t61.5 175t139.5 113.5t246 40q150 0 239 -41t135 -109.5t59.5 -158.5t13.5 -191q0 -76 -6 -143h-543q0 -104 23.5 -146t78.5 -42q47 0 68 18t25 55h338q-10 -90 -34 -159.5t-73 -116.5t-127 -70.5t-197 -23.5q-152 0 -242.5 44t-139 120.5 t-63.5 182t-15 228.5zM397 1362v18q0 31 3 58.5t20.5 47t54.5 32t102 12.5q68 0 103.5 -11.5t53 -30t20.5 -40t3 -39.5q0 -35 -4 -65.5t-28 -57.5q-18 -18 -38 -32.5t-38 -30.5q-16 -16 -19.5 -29.5t-3.5 -32.5v-2h-118v6q0 29 2 50.5t16 41.5q10 16 30.5 31t39.5 31 q25 18 24 55q0 27 -6 49.5t-43 22.5q-35 0 -40 -22.5t-5 -43.5v-18h-129zM471 670h211q-4 78 -28.5 110.5t-78.5 32.5q-51 0 -75.5 -32.5t-28.5 -110.5z" />
<glyph unicode="&#x1ebc;" horiz-adv-x="1034" d="M127 0v1554h795v-360h-426v-215h405v-326h-405v-297h432v-356h-801zM188 1682v221q80 66 170 65q43 0 81 -12t77 -25.5t78.5 -26t82.5 -12.5q59 0 93 20.5t73 63.5v-219q-80 -70 -174 -69q-39 0 -76.5 12t-75.5 26.5t-78 26.5t-85 12q-59 0 -95 -20t-71 -63z" />
<glyph unicode="&#x1ebd;" horiz-adv-x="1128" d="M113 557q0 123 13 224.5t61.5 175t139.5 113.5t246 40q150 0 239 -41t135 -109.5t59.5 -158.5t13.5 -191q0 -76 -6 -143h-543q0 -104 23.5 -146t78.5 -42q47 0 68 18t25 55h338q-10 -90 -34 -159.5t-73 -116.5t-127 -70.5t-197 -23.5q-152 0 -242.5 44t-139 120.5 t-63.5 182t-15 228.5zM236 1217v221q80 66 170 65q43 0 81 -12t77 -25.5t78.5 -26t82.5 -12.5q59 0 93 20.5t73 63.5v-219q-80 -70 -174 -69q-39 0 -76.5 12t-75.5 26.5t-78 26.5t-85 12q-59 0 -95 -20t-71 -63zM471 670h211q-4 78 -28.5 110.5t-78.5 32.5 q-51 0 -75.5 -32.5t-28.5 -110.5z" />
<glyph unicode="&#x1ebe;" horiz-adv-x="1034" d="M127 0v1554h795v-360h-426v-215h405v-326h-405v-297h432v-356h-801zM264 1583v107l262 133l131 -66v74l314 164v-162l-293 -88l112 -55v-107l-264 105z" />
<glyph unicode="&#x1ebf;" horiz-adv-x="1128" d="M113 557q0 123 13 224.5t61.5 175t139.5 113.5t246 40q150 0 239 -41t135 -109.5t59.5 -158.5t13.5 -191q0 -76 -6 -143h-543q0 -104 23.5 -146t78.5 -42q47 0 68 18t25 55h338q-10 -90 -34 -159.5t-73 -116.5t-127 -70.5t-197 -23.5q-152 0 -242.5 44t-139 120.5 t-63.5 182t-15 228.5zM303 1118v107l262 133l131 -66v74l314 164v-162l-293 -88l112 -55v-107l-264 105zM471 670h211q-4 78 -28.5 110.5t-78.5 32.5q-51 0 -75.5 -32.5t-28.5 -110.5z" />
<glyph unicode="&#x1ec0;" horiz-adv-x="1034" d="M92 1833v162l313 -164v-74l131 66l263 -133v-107l-263 105l-266 -105v107l113 55zM127 0v1554h795v-360h-426v-215h405v-326h-405v-297h432v-356h-801z" />
<glyph unicode="&#x1ec1;" horiz-adv-x="1128" d="M113 557q0 123 13 224.5t61.5 175t139.5 113.5t246 40q150 0 239 -41t135 -109.5t59.5 -158.5t13.5 -191q0 -76 -6 -143h-543q0 -104 23.5 -146t78.5 -42q47 0 68 18t25 55h338q-10 -90 -34 -159.5t-73 -116.5t-127 -70.5t-197 -23.5q-152 0 -242.5 44t-139 120.5 t-63.5 182t-15 228.5zM127 1368v162l313 -164v-74l131 66l263 -133v-107l-263 105l-266 -105v107l113 55zM471 670h211q-4 78 -28.5 110.5t-78.5 32.5q-51 0 -75.5 -32.5t-28.5 -110.5z" />
<glyph unicode="&#x1ec2;" horiz-adv-x="1034" d="M127 0v1554h795v-360h-426v-215h405v-326h-405v-297h432v-356h-801zM262 1583v107l262 133l264 -133v-107l-264 105zM725 1827v18q0 31 3 58.5t20.5 47t52 32t96.5 12.5q63 0 98 -11.5t51.5 -30t20.5 -40t4 -39.5q0 -35 -4 -65.5t-29 -57.5q-16 -18 -34.5 -32.5 t-34.5 -30.5q-18 -16 -22.5 -29.5t-4.5 -32.5v-2h-115v6q0 29 2 50.5t19 41.5q10 16 30.5 31t36.5 31q14 10 17.5 24.5t3.5 30.5q0 27 -5 49.5t-38 22.5q-35 0 -40 -22.5t-5 -43.5v-18h-123z" />
<glyph unicode="&#x1ec3;" horiz-adv-x="1128" d="M113 557q0 123 13 224.5t61.5 175t139.5 113.5t246 40q150 0 239 -41t135 -109.5t59.5 -158.5t13.5 -191q0 -76 -6 -143h-543q0 -104 23.5 -146t78.5 -42q47 0 68 18t25 55h338q-10 -90 -34 -159.5t-73 -116.5t-127 -70.5t-197 -23.5q-152 0 -242.5 44t-139 120.5 t-63.5 182t-15 228.5zM305 1118v107l262 133l264 -133v-107l-264 105zM471 670h211q-4 78 -28.5 110.5t-78.5 32.5q-51 0 -75.5 -32.5t-28.5 -110.5zM768 1362v18q0 31 3 58.5t20.5 47t52 32t96.5 12.5q63 0 98 -11.5t51.5 -30t20.5 -40t4 -39.5q0 -35 -4 -65.5t-29 -57.5 q-16 -18 -34.5 -32.5t-34.5 -30.5q-18 -16 -22.5 -29.5t-4.5 -32.5v-2h-115v6q0 29 2 50.5t19 41.5q10 16 30.5 31t36.5 31q14 10 17.5 24.5t3.5 30.5q0 27 -5 49.5t-38 22.5q-35 0 -40 -22.5t-5 -43.5v-18h-123z" />
<glyph unicode="&#x1ec4;" horiz-adv-x="1034" d="M127 0v1554h795v-360h-426v-215h405v-326h-405v-297h432v-356h-801zM260 1813v127q29 25 64.5 37t74.5 12q35 0 65.5 -9.5t61.5 -19.5t61.5 -19.5t67.5 -9.5q53 0 82 15.5t55 48.5v-125q-63 -53 -143 -53q-33 0 -63.5 9t-60.5 20.5t-61.5 20.5t-66.5 9q-53 0 -81.5 -15.5 t-55.5 -47.5zM264 1583v107l262 133l264 -133v-107l-264 105z" />
<glyph unicode="&#x1ec5;" horiz-adv-x="1128" d="M113 557q0 123 13 224.5t61.5 175t139.5 113.5t246 40q150 0 239 -41t135 -109.5t59.5 -158.5t13.5 -191q0 -76 -6 -143h-543q0 -104 23.5 -146t78.5 -42q47 0 68 18t25 55h338q-10 -90 -34 -159.5t-73 -116.5t-127 -70.5t-197 -23.5q-152 0 -242.5 44t-139 120.5 t-63.5 182t-15 228.5zM303 1348v127q29 25 64.5 37t74.5 12q35 0 65.5 -9.5t61.5 -19.5t61.5 -19.5t67.5 -9.5q53 0 82 15.5t55 48.5v-125q-63 -53 -143 -53q-33 0 -63.5 9t-60.5 20.5t-61.5 20.5t-66.5 9q-53 0 -81.5 -15.5t-55.5 -47.5zM307 1118v107l262 133l264 -133 v-107l-264 105zM471 670h211q-4 78 -28.5 110.5t-78.5 32.5q-51 0 -75.5 -32.5t-28.5 -110.5z" />
<glyph unicode="&#x1ec6;" horiz-adv-x="1034" d="M127 0v1554h795v-360h-426v-215h405v-326h-405v-297h432v-356h-801zM188 1649v157l338 189l332 -189v-157l-332 131zM424 -221h227v-242h-227v242z" />
<glyph unicode="&#x1ec7;" horiz-adv-x="1128" d="M113 557q0 123 13 224.5t61.5 175t139.5 113.5t246 40q150 0 239 -41t135 -109.5t59.5 -158.5t13.5 -191q0 -76 -6 -143h-543q0 -104 23.5 -146t78.5 -42q47 0 68 18t25 55h338q-10 -90 -34 -159.5t-73 -116.5t-127 -70.5t-197 -23.5q-152 0 -242.5 44t-139 120.5 t-63.5 182t-15 228.5zM246 1184v157l338 189l332 -189v-157l-332 131zM451 -221h227v-242h-227v242zM471 670h211q-4 78 -28.5 110.5t-78.5 32.5q-51 0 -75.5 -32.5t-28.5 -110.5z" />
<glyph unicode="&#x1ec8;" horiz-adv-x="665" d="M139 0v1554h389v-1554h-389zM162 1827v18q0 31 3 58.5t20.5 47t54.5 32t102 12.5q68 0 103.5 -11.5t53 -30t20.5 -40t3 -39.5q0 -35 -4 -65.5t-28 -57.5q-18 -18 -38 -32.5t-38 -30.5q-16 -16 -19.5 -29.5t-3.5 -32.5v-2h-118v6q0 29 2 50.5t16 41.5q10 16 30.5 31 t39.5 31q25 18 24 55q0 27 -6 49.5t-43 22.5q-35 0 -40 -22.5t-5 -43.5v-18h-129z" />
<glyph unicode="&#x1ec9;" horiz-adv-x="634" d="M139 0v1090h355v-1090h-355zM145 1362v18q0 31 3 58.5t20.5 47t54.5 32t102 12.5q68 0 103.5 -11.5t53 -30t20.5 -40t3 -39.5q0 -35 -4 -65.5t-28 -57.5q-18 -18 -38 -32.5t-38 -30.5q-16 -16 -19.5 -29.5t-3.5 -32.5v-2h-118v6q0 29 2 50.5t16 41.5q10 16 30.5 31 t39.5 31q25 18 24 55q0 27 -6 49.5t-43 22.5q-35 0 -40 -22.5t-5 -43.5v-18h-129z" />
<glyph unicode="&#x1eca;" horiz-adv-x="665" d="M139 0v1554h389v-1554h-389zM219 -221h227v-242h-227v242z" />
<glyph unicode="&#x1ecb;" horiz-adv-x="634" d="M139 0v1090h355v-1090h-355zM139 1255v299h355v-299h-355zM203 -221h227v-242h-227v242z" />
<glyph unicode="&#x1ecc;" horiz-adv-x="1204" d="M109 776q0 233 14 387t64.5 246t148.5 130t266 38t266.5 -38t148.5 -130t64.5 -245.5t14.5 -387.5q0 -233 -14.5 -385.5t-64.5 -244t-148.5 -128t-266.5 -36.5t-266 36.5t-148.5 128t-64.5 244t-14 385.5zM487 -221h227v-242h-227v242zM502 584q0 -139 14 -205t86 -66 q37 0 56.5 16.5t28.5 49.5t11 84t2 121v438q0 51 -2 92t-11 69.5t-28.5 43t-56.5 14.5t-56.5 -14.5t-29.5 -43t-12 -69.5t-2 -92v-438z" />
<glyph unicode="&#x1ecd;" horiz-adv-x="1157" d="M113 557q0 119 13 220.5t60 175t140.5 115.5t251.5 42t250 -42t140 -115.5t61 -175t13 -220.5q0 -127 -13 -232.5t-61 -181t-140 -118.5t-250 -43t-251.5 43t-140.5 118.5t-60 181t-13 232.5zM465 -221h227v-242h-227v242zM471 459q0 -98 21.5 -139t85.5 -41 q63 0 84.5 40.5t21.5 139.5v172q0 98 -21.5 140t-84.5 42t-85 -42t-22 -140v-172z" />
<glyph unicode="&#x1ece;" horiz-adv-x="1204" d="M109 776q0 233 14 387t64.5 246t148.5 130t266 38t266.5 -38t148.5 -130t64.5 -245.5t14.5 -387.5q0 -233 -14.5 -385.5t-64.5 -244t-148.5 -128t-266.5 -36.5t-266 36.5t-148.5 128t-64.5 244t-14 385.5zM434 1827v18q0 31 3 58.5t20.5 47t54.5 32t102 12.5 q68 0 103.5 -11.5t53 -30t20.5 -40t3 -39.5q0 -35 -4 -65.5t-28 -57.5q-18 -18 -38 -32.5t-38 -30.5q-16 -16 -19.5 -29.5t-3.5 -32.5v-2h-118v6q0 29 2 50.5t16 41.5q10 16 30.5 31t39.5 31q25 18 24 55q0 27 -6 49.5t-43 22.5q-35 0 -40 -22.5t-5 -43.5v-18h-129zM502 584 q0 -139 14 -205t86 -66q37 0 56.5 16.5t28.5 49.5t11 84t2 121v438q0 51 -2 92t-11 69.5t-28.5 43t-56.5 14.5t-56.5 -14.5t-29.5 -43t-12 -69.5t-2 -92v-438z" />
<glyph unicode="&#x1ecf;" horiz-adv-x="1157" d="M113 557q0 119 13 220.5t60 175t140.5 115.5t251.5 42t250 -42t140 -115.5t61 -175t13 -220.5q0 -127 -13 -232.5t-61 -181t-140 -118.5t-250 -43t-251.5 43t-140.5 118.5t-60 181t-13 232.5zM408 1362v18q0 31 3 58.5t20.5 47t54.5 32t102 12.5q68 0 103.5 -11.5t53 -30 t20.5 -40t3 -39.5q0 -35 -4 -65.5t-28 -57.5q-18 -18 -38 -32.5t-38 -30.5q-16 -16 -19.5 -29.5t-3.5 -32.5v-2h-118v6q0 29 2 50.5t16 41.5q10 16 30.5 31t39.5 31q25 18 24 55q0 27 -6 49.5t-43 22.5q-35 0 -40 -22.5t-5 -43.5v-18h-129zM471 459q0 -98 21.5 -139 t85.5 -41q63 0 84.5 40.5t21.5 139.5v172q0 98 -21.5 140t-84.5 42t-85 -42t-22 -140v-172z" />
<glyph unicode="&#x1ed0;" horiz-adv-x="1204" d="M109 776q0 233 14 387t64.5 246t148.5 130t266 38t266.5 -38t148.5 -130t64.5 -245.5t14.5 -387.5q0 -233 -14.5 -385.5t-64.5 -244t-148.5 -128t-266.5 -36.5t-266 36.5t-148.5 128t-64.5 244t-14 385.5zM342 1583v107l262 133l131 -66v74l314 164v-162l-293 -88 l112 -55v-107l-264 105zM502 584q0 -139 14 -205t86 -66q37 0 56.5 16.5t28.5 49.5t11 84t2 121v438q0 51 -2 92t-11 69.5t-28.5 43t-56.5 14.5t-56.5 -14.5t-29.5 -43t-12 -69.5t-2 -92v-438z" />
<glyph unicode="&#x1ed1;" horiz-adv-x="1157" d="M113 557q0 119 13 220.5t60 175t140.5 115.5t251.5 42t250 -42t140 -115.5t61 -175t13 -220.5q0 -127 -13 -232.5t-61 -181t-140 -118.5t-250 -43t-251.5 43t-140.5 118.5t-60 181t-13 232.5zM315 1118v107l262 133l131 -66v74l314 164v-162l-293 -88l112 -55v-107 l-264 105zM471 459q0 -98 21.5 -139t85.5 -41q63 0 84.5 40.5t21.5 139.5v172q0 98 -21.5 140t-84.5 42t-85 -42t-22 -140v-172z" />
<glyph unicode="&#x1ed2;" horiz-adv-x="1204" d="M109 776q0 233 14 387t64.5 246t148.5 130t266 38t266.5 -38t148.5 -130t64.5 -245.5t14.5 -387.5q0 -233 -14.5 -385.5t-64.5 -244t-148.5 -128t-266.5 -36.5t-266 36.5t-148.5 128t-64.5 244t-14 385.5zM154 1833v162l313 -164v-74l131 66l263 -133v-107l-263 105 l-266 -105v107l113 55zM502 584q0 -139 14 -205t86 -66q37 0 56.5 16.5t28.5 49.5t11 84t2 121v438q0 51 -2 92t-11 69.5t-28.5 43t-56.5 14.5t-56.5 -14.5t-29.5 -43t-12 -69.5t-2 -92v-438z" />
<glyph unicode="&#x1ed3;" horiz-adv-x="1157" d="M113 557q0 119 13 220.5t60 175t140.5 115.5t251.5 42t250 -42t140 -115.5t61 -175t13 -220.5q0 -127 -13 -232.5t-61 -181t-140 -118.5t-250 -43t-251.5 43t-140.5 118.5t-60 181t-13 232.5zM133 1368v162l313 -164v-74l131 66l263 -133v-107l-263 105l-266 -105v107 l113 55zM471 459q0 -98 21.5 -139t85.5 -41q63 0 84.5 40.5t21.5 139.5v172q0 98 -21.5 140t-84.5 42t-85 -42t-22 -140v-172z" />
<glyph unicode="&#x1ed4;" horiz-adv-x="1204" d="M109 776q0 233 14 387t64.5 246t148.5 130t266 38t266.5 -38t148.5 -130t64.5 -245.5t14.5 -387.5q0 -233 -14.5 -385.5t-64.5 -244t-148.5 -128t-266.5 -36.5t-266 36.5t-148.5 128t-64.5 244t-14 385.5zM342 1583v107l262 133l264 -133v-107l-264 105zM502 584 q0 -139 14 -205t86 -66q37 0 56.5 16.5t28.5 49.5t11 84t2 121v438q0 51 -2 92t-11 69.5t-28.5 43t-56.5 14.5t-56.5 -14.5t-29.5 -43t-12 -69.5t-2 -92v-438zM805 1827v18q0 31 3 58.5t20.5 47t52 32t96.5 12.5q63 0 98 -11.5t51.5 -30t20.5 -40t4 -39.5q0 -35 -4 -65.5 t-29 -57.5q-16 -18 -34.5 -32.5t-34.5 -30.5q-18 -16 -22.5 -29.5t-4.5 -32.5v-2h-115v6q0 29 2 50.5t19 41.5q10 16 30.5 31t36.5 31q14 10 17.5 24.5t3.5 30.5q0 27 -5 49.5t-38 22.5q-35 0 -40 -22.5t-5 -43.5v-18h-123z" />
<glyph unicode="&#x1ed5;" horiz-adv-x="1157" d="M113 557q0 119 13 220.5t60 175t140.5 115.5t251.5 42t250 -42t140 -115.5t61 -175t13 -220.5q0 -127 -13 -232.5t-61 -181t-140 -118.5t-250 -43t-251.5 43t-140.5 118.5t-60 181t-13 232.5zM315 1118v107l262 133l264 -133v-107l-264 105zM471 459q0 -98 21.5 -139 t85.5 -41q63 0 84.5 40.5t21.5 139.5v172q0 98 -21.5 140t-84.5 42t-85 -42t-22 -140v-172zM778 1362v18q0 31 3 58.5t20.5 47t52 32t96.5 12.5q63 0 98 -11.5t51.5 -30t20.5 -40t4 -39.5q0 -35 -4 -65.5t-29 -57.5q-16 -18 -34.5 -32.5t-34.5 -30.5q-18 -16 -22.5 -29.5 t-4.5 -32.5v-2h-115v6q0 29 2 50.5t19 41.5q10 16 30.5 31t36.5 31q14 10 17.5 24.5t3.5 30.5q0 27 -5 49.5t-38 22.5q-35 0 -40 -22.5t-5 -43.5v-18h-123z" />
<glyph unicode="&#x1ed6;" horiz-adv-x="1204" d="M109 776q0 233 14 387t64.5 246t148.5 130t266 38t266.5 -38t148.5 -130t64.5 -245.5t14.5 -387.5q0 -233 -14.5 -385.5t-64.5 -244t-148.5 -128t-266.5 -36.5t-266 36.5t-148.5 128t-64.5 244t-14 385.5zM336 1813v127q29 25 64.5 37t74.5 12q35 0 65.5 -9.5t61.5 -19.5 t61.5 -19.5t67.5 -9.5q53 0 82 15.5t55 48.5v-125q-63 -53 -143 -53q-33 0 -63.5 9t-60.5 20.5t-61.5 20.5t-66.5 9q-53 0 -81.5 -15.5t-55.5 -47.5zM340 1583v107l262 133l264 -133v-107l-264 105zM502 584q0 -139 14 -205t86 -66q37 0 56.5 16.5t28.5 49.5t11 84t2 121 v438q0 51 -2 92t-11 69.5t-28.5 43t-56.5 14.5t-56.5 -14.5t-29.5 -43t-12 -69.5t-2 -92v-438z" />
<glyph unicode="&#x1ed7;" horiz-adv-x="1157" d="M113 557q0 119 13 220.5t60 175t140.5 115.5t251.5 42t250 -42t140 -115.5t61 -175t13 -220.5q0 -127 -13 -232.5t-61 -181t-140 -118.5t-250 -43t-251.5 43t-140.5 118.5t-60 181t-13 232.5zM311 1348v127q29 25 64.5 37t74.5 12q35 0 65.5 -9.5t61.5 -19.5t61.5 -19.5 t67.5 -9.5q53 0 82 15.5t55 48.5v-125q-63 -53 -143 -53q-33 0 -63.5 9t-60.5 20.5t-61.5 20.5t-66.5 9q-53 0 -81.5 -15.5t-55.5 -47.5zM315 1118v107l262 133l264 -133v-107l-264 105zM471 459q0 -98 21.5 -139t85.5 -41q63 0 84.5 40.5t21.5 139.5v172q0 98 -21.5 140 t-84.5 42t-85 -42t-22 -140v-172z" />
<glyph unicode="&#x1ed8;" horiz-adv-x="1204" d="M109 776q0 233 14 387t64.5 246t148.5 130t266 38t266.5 -38t148.5 -130t64.5 -245.5t14.5 -387.5q0 -233 -14.5 -385.5t-64.5 -244t-148.5 -128t-266.5 -36.5t-266 36.5t-148.5 128t-64.5 244t-14 385.5zM266 1649v157l338 189l332 -189v-157l-332 131zM487 -221h227 v-242h-227v242zM502 584q0 -139 14 -205t86 -66q37 0 56.5 16.5t28.5 49.5t11 84t2 121v438q0 51 -2 92t-11 69.5t-28.5 43t-56.5 14.5t-56.5 -14.5t-29.5 -43t-12 -69.5t-2 -92v-438z" />
<glyph unicode="&#x1ed9;" horiz-adv-x="1157" d="M113 557q0 119 13 220.5t60 175t140.5 115.5t251.5 42t250 -42t140 -115.5t61 -175t13 -220.5q0 -127 -13 -232.5t-61 -181t-140 -118.5t-250 -43t-251.5 43t-140.5 118.5t-60 181t-13 232.5zM244 1184v157l338 189l332 -189v-157l-332 131zM465 -221h227v-242h-227v242z M471 459q0 -98 21.5 -139t85.5 -41q63 0 84.5 40.5t21.5 139.5v172q0 98 -21.5 140t-84.5 42t-85 -42t-22 -140v-172z" />
<glyph unicode="&#x1eda;" horiz-adv-x="1331" d="M109 776q0 233 14 387t65.5 246t149.5 130t266 38q111 0 187.5 -16.5t131 -53.5t88 -95t56.5 -144q12 -47 31.5 -64.5t44.5 -17.5q39 0 39 84v284h250v-284q0 -66 -10.5 -125.5t-35 -104.5t-65.5 -71.5t-102 -26.5q-70 0 -125 43q2 -47 3 -99t1 -110q0 -233 -14.5 -385.5 t-65.5 -244t-148.5 -128t-265.5 -36.5t-266 36.5t-149.5 128t-65.5 244t-14 385.5zM403 1657v145l524 193v-242zM504 584q0 -139 14 -205t86 -66q35 0 55.5 16.5t29.5 49.5t11 84t2 121v438q0 51 -2 92t-11 69.5t-29.5 43t-55.5 14.5q-37 0 -56.5 -14.5t-29.5 -43t-12 -69.5 t-2 -92v-438z" />
<glyph unicode="&#x1edb;" horiz-adv-x="1288" d="M113 557q0 119 13 220.5t60 175t139.5 115.5t249.5 42q113 0 191 -22.5t128 -62.5t80 -96.5t48 -123.5q12 -49 32.5 -66.5t45.5 -17.5q39 0 39 84v285h247v-285q0 -66 -9 -125t-33.5 -104.5t-65.5 -72t-102 -26.5q-37 0 -72 12.5t-64 38.5q-2 -121 -17 -221t-63.5 -173 t-139.5 -112.5t-245 -39.5q-158 0 -250 43t-139 118.5t-60 181t-13 232.5zM381 1192v145l524 193v-242zM469 459q0 -98 21.5 -139t84.5 -41t86 40.5t23 139.5v172q0 98 -22.5 140t-86.5 42q-63 0 -84.5 -42t-21.5 -140v-172z" />
<glyph unicode="&#x1edc;" horiz-adv-x="1331" d="M109 776q0 233 14 387t65.5 246t149.5 130t266 38q111 0 187.5 -16.5t131 -53.5t88 -95t56.5 -144q12 -47 31.5 -64.5t44.5 -17.5q39 0 39 84v284h250v-284q0 -66 -10.5 -125.5t-35 -104.5t-65.5 -71.5t-102 -26.5q-70 0 -125 43q2 -47 3 -99t1 -110q0 -233 -14.5 -385.5 t-65.5 -244t-148.5 -128t-265.5 -36.5t-266 36.5t-149.5 128t-65.5 244t-14 385.5zM281 1753v242l524 -193v-145zM504 584q0 -139 14 -205t86 -66q35 0 55.5 16.5t29.5 49.5t11 84t2 121v438q0 51 -2 92t-11 69.5t-29.5 43t-55.5 14.5q-37 0 -56.5 -14.5t-29.5 -43 t-12 -69.5t-2 -92v-438z" />
<glyph unicode="&#x1edd;" horiz-adv-x="1288" d="M113 557q0 119 13 220.5t60 175t139.5 115.5t249.5 42q113 0 191 -22.5t128 -62.5t80 -96.5t48 -123.5q12 -49 32.5 -66.5t45.5 -17.5q39 0 39 84v285h247v-285q0 -66 -9 -125t-33.5 -104.5t-65.5 -72t-102 -26.5q-37 0 -72 12.5t-64 38.5q-2 -121 -17 -221t-63.5 -173 t-139.5 -112.5t-245 -39.5q-158 0 -250 43t-139 118.5t-60 181t-13 232.5zM258 1288v242l524 -193v-145zM469 459q0 -98 21.5 -139t84.5 -41t86 40.5t23 139.5v172q0 98 -22.5 140t-86.5 42q-63 0 -84.5 -42t-21.5 -140v-172z" />
<glyph unicode="&#x1ede;" horiz-adv-x="1331" d="M109 776q0 233 14 387t65.5 246t149.5 130t266 38q111 0 187.5 -16.5t131 -53.5t88 -95t56.5 -144q12 -47 31.5 -64.5t44.5 -17.5q39 0 39 84v284h250v-284q0 -66 -10.5 -125.5t-35 -104.5t-65.5 -71.5t-102 -26.5q-70 0 -125 43q2 -47 3 -99t1 -110q0 -233 -14.5 -385.5 t-65.5 -244t-148.5 -128t-265.5 -36.5t-266 36.5t-149.5 128t-65.5 244t-14 385.5zM434 1827v18q0 31 3 58.5t20.5 47t54.5 32t102 12.5q68 0 103.5 -11.5t53 -30t20.5 -40t3 -39.5q0 -35 -4 -65.5t-28 -57.5q-18 -18 -38 -32.5t-38 -30.5q-16 -16 -19.5 -29.5t-3.5 -32.5 v-2h-118v6q0 29 2 50.5t16 41.5q10 16 30.5 31t39.5 31q25 18 24 55q0 27 -6 49.5t-43 22.5q-35 0 -40 -22.5t-5 -43.5v-18h-129zM504 584q0 -139 14 -205t86 -66q35 0 55.5 16.5t29.5 49.5t11 84t2 121v438q0 51 -2 92t-11 69.5t-29.5 43t-55.5 14.5q-37 0 -56.5 -14.5 t-29.5 -43t-12 -69.5t-2 -92v-438z" />
<glyph unicode="&#x1edf;" horiz-adv-x="1288" d="M113 557q0 119 13 220.5t60 175t139.5 115.5t249.5 42q113 0 191 -22.5t128 -62.5t80 -96.5t48 -123.5q12 -49 32.5 -66.5t45.5 -17.5q39 0 39 84v285h247v-285q0 -66 -9 -125t-33.5 -104.5t-65.5 -72t-102 -26.5q-37 0 -72 12.5t-64 38.5q-2 -121 -17 -221t-63.5 -173 t-139.5 -112.5t-245 -39.5q-158 0 -250 43t-139 118.5t-60 181t-13 232.5zM408 1362v18q0 31 3 58.5t20.5 47t54.5 32t102 12.5q68 0 103.5 -11.5t53 -30t20.5 -40t3 -39.5q0 -35 -4 -65.5t-28 -57.5q-18 -18 -38 -32.5t-38 -30.5q-16 -16 -19.5 -29.5t-3.5 -32.5v-2h-118v6 q0 29 2 50.5t16 41.5q10 16 30.5 31t39.5 31q25 18 24 55q0 27 -6 49.5t-43 22.5q-35 0 -40 -22.5t-5 -43.5v-18h-129zM469 459q0 -98 21.5 -139t84.5 -41t86 40.5t23 139.5v172q0 98 -22.5 140t-86.5 42q-63 0 -84.5 -42t-21.5 -140v-172z" />
<glyph unicode="&#x1ee0;" horiz-adv-x="1331" d="M109 776q0 233 14 387t65.5 246t149.5 130t266 38q111 0 187.5 -16.5t131 -53.5t88 -95t56.5 -144q12 -47 31.5 -64.5t44.5 -17.5q39 0 39 84v284h250v-284q0 -66 -10.5 -125.5t-35 -104.5t-65.5 -71.5t-102 -26.5q-70 0 -125 43q2 -47 3 -99t1 -110q0 -233 -14.5 -385.5 t-65.5 -244t-148.5 -128t-265.5 -36.5t-266 36.5t-149.5 128t-65.5 244t-14 385.5zM277 1682v221q80 66 170 65q43 0 81 -12t77 -25.5t78.5 -26t82.5 -12.5q59 0 93 20.5t73 63.5v-219q-80 -70 -174 -69q-39 0 -76.5 12t-75.5 26.5t-78 26.5t-85 12q-59 0 -95 -20t-71 -63z M504 584q0 -139 14 -205t86 -66q35 0 55.5 16.5t29.5 49.5t11 84t2 121v438q0 51 -2 92t-11 69.5t-29.5 43t-55.5 14.5q-37 0 -56.5 -14.5t-29.5 -43t-12 -69.5t-2 -92v-438z" />
<glyph unicode="&#x1ee1;" horiz-adv-x="1288" d="M113 557q0 119 13 220.5t60 175t139.5 115.5t249.5 42q113 0 191 -22.5t128 -62.5t80 -96.5t48 -123.5q12 -49 32.5 -66.5t45.5 -17.5q39 0 39 84v285h247v-285q0 -66 -9 -125t-33.5 -104.5t-65.5 -72t-102 -26.5q-37 0 -72 12.5t-64 38.5q-2 -121 -17 -221t-63.5 -173 t-139.5 -112.5t-245 -39.5q-158 0 -250 43t-139 118.5t-60 181t-13 232.5zM254 1217v221q80 66 170 65q43 0 81 -12t77 -25.5t78.5 -26t82.5 -12.5q59 0 93 20.5t73 63.5v-219q-80 -70 -174 -69q-39 0 -76.5 12t-75.5 26.5t-78 26.5t-85 12q-59 0 -95 -20t-71 -63zM469 459 q0 -98 21.5 -139t84.5 -41t86 40.5t23 139.5v172q0 98 -22.5 140t-86.5 42q-63 0 -84.5 -42t-21.5 -140v-172z" />
<glyph unicode="&#x1ee2;" horiz-adv-x="1331" d="M109 776q0 233 14 387t65.5 246t149.5 130t266 38q111 0 187.5 -16.5t131 -53.5t88 -95t56.5 -144q12 -47 31.5 -64.5t44.5 -17.5q39 0 39 84v284h250v-284q0 -66 -10.5 -125.5t-35 -104.5t-65.5 -71.5t-102 -26.5q-70 0 -125 43q2 -47 3 -99t1 -110q0 -233 -14.5 -385.5 t-65.5 -244t-148.5 -128t-265.5 -36.5t-266 36.5t-149.5 128t-65.5 244t-14 385.5zM489 -221h227v-242h-227v242zM504 584q0 -139 14 -205t86 -66q35 0 55.5 16.5t29.5 49.5t11 84t2 121v438q0 51 -2 92t-11 69.5t-29.5 43t-55.5 14.5q-37 0 -56.5 -14.5t-29.5 -43 t-12 -69.5t-2 -92v-438z" />
<glyph unicode="&#x1ee3;" horiz-adv-x="1288" d="M113 557q0 119 13 220.5t60 175t139.5 115.5t249.5 42q113 0 191 -22.5t128 -62.5t80 -96.5t48 -123.5q12 -49 32.5 -66.5t45.5 -17.5q39 0 39 84v285h247v-285q0 -66 -9 -125t-33.5 -104.5t-65.5 -72t-102 -26.5q-37 0 -72 12.5t-64 38.5q-2 -121 -17 -221t-63.5 -173 t-139.5 -112.5t-245 -39.5q-158 0 -250 43t-139 118.5t-60 181t-13 232.5zM469 -221h227v-242h-227v242zM469 459q0 -98 21.5 -139t84.5 -41t86 40.5t23 139.5v172q0 98 -22.5 140t-86.5 42q-63 0 -84.5 -42t-21.5 -140v-172z" />
<glyph unicode="&#x1ee4;" horiz-adv-x="1189" d="M119 432v1122h387v-1122q0 -68 21.5 -90.5t66.5 -22.5q47 0 68.5 23t21.5 90v1122h389v-1122q0 -137 -23.5 -224t-79 -137.5t-146.5 -69.5t-226 -19t-227 19t-147.5 69.5t-80 137.5t-24.5 224zM481 -221h227v-242h-227v242z" />
<glyph unicode="&#x1ee5;" horiz-adv-x="1134" d="M127 283v807h350v-717q0 -57 19.5 -75.5t66.5 -18.5t65.5 18t18.5 76v717h352v-1090h-323v100q-47 -66 -105.5 -92t-132.5 -26q-94 0 -154.5 20.5t-95 59t-48 95t-13.5 126.5zM453 -221h227v-242h-227v242z" />
<glyph unicode="&#x1ee6;" horiz-adv-x="1189" d="M119 432v1122h387v-1122q0 -68 21.5 -90.5t66.5 -22.5q47 0 68.5 23t21.5 90v1122h389v-1122q0 -137 -23.5 -224t-79 -137.5t-146.5 -69.5t-226 -19t-227 19t-147.5 69.5t-80 137.5t-24.5 224zM422 1827v18q0 31 3 58.5t20.5 47t54.5 32t102 12.5q68 0 103.5 -11.5 t53 -30t20.5 -40t3 -39.5q0 -35 -4 -65.5t-28 -57.5q-18 -18 -38 -32.5t-38 -30.5q-16 -16 -19.5 -29.5t-3.5 -32.5v-2h-118v6q0 29 2 50.5t16 41.5q10 16 30.5 31t39.5 31q25 18 24 55q0 27 -6 49.5t-43 22.5q-35 0 -40 -22.5t-5 -43.5v-18h-129z" />
<glyph unicode="&#x1ee7;" horiz-adv-x="1134" d="M127 283v807h350v-717q0 -57 19.5 -75.5t66.5 -18.5t65.5 18t18.5 76v717h352v-1090h-323v100q-47 -66 -105.5 -92t-132.5 -26q-94 0 -154.5 20.5t-95 59t-48 95t-13.5 126.5zM395 1362v18q0 31 3 58.5t20.5 47t54.5 32t102 12.5q68 0 103.5 -11.5t53 -30t20.5 -40 t3 -39.5q0 -35 -4 -65.5t-28 -57.5q-18 -18 -38 -32.5t-38 -30.5q-16 -16 -19.5 -29.5t-3.5 -32.5v-2h-118v6q0 29 2 50.5t16 41.5q10 16 30.5 31t39.5 31q25 18 24 55q0 27 -6 49.5t-43 22.5q-35 0 -40 -22.5t-5 -43.5v-18h-129z" />
<glyph unicode="&#x1ee8;" horiz-adv-x="1331" d="M119 432v1122h387v-1122q0 -68 20.5 -90.5t67.5 -22.5t67.5 23t20.5 90v1122h391v-327q23 -41 60 -41q39 0 38 84v284h248v-284q0 -66 -9 -125.5t-33.5 -104.5t-65.5 -71.5t-103 -26.5q-82 0 -135 51v-561q0 -137 -23.5 -224t-79 -137.5t-146.5 -69.5t-226 -19t-227 19 t-148.5 69.5t-80 137.5t-23.5 224zM393 1657v145l524 193v-242z" />
<glyph unicode="&#x1ee9;" horiz-adv-x="1257" d="M127 283v807h350v-717q0 -57 19.5 -75.5t66.5 -18.5t65.5 18t18.5 76v717h354v-330q23 -39 58 -39q39 0 39 84v285h250v-285q0 -66 -10.5 -125t-35 -104.5t-65.5 -72t-102 -26.5q-37 0 -71 12.5t-63 38.5v-528h-325v100q-47 -66 -105.5 -92t-132.5 -26q-94 0 -154.5 20.5 t-95 59t-48 95t-13.5 126.5zM358 1192v145l524 193v-242z" />
<glyph unicode="&#x1eea;" horiz-adv-x="1331" d="M119 432v1122h387v-1122q0 -68 20.5 -90.5t67.5 -22.5t67.5 23t20.5 90v1122h391v-327q23 -41 60 -41q39 0 38 84v284h248v-284q0 -66 -9 -125.5t-33.5 -104.5t-65.5 -71.5t-103 -26.5q-82 0 -135 51v-561q0 -137 -23.5 -224t-79 -137.5t-146.5 -69.5t-226 -19t-227 19 t-148.5 69.5t-80 137.5t-23.5 224zM270 1753v242l524 -193v-145z" />
<glyph unicode="&#x1eeb;" horiz-adv-x="1257" d="M127 283v807h350v-717q0 -57 19.5 -75.5t66.5 -18.5t65.5 18t18.5 76v717h354v-330q23 -39 58 -39q39 0 39 84v285h250v-285q0 -66 -10.5 -125t-35 -104.5t-65.5 -72t-102 -26.5q-37 0 -71 12.5t-63 38.5v-528h-325v100q-47 -66 -105.5 -92t-132.5 -26q-94 0 -154.5 20.5 t-95 59t-48 95t-13.5 126.5zM231 1288v242l524 -193v-145z" />
<glyph unicode="&#x1eec;" horiz-adv-x="1331" d="M119 432v1122h387v-1122q0 -68 20.5 -90.5t67.5 -22.5t67.5 23t20.5 90v1122h391v-327q23 -41 60 -41q39 0 38 84v284h248v-284q0 -66 -9 -125.5t-33.5 -104.5t-65.5 -71.5t-103 -26.5q-82 0 -135 51v-561q0 -137 -23.5 -224t-79 -137.5t-146.5 -69.5t-226 -19t-227 19 t-148.5 69.5t-80 137.5t-23.5 224zM420 1827v18q0 31 3 58.5t20.5 47t54.5 32t102 12.5q68 0 103.5 -11.5t53 -30t20.5 -40t3 -39.5q0 -35 -4 -65.5t-28 -57.5q-18 -18 -38 -32.5t-38 -30.5q-16 -16 -19.5 -29.5t-3.5 -32.5v-2h-118v6q0 29 2 50.5t16 41.5q10 16 30.5 31 t39.5 31q25 18 24 55q0 27 -6 49.5t-43 22.5q-35 0 -40 -22.5t-5 -43.5v-18h-129z" />
<glyph unicode="&#x1eed;" horiz-adv-x="1257" d="M127 283v807h350v-717q0 -57 19.5 -75.5t66.5 -18.5t65.5 18t18.5 76v717h354v-330q23 -39 58 -39q39 0 39 84v285h250v-285q0 -66 -10.5 -125t-35 -104.5t-65.5 -72t-102 -26.5q-37 0 -71 12.5t-63 38.5v-528h-325v100q-47 -66 -105.5 -92t-132.5 -26q-94 0 -154.5 20.5 t-95 59t-48 95t-13.5 126.5zM387 1362v18q0 31 3 58.5t20.5 47t54.5 32t102 12.5q68 0 103.5 -11.5t53 -30t20.5 -40t3 -39.5q0 -35 -4 -65.5t-28 -57.5q-18 -18 -38 -32.5t-38 -30.5q-16 -16 -19.5 -29.5t-3.5 -32.5v-2h-118v6q0 29 2 50.5t16 41.5q10 16 30.5 31t39.5 31 q25 18 24 55q0 27 -6 49.5t-43 22.5q-35 0 -40 -22.5t-5 -43.5v-18h-129z" />
<glyph unicode="&#x1eee;" horiz-adv-x="1331" d="M119 432v1122h387v-1122q0 -68 20.5 -90.5t67.5 -22.5t67.5 23t20.5 90v1122h391v-327q23 -41 60 -41q39 0 38 84v284h248v-284q0 -66 -9 -125.5t-33.5 -104.5t-65.5 -71.5t-103 -26.5q-82 0 -135 51v-561q0 -137 -23.5 -224t-79 -137.5t-146.5 -69.5t-226 -19t-227 19 t-148.5 69.5t-80 137.5t-23.5 224zM264 1682v221q80 66 170 65q43 0 81 -12t77 -25.5t78.5 -26t82.5 -12.5q59 0 93 20.5t73 63.5v-219q-80 -70 -174 -69q-39 0 -76.5 12t-75.5 26.5t-78 26.5t-85 12q-59 0 -95 -20t-71 -63z" />
<glyph unicode="&#x1eef;" horiz-adv-x="1257" d="M127 283v807h350v-717q0 -57 19.5 -75.5t66.5 -18.5t65.5 18t18.5 76v717h354v-330q23 -39 58 -39q39 0 39 84v285h250v-285q0 -66 -10.5 -125t-35 -104.5t-65.5 -72t-102 -26.5q-37 0 -71 12.5t-63 38.5v-528h-325v100q-47 -66 -105.5 -92t-132.5 -26q-94 0 -154.5 20.5 t-95 59t-48 95t-13.5 126.5zM227 1217v221q80 66 170 65q43 0 81 -12t77 -25.5t78.5 -26t82.5 -12.5q59 0 93 20.5t73 63.5v-219q-80 -70 -174 -69q-39 0 -76.5 12t-75.5 26.5t-78 26.5t-85 12q-59 0 -95 -20t-71 -63z" />
<glyph unicode="&#x1ef0;" horiz-adv-x="1331" d="M119 432v1122h387v-1122q0 -68 20.5 -90.5t67.5 -22.5t67.5 23t20.5 90v1122h391v-327q23 -41 60 -41q39 0 38 84v284h248v-284q0 -66 -9 -125.5t-33.5 -104.5t-65.5 -71.5t-103 -26.5q-82 0 -135 51v-561q0 -137 -23.5 -224t-79 -137.5t-146.5 -69.5t-226 -19t-227 19 t-148.5 69.5t-80 137.5t-23.5 224zM477 -221h227v-242h-227v242z" />
<glyph unicode="&#x1ef1;" horiz-adv-x="1257" d="M127 283v807h350v-717q0 -57 19.5 -75.5t66.5 -18.5t65.5 18t18.5 76v717h354v-330q23 -39 58 -39q39 0 39 84v285h250v-285q0 -66 -10.5 -125t-35 -104.5t-65.5 -72t-102 -26.5q-37 0 -71 12.5t-63 38.5v-528h-325v100q-47 -66 -105.5 -92t-132.5 -26q-94 0 -154.5 20.5 t-95 59t-48 95t-13.5 126.5zM449 -221h227v-242h-227v242z" />
<glyph unicode="&#x1ef2;" horiz-adv-x="1167" d="M45 1554h424l82 -356q12 -53 23.5 -108.5t15.5 -108.5q6 53 16 108.5t23 108.5l80 356h413l-346 -1067v-487h-383v487zM266 1753v242l524 -193v-145z" />
<glyph unicode="&#x1ef3;" horiz-adv-x="952" d="M55 1090h344l56 -390q10 -78 17 -156.5t11 -148.5q4 70 12.5 149t18.5 156l57 390h338l-229 -1090l-105 -463h-380l100 385zM158 1288v242l524 -193v-145z" />
<glyph unicode="&#x2000;" horiz-adv-x="997" />
<glyph unicode="&#x2001;" horiz-adv-x="1995" />
<glyph unicode="&#x2002;" horiz-adv-x="997" />
<glyph unicode="&#x2003;" horiz-adv-x="1995" />
<glyph unicode="&#x2004;" horiz-adv-x="665" />
<glyph unicode="&#x2005;" horiz-adv-x="498" />
<glyph unicode="&#x2006;" horiz-adv-x="332" />
<glyph unicode="&#x2007;" horiz-adv-x="332" />
<glyph unicode="&#x2008;" horiz-adv-x="249" />
<glyph unicode="&#x2009;" horiz-adv-x="399" />
<glyph unicode="&#x200a;" horiz-adv-x="110" />
<glyph unicode="&#x2010;" horiz-adv-x="626" d="M70 504v254h487v-254h-487z" />
<glyph unicode="&#x2011;" horiz-adv-x="626" d="M70 504v254h487v-254h-487z" />
<glyph unicode="&#x2012;" horiz-adv-x="626" d="M70 504v254h487v-254h-487z" />
<glyph unicode="&#x2013;" horiz-adv-x="1017" d="M70 504v254h878v-254h-878z" />
<glyph unicode="&#x2014;" horiz-adv-x="1650" d="M70 504v254h1511v-254h-1511z" />
<glyph unicode="&#x2018;" horiz-adv-x="505" d="M84 1303v251h336v-327h-92l53 -223h-176z" />
<glyph unicode="&#x2019;" horiz-adv-x="505" d="M84 1227v327h336v-251l-121 -299h-176l53 223h-92z" />
<glyph unicode="&#x201a;" horiz-adv-x="505" d="M84 0v328h336v-252l-121 -299h-176l53 223h-92z" />
<glyph unicode="&#x201c;" horiz-adv-x="1011" d="M84 1303v251h336v-327h-92l53 -223h-176zM590 1303v251h336v-327h-92l53 -223h-176z" />
<glyph unicode="&#x201d;" horiz-adv-x="1011" d="M84 1227v327h336v-251l-121 -299h-176l53 223h-92zM590 1227v327h336v-251l-121 -299h-176l53 223h-92z" />
<glyph unicode="&#x201e;" horiz-adv-x="1011" d="M84 0v328h336v-252l-121 -299h-176l53 223h-92zM590 0v328h336v-252l-121 -299h-176l53 223h-92z" />
<glyph unicode="&#x2020;" horiz-adv-x="749" d="M102 1159v103l183 41v251h176v-251l188 -41v-103h-186v-121q0 -301 -28.5 -561t-61.5 -500q-35 240 -61.5 499t-26.5 562v121h-183z" />
<glyph unicode="&#x2021;" horiz-adv-x="772" d="M115 293v102h182v121q0 137 35 260q-16 61 -25.5 126t-9.5 136v121h-182v103l182 41v251h174v-251l188 -41v-103h-186v-121q0 -72 -11 -136t-28 -126q16 -59 27.5 -123.5t11.5 -136.5v-121h186v-102l-188 -41v-252h-174v252z" />
<glyph unicode="&#x2022;" horiz-adv-x="673" d="M61 743q0 72 21.5 131.5t58.5 101.5t87.5 64.5t109.5 22.5q55 0 106.5 -22.5t89 -64.5t60 -101.5t22.5 -131.5q0 -70 -22.5 -129t-60 -102t-89 -66.5t-106.5 -23.5q-59 0 -109.5 23.5t-87.5 66.5t-58.5 102.5t-21.5 128.5z" />
<glyph unicode="&#x2026;" horiz-adv-x="2154" d="M127 0v328h336v-328h-336zM901 0v328h336v-328h-336zM1675 0v328h336v-328h-336z" />
<glyph unicode="&#x202f;" horiz-adv-x="399" />
<glyph unicode="&#x2030;" horiz-adv-x="1835" d="M127 1227q0 129 5 215t26.5 136t65.5 70.5t120 20.5q74 0 117 -20.5t65.5 -70.5t28.5 -136t6 -215t-6 -214t-28.5 -135.5t-65.5 -71t-117 -20.5q-76 0 -120 20.5t-65.5 71t-26.5 135.5t-5 214zM176 -43l712 1640h220l-709 -1640h-223zM303 1143q0 -80 5 -120t36 -40 t36 40t5 120v168q0 80 -5 120.5t-36 40.5t-36 -41t-5 -120v-168zM764 410q0 129 5 215t26.5 136t65.5 70.5t120 20.5q74 0 117 -20.5t65.5 -70.5t28.5 -136t6 -215t-6 -214t-28.5 -135.5t-65.5 -71t-117 -20.5q-76 0 -120 20.5t-65.5 71t-26.5 135.5t-5 214zM940 326 q0 -80 5 -120t36 -40t36 40t5 120v168q0 80 -5 120.5t-36 40.5t-36 -41t-5 -120v-168zM1272 410q0 129 5 215t26.5 136t65.5 70.5t120 20.5q74 0 117 -20.5t65.5 -70.5t28.5 -136t6 -215t-6 -214t-28.5 -135.5t-65.5 -71t-117 -20.5q-76 0 -120 20.5t-65.5 71t-26.5 135.5 t-5 214zM1448 326q0 -80 5 -120t36 -40t36 40t5 120v168q0 80 -5 120.5t-36 40.5t-36 -41t-5 -120v-168z" />
<glyph unicode="&#x2039;" horiz-adv-x="598" d="M70 662l336 483l122 -135l-249 -348l249 -349l-122 -135z" />
<glyph unicode="&#x203a;" horiz-adv-x="598" d="M70 313l249 349l-249 348l123 135l335 -483l-335 -484z" />
<glyph unicode="&#x2044;" horiz-adv-x="395" d="M-268 -43l712 1640h220l-709 -1640h-223z" />
<glyph unicode="&#x205f;" horiz-adv-x="498" />
<glyph unicode="&#x2070;" horiz-adv-x="598" d="M82 1227q0 129 5 215t26.5 136t65.5 70.5t120 20.5q74 0 117 -20.5t65.5 -70.5t28.5 -136t6 -215t-6 -214t-28.5 -135.5t-65.5 -71t-117 -20.5q-76 0 -120 20.5t-65.5 71t-26.5 135.5t-5 214zM258 1143q0 -80 5 -120t36 -40t36 40t5 120v168q0 80 -5 120.5t-36 40.5 t-36 -41t-5 -120v-168z" />
<glyph unicode="&#x2074;" horiz-adv-x="598" d="M76 928v211l184 518h221v-533h45v-196h-45v-131h-170v131h-235zM236 1124h77q0 78 3 147.5t10 141.5q-16 -70 -39 -140.5t-51 -148.5z" />
<glyph unicode="&#x2075;" horiz-adv-x="602" d="M92 987q0 29 6 47h170q-2 -8 -2 -20q0 -35 35 -35q33 0 38 23.5t5 47.5v86q0 31 -6 53.5t-43 22.5q-33 0 -39 -39h-152l25 484h379v-199h-238l-4 -90q18 16 40 21.5t50 5.5q61 0 94 -19.5t48.5 -56.5t18.5 -91.5t3 -123.5q0 -66 -3 -123.5t-24.5 -100.5t-66.5 -67.5 t-127 -24.5q-47 0 -85 8.5t-64.5 31t-42 61.5t-15.5 98z" />
<glyph unicode="&#x2076;" horiz-adv-x="598" d="M86 1229q0 98 3 180t24.5 139t67.5 89t132 32q84 0 124.5 -25.5t56.5 -64.5q10 -20 12 -46t2 -52v-23.5t-2 -28.5h-162v23q0 14 -8 22.5t-33 8.5q-27 0 -36 -18.5t-9 -69.5v-89q18 23 44 35.5t65 12.5q45 0 74.5 -13.5t47 -45.5t24.5 -84t7 -130q0 -80 -8 -136t-31.5 -92 t-67.5 -51.5t-116 -15.5q-80 0 -122 24.5t-62.5 77t-23.5 136.5t-3 205zM258 1028q0 -23 5 -36t40 -13q31 0 36 13t5 36v74q0 27 -5 46t-36 19q-35 0 -40 -19.5t-5 -45.5v-74z" />
<glyph unicode="&#x2077;" horiz-adv-x="604" d="M92 1458v199h424v-172q-57 -152 -97 -333t-65 -355h-190q14 82 32.5 169t40 174t48 167.5t57.5 150.5h-250z" />
<glyph unicode="&#x2078;" horiz-adv-x="598" d="M78 1028q0 102 18.5 151.5t48.5 71.5q-31 18 -44 56t-13 120q0 57 5 102.5t25.5 76t62.5 47t118 16.5t119 -16.5t64.5 -47t26.5 -75.5t5 -103q0 -82 -15.5 -119.5t-43.5 -56.5q31 -23 49 -68.5t18 -154.5q0 -57 -8 -102.5t-31.5 -76t-67.5 -47t-116 -16.5t-115 16.5 t-66.5 47t-31.5 76t-8 102.5zM256 1026q0 -20 5 -34.5t38 -14.5t38 14t5 35v72q0 27 -5 46t-38 19t-38 -19.5t-5 -45.5v-72zM260 1378q0 -20 5 -34.5t34 -14.5t34 14.5t5 34.5v55q0 18 -5 30.5t-34 12.5t-34 -12t-5 -31v-55z" />
<glyph unicode="&#x2079;" horiz-adv-x="600" d="M82 1376q0 80 8 135.5t31.5 91t66.5 51t115 15.5q80 0 123 -24.5t63.5 -77t23.5 -137.5t3 -203q0 -100 -4 -181.5t-25.5 -138.5t-67.5 -89t-132 -32q-82 0 -122 25.5t-56 62.5q-16 41 -17 99v24.5t2 26.5h164v-21q0 -31 39 -30q29 0 38 19.5t9 68.5v88q-37 -45 -108 -45 q-47 0 -77 13t-46.5 45t-23.5 84t-7 130zM258 1356q0 -29 5 -48.5t34 -19.5q35 0 41 19.5t6 48.5v71q0 23 -6 36t-41 13q-29 0 -34 -13t-5 -36v-71z" />
<glyph unicode="&#x2080;" horiz-adv-x="598" d="M82 410q0 129 5 215t26.5 136t65.5 70.5t120 20.5q74 0 117 -20.5t65.5 -70.5t28.5 -136t6 -215t-6 -214t-28.5 -135.5t-65.5 -71t-117 -20.5q-76 0 -120 20.5t-65.5 71t-26.5 135.5t-5 214zM258 326q0 -80 5 -120t36 -40t36 40t5 120v168q0 80 -5 120.5t-36 40.5 t-36 -41t-5 -120v-168z" />
<glyph unicode="&#x2081;" horiz-adv-x="565" d="M55 594l181 246h174v-860h-179v581l-71 -98z" />
<glyph unicode="&#x2082;" horiz-adv-x="600" d="M86 -20v145q0 68 8 119t27.5 92t50.5 73.5t78 63.5t67.5 52.5t20.5 68.5q0 41 -7 51t-30 10t-30 -15t-7 -42q0 -25 2 -31h-172q-2 18 -3 34.5t-1 29.5q0 74 18.5 118t47 67.5t66.5 29.5t79 6q45 0 83 -10.5t66.5 -38t45 -74.5t16.5 -121q0 -55 -5 -98t-22.5 -79 t-49.5 -67.5t-83 -66.5t-72.5 -59.5t-21.5 -59.5h256v-198h-428z" />
<glyph unicode="&#x2083;" horiz-adv-x="598" d="M82 207v35h174v-29q0 -23 5 -38t34 -15q35 0 42 15t7 38v70q0 29 -5 48t-38 19h-100v156h102q29 0 33 15.5t4 33.5v61q0 18 -7 30.5t-38 12.5q-27 0 -32 -11t-5 -27v-23h-168v35q0 39 4 78t24.5 70.5t62.5 51t118 19.5t119 -19.5t64.5 -53.5t26.5 -78t5 -91 q0 -59 -12.5 -105t-48.5 -69q70 -47 69 -223q0 -51 -7 -96t-30.5 -78t-67.5 -51.5t-118 -18.5q-72 0 -115 18.5t-65.5 51.5t-29.5 76t-7 92z" />
<glyph unicode="&#x2084;" horiz-adv-x="598" d="M76 111v211l184 518h221v-533h45v-196h-45v-131h-170v131h-235zM236 307h77q0 78 3 147.5t10 141.5q-16 -70 -39 -140.5t-51 -148.5z" />
<glyph unicode="&#x2085;" horiz-adv-x="602" d="M92 170q0 29 6 47h170q-2 -8 -2 -20q0 -35 35 -35q33 0 38 23.5t5 47.5v86q0 31 -6 53.5t-43 22.5q-33 0 -39 -39h-152l25 484h379v-199h-238l-4 -90q18 16 40 21.5t50 5.5q61 0 94 -19.5t48.5 -56.5t18.5 -91.5t3 -123.5q0 -66 -3 -123.5t-24.5 -100.5t-66.5 -67.5 t-127 -24.5q-47 0 -85 8.5t-64.5 31t-42 61.5t-15.5 98z" />
<glyph unicode="&#x2086;" horiz-adv-x="598" d="M86 412q0 98 3 180t24.5 139t67.5 89t132 32q84 0 124.5 -25.5t56.5 -64.5q10 -20 12 -46t2 -52v-23.5t-2 -28.5h-162v23q0 14 -8 22.5t-33 8.5q-27 0 -36 -18.5t-9 -69.5v-89q18 23 44 35.5t65 12.5q45 0 74.5 -13.5t47 -45.5t24.5 -84t7 -130q0 -80 -8 -136t-31.5 -92 t-67.5 -51.5t-116 -15.5q-80 0 -122 24.5t-62.5 77t-23.5 136.5t-3 205zM258 211q0 -23 5 -36t40 -13q31 0 36 13t5 36v74q0 27 -5 46t-36 19q-35 0 -40 -19.5t-5 -45.5v-74z" />
<glyph unicode="&#x2087;" horiz-adv-x="604" d="M92 641v199h424v-172q-57 -152 -97 -333t-65 -355h-190q14 82 32.5 169t40 174t48 167.5t57.5 150.5h-250z" />
<glyph unicode="&#x2088;" horiz-adv-x="598" d="M78 211q0 102 18.5 151.5t48.5 71.5q-31 18 -44 56t-13 120q0 57 5 102.5t25.5 76t62.5 47t118 16.5t119 -16.5t64.5 -47t26.5 -75.5t5 -103q0 -82 -15.5 -119.5t-43.5 -56.5q31 -23 49 -68.5t18 -154.5q0 -57 -8 -102.5t-31.5 -76t-67.5 -47t-116 -16.5t-115 16.5 t-66.5 47t-31.5 76t-8 102.5zM256 209q0 -20 5 -34.5t38 -14.5t38 14t5 35v72q0 27 -5 46t-38 19t-38 -19.5t-5 -45.5v-72zM260 561q0 -20 5 -34.5t34 -14.5t34 14.5t5 34.5v55q0 18 -5 30.5t-34 12.5t-34 -12t-5 -31v-55z" />
<glyph unicode="&#x2089;" horiz-adv-x="600" d="M82 559q0 80 8 135.5t31.5 91t66.5 51t115 15.5q80 0 123 -24.5t63.5 -77t23.5 -137.5t3 -203q0 -100 -4 -181.5t-25.5 -138.5t-67.5 -89t-132 -32q-82 0 -122 25.5t-56 62.5q-16 41 -17 99v24.5t2 26.5h164v-21q0 -31 39 -30q29 0 38 19.5t9 68.5v88q-37 -45 -108 -45 q-47 0 -77 13t-46.5 45t-23.5 84t-7 130zM258 539q0 -29 5 -48.5t34 -19.5q35 0 41 19.5t6 48.5v71q0 23 -6 36t-41 13q-29 0 -34 -13t-5 -36v-71z" />
<glyph unicode="&#x20ab;" horiz-adv-x="899" d="M66 0v207h784v-207h-784zM92 745q0 111 4 194t25.5 138.5t69 82t135.5 26.5q66 0 112.5 -25.5t85.5 -66.5v186h-202v180h202v94h267v-94h69v-180h-69v-969h-248v72q-39 -53 -89.5 -70.5t-109.5 -17.5q-94 0 -145.5 28.5t-75 85t-27.5 141.5t-4 195zM336 680 q0 -92 20.5 -131t79.5 -39q55 0 71.5 39t16.5 127v127q0 90 -16 129t-72 39q-59 0 -79.5 -40t-20.5 -138v-113z" />
<glyph unicode="&#x20ac;" horiz-adv-x="1183" d="M49 492l55 202h72v133h-127l55 199h76q6 160 25.5 265.5t70 169t136.5 90t223 26.5q135 0 248.5 -20.5t179.5 -63.5l-94 -332q-53 49 -121 71.5t-135 22.5q-55 0 -88 -15t-50.5 -44t-22.5 -72t-5 -98h375l-72 -199h-303v-133h262l-76 -202h-186q0 -96 25.5 -142.5 t105.5 -46.5q43 0 81 25.5t38 101.5h338q0 -102 -16.5 -185t-69 -141.5t-150.5 -90t-264 -31.5q-125 0 -209 25.5t-136 85t-78 156.5t-32 243h-131z" />
<glyph unicode="&#x2122;" horiz-adv-x="1691" d="M63 1372v182h564v-182h-172v-674h-215v674h-177zM743 698v856h285l143 -532l146 532h278v-856h-198v416l-117 -407h-215l-125 407v-416h-197z" />
<glyph unicode="&#x2126;" horiz-adv-x="1269" d="M119 948q0 147 8 263t56 198t152.5 125t299.5 43q193 0 298 -43t153.5 -125t56.5 -197.5t8 -263.5q0 -90 -13.5 -181t-38 -171t-58 -144.5t-74.5 -101.5h163v-350h-428v281q72 98 96.5 241.5t24.5 349.5q0 90 -3 154t-20.5 103.5t-56 58t-108.5 18.5q-72 0 -110 -18.5 t-55 -58t-20.5 -103t-3.5 -154.5q0 -207 25 -350t96 -241v-281h-428v350h164q-41 37 -74.5 101.5t-58.5 144.5t-38 171t-13 181z" />
<glyph unicode="&#x2153;" horiz-adv-x="1409" d="M127 1411l181 246h174v-860h-179v581l-71 -98zM201 -43l712 1640h220l-709 -1640h-223zM840 207v35h174v-29q0 -23 5 -38t34 -15q35 0 42 15t7 38v70q0 29 -5 48t-38 19h-100v156h102q29 0 33 15.5t4 33.5v61q0 18 -7 30.5t-38 12.5q-27 0 -32 -11t-5 -27v-23h-168v35 q0 39 4 78t24.5 70.5t62.5 51t118 19.5t119 -19.5t64.5 -53.5t26.5 -78t5 -91q0 -59 -12.5 -105t-48.5 -69q70 -47 69 -223q0 -51 -7 -96t-30.5 -78t-67.5 -51.5t-118 -18.5q-72 0 -115 18.5t-65.5 51.5t-29.5 76t-7 92z" />
<glyph unicode="&#x2154;" horiz-adv-x="1409" d="M127 797v145q0 68 8 119t27.5 92t50.5 73.5t78 63.5t67.5 52.5t20.5 68.5q0 41 -7 51t-30 10t-30 -15t-7 -42q0 -25 2 -31h-172q-2 18 -3 34.5t-1 29.5q0 74 18.5 118t47 67.5t66.5 29.5t79 6q45 0 83 -10.5t66.5 -38t45 -74.5t16.5 -121q0 -55 -5 -98t-22.5 -79 t-49.5 -67.5t-83 -66.5t-72.5 -59.5t-21.5 -59.5h256v-198h-428zM238 -43l712 1640h220l-709 -1640h-223zM842 207v35h174v-29q0 -23 5 -38t34 -15q35 0 42 15t7 38v70q0 29 -5 48t-38 19h-100v156h102q29 0 33 15.5t4 33.5v61q0 18 -7 30.5t-38 12.5q-27 0 -32 -11t-5 -27 v-23h-168v35q0 39 4 78t24.5 70.5t62.5 51t118 19.5t119 -19.5t64.5 -53.5t26.5 -78t5 -91q0 -59 -12.5 -105t-48.5 -69q70 -47 69 -223q0 -51 -7 -96t-30.5 -78t-67.5 -51.5t-118 -18.5q-72 0 -115 18.5t-65.5 51.5t-29.5 76t-7 92z" />
<glyph unicode="&#x215b;" horiz-adv-x="1394" d="M127 1411l181 246h174v-860h-179v581l-71 -98zM191 -43l712 1640h220l-709 -1640h-223zM821 211q0 102 18.5 151.5t48.5 71.5q-31 18 -44 56t-13 120q0 57 5 102.5t25.5 76t62.5 47t118 16.5t119 -16.5t64.5 -47t26.5 -75.5t5 -103q0 -82 -15.5 -119.5t-43.5 -56.5 q31 -23 49 -68.5t18 -154.5q0 -57 -8 -102.5t-31.5 -76t-67.5 -47t-116 -16.5t-115 16.5t-66.5 47t-31.5 76t-8 102.5zM999 209q0 -20 5 -34.5t38 -14.5t38 14t5 35v72q0 27 -5 46t-38 19t-38 -19.5t-5 -45.5v-72zM1003 561q0 -20 5 -34.5t34 -14.5t34 14.5t5 34.5v55 q0 18 -5 30.5t-34 12.5t-34 -12t-5 -31v-55z" />
<glyph unicode="&#x215c;" horiz-adv-x="1357" d="M127 1024v35h174v-29q0 -23 5 -38t34 -15q35 0 42 15t7 38v70q0 29 -5 48t-38 19h-100v156h102q29 0 33 15.5t4 33.5v61q0 18 -7 30.5t-38 12.5q-27 0 -32 -11t-5 -27v-23h-168v35q0 39 4 78t24.5 70.5t62.5 51t118 19.5t119 -19.5t64.5 -53.5t26.5 -78t5 -91 q0 -59 -12.5 -105t-48.5 -69q70 -47 69 -223q0 -51 -7 -96t-30.5 -78t-67.5 -51.5t-118 -18.5q-72 0 -115 18.5t-65.5 51.5t-29.5 76t-7 92zM187 -43l712 1640h220l-709 -1640h-223zM785 211q0 102 18.5 151.5t48.5 71.5q-31 18 -44 56t-13 120q0 57 5 102.5t25.5 76 t62.5 47t118 16.5t119 -16.5t64.5 -47t26.5 -75.5t5 -103q0 -82 -15.5 -119.5t-43.5 -56.5q31 -23 49 -68.5t18 -154.5q0 -57 -8 -102.5t-31.5 -76t-67.5 -47t-116 -16.5t-115 16.5t-66.5 47t-31.5 76t-8 102.5zM963 209q0 -20 5 -34.5t38 -14.5t38 14t5 35v72q0 27 -5 46 t-38 19t-38 -19.5t-5 -45.5v-72zM967 561q0 -20 5 -34.5t34 -14.5t34 14.5t5 34.5v55q0 18 -5 30.5t-34 12.5t-34 -12t-5 -31v-55z" />
<glyph unicode="&#x215d;" horiz-adv-x="1368" d="M127 987q0 29 6 47h170q-2 -8 -2 -20q0 -35 35 -35q33 0 38 23.5t5 47.5v86q0 31 -6 53.5t-43 22.5q-33 0 -39 -39h-152l25 484h379v-199h-238l-4 -90q18 16 40 21.5t50 5.5q61 0 94 -19.5t48.5 -56.5t18.5 -91.5t3 -123.5q0 -66 -3 -123.5t-24.5 -100.5t-66.5 -67.5 t-127 -24.5q-47 0 -85 8.5t-64.5 31t-42 61.5t-15.5 98zM183 -43l712 1640h220l-709 -1640h-223zM795 211q0 102 18.5 151.5t48.5 71.5q-31 18 -44 56t-13 120q0 57 5 102.5t25.5 76t62.5 47t118 16.5t119 -16.5t64.5 -47t26.5 -75.5t5 -103q0 -82 -15.5 -119.5t-43.5 -56.5 q31 -23 49 -68.5t18 -154.5q0 -57 -8 -102.5t-31.5 -76t-67.5 -47t-116 -16.5t-115 16.5t-66.5 47t-31.5 76t-8 102.5zM973 209q0 -20 5 -34.5t38 -14.5t38 14t5 35v72q0 27 -5 46t-38 19t-38 -19.5t-5 -45.5v-72zM977 561q0 -20 5 -34.5t34 -14.5t34 14.5t5 34.5v55 q0 18 -5 30.5t-34 12.5t-34 -12t-5 -31v-55z" />
<glyph unicode="&#x215e;" horiz-adv-x="1333" d="M127 -43l712 1640h220l-709 -1640h-223zM137 1458v199h424v-172q-57 -152 -97 -333t-65 -355h-190q14 82 32.5 169t40 174t48 167.5t57.5 150.5h-250zM760 211q0 102 18.5 151.5t48.5 71.5q-31 18 -44 56t-13 120q0 57 5 102.5t25.5 76t62.5 47t118 16.5t119 -16.5 t64.5 -47t26.5 -75.5t5 -103q0 -82 -15.5 -119.5t-43.5 -56.5q31 -23 49 -68.5t18 -154.5q0 -57 -8 -102.5t-31.5 -76t-67.5 -47t-116 -16.5t-115 16.5t-66.5 47t-31.5 76t-8 102.5zM938 209q0 -20 5 -34.5t38 -14.5t38 14t5 35v72q0 27 -5 46t-38 19t-38 -19.5t-5 -45.5 v-72zM942 561q0 -20 5 -34.5t34 -14.5t34 14.5t5 34.5v55q0 18 -5 30.5t-34 12.5t-34 -12t-5 -31v-55z" />
<glyph unicode="&#x2202;" horiz-adv-x="960" d="M63 387q0 104 26 196.5t77 163t128 111.5t179 41q49 0 95 -18.5t81 -53.5q2 31 3 70t1 78q0 59 -7 115.5t-24.5 101.5t-48 71.5t-79.5 26.5q-23 0 -45.5 -4t-42.5 -14v287q18 10 50.5 14t88.5 4q121 0 190.5 -65.5t104 -161t44 -204t9.5 -194.5q0 -92 -8 -200.5 t-29.5 -218t-57.5 -212t-93.5 -181.5t-138.5 -126t-189 -47q-82 0 -141.5 33t-97.5 90t-56.5 134t-18.5 163zM303 422q0 -166 113 -166q51 0 85 28.5t55.5 78t34.5 112.5t25 135q-29 29 -61.5 50.5t-65.5 21.5q-186 0 -186 -260z" />
<glyph unicode="&#x2206;" d="M55 0l324 1554h414l313 -1554h-1051zM498 350h166l-31 201q-10 59 -16.5 111.5t-12.5 101.5t-11 99t-11 106q-8 -111 -21.5 -206t-32.5 -214z" />
<glyph unicode="&#x220f;" horiz-adv-x="976" d="M57 -375v1929h865v-1929h-293v1649h-281v-1649h-291z" />
<glyph unicode="&#x2211;" horiz-adv-x="1009" d="M80 -41l379 688l-379 686v221h850v-309h-494l336 -598l-336 -604h494v-307h-850v223z" />
<glyph unicode="&#x2212;" horiz-adv-x="1007" d="M57 633v250h893v-250h-893z" />
<glyph unicode="&#x221a;" horiz-adv-x="989" d="M31 539v247h303l106 -430l275 1198h243l-366 -1554h-303l-135 539h-123z" />
<glyph unicode="&#x221e;" horiz-adv-x="1015" d="M47 760q0 131 20.5 205.5t54.5 111.5t80 45t97 8q39 0 73 -6t59.5 -25.5t45 -54t29.5 -92.5q10 57 28.5 92t45 54.5t59.5 25.5t74 6q51 0 98 -8t81 -45t54.5 -111.5t20.5 -205.5q0 -133 -20.5 -208t-54.5 -112t-81 -45t-98 -8q-41 0 -74 7t-59.5 26.5t-45 54.5t-28.5 90 q-10 -55 -29.5 -90t-45 -54.5t-59.5 -26.5t-73 -7q-51 0 -97 8t-80 45t-54.5 112t-20.5 208zM201 760q0 -57 29.5 -68.5t70.5 -11.5h43q20 0 41 1t36 9t24.5 23.5t9.5 46.5q0 29 -9.5 45t-24.5 23.5t-35.5 8.5t-41.5 1h-43q-41 0 -70.5 -10.5t-29.5 -67.5zM559 760 q0 -31 9.5 -46.5t24.5 -23.5t34.5 -9t40.5 -1h45q41 0 70.5 11t29.5 69q0 57 -29.5 67.5t-70.5 10.5h-45q-20 0 -40 -1t-35 -8.5t-24.5 -24t-9.5 -44.5z" />
<glyph unicode="&#x222b;" horiz-adv-x="1032" d="M131 -104h125q51 0 63.5 20.5t12.5 81.5v1163q0 111 32.5 185.5t87 120.5t126 66.5t149.5 20.5h176v-356h-129q-51 0 -62.5 -20.5t-11.5 -81.5v-1166q0 -111 -32.5 -185.5t-88 -120.5t-127 -66.5t-147.5 -20.5h-174v359z" />
<glyph unicode="&#x2248;" horiz-adv-x="1249" d="M57 283v248q133 82 295 82q74 0 141.5 -14.5t135 -31t137.5 -31t147 -14.5q51 0 90 5.5t71 17.5t59.5 30.5t58.5 47.5v-248q-127 -84 -295 -84q-72 0 -138.5 14.5t-133 33t-136 32.5t-145.5 14q-53 0 -92 -6t-72 -18.5t-61.5 -32t-61.5 -45.5zM57 813v248q133 82 295 82 q74 0 141.5 -14.5t135 -31t137.5 -31t147 -14.5q51 0 90 5.5t71 17.5t59.5 30.5t58.5 47.5v-248q-127 -84 -295 -84q-72 0 -138.5 14.5t-133 33t-136 32.5t-145.5 14q-53 0 -92 -6t-72 -18.5t-61.5 -32t-61.5 -45.5z" />
<glyph unicode="&#x2260;" horiz-adv-x="1376" d="M41 -39l295 436h-82v250h252l149 221h-401v250h571l297 436h211l-297 -436h111v-250h-279l-149 -221h428v-250h-598l-293 -436h-215z" />
<glyph unicode="&#x2264;" horiz-adv-x="1007" d="M57 -102v250h893v-250h-893zM57 662v206l893 480v-295l-622 -287l622 -289v-295z" />
<glyph unicode="&#x2265;" horiz-adv-x="1007" d="M57 -102v250h893v-250h-893zM57 182v295l625 289l-625 287v295l893 -480v-206z" />
<glyph unicode="&#x22c5;" horiz-adv-x="591" d="M127 676v328h336v-328h-336z" />
<glyph unicode="&#x25ca;" horiz-adv-x="983" d="M14 776l328 778h320l309 -778l-309 -776h-320zM317 776l181 -426l180 426l-180 430z" />
<glyph unicode="&#x25fc;" horiz-adv-x="1085" d="M0 0v1085h1085v-1085h-1085z" />
<glyph unicode="&#xe000;" horiz-adv-x="1214" d="M121 778q0 233 12.5 388t61.5 246t146 128t267 37q168 0 265.5 -37t146.5 -128t61.5 -245.5t12.5 -388.5q0 -233 -12.5 -386.5t-61.5 -245t-146.5 -128t-265.5 -36.5q-170 0 -267 36.5t-146 128t-61.5 245t-12.5 386.5zM494 584q0 -70 2 -123t12 -88t33.5 -53.5 t66.5 -18.5t66 18.5t33 53.5t12 88t2 123v403q0 66 -2 116t-13.5 84t-34 50t-63.5 16q-43 0 -65.5 -16t-33.5 -50t-13 -84t-2 -116v-403z" />
<glyph unicode="&#xe001;" horiz-adv-x="804" d="M51 1227l289 327h334v-1554h-307v1067q0 53 4 111.5t8 95.5q-18 -29 -51 -75t-68 -85l-53 -61z" />
<glyph unicode="&#xe002;" horiz-adv-x="1167" d="M121 0v250q0 123 17.5 216t59.5 167t110.5 132t172.5 112q57 31 95 54t60.5 49t31 58.5t8.5 81.5q0 78 -18.5 106.5t-67.5 28.5q-53 0 -70.5 -33.5t-17.5 -93.5q0 -33 2 -43h-361q-4 27 -4 52.5v50.5q0 131 38 209t99.5 117.5t141.5 51t164 11.5q94 0 178 -18.5 t147.5 -67.5t99 -132t35.5 -212q0 -72 -5 -135.5t-23.5 -119.5t-53 -104.5t-92.5 -91.5q-61 -47 -129.5 -80.5t-134.5 -74.5q-29 -18 -56.5 -38t-47 -44.5t-29.5 -57t-4 -75.5h579v-326h-925z" />
<glyph unicode="&#xe003;" horiz-adv-x="1196" d="M121 399v43.5t2 30.5h359q-2 -12 -2 -25.5v-35.5q0 -25 2 -46.5t13 -39t32.5 -26.5t60.5 -9q41 0 63.5 9t33 26.5t12.5 39t2 46.5v110q0 31 -2 57.5t-11.5 46t-31 32t-60.5 12.5h-178v282h182q35 0 54.5 9.5t29 26t10.5 35.5t1 42v96q0 20 -2.5 40t-12.5 33t-30.5 21.5 t-57.5 8.5q-35 0 -55.5 -8.5t-30.5 -20.5t-12 -29.5t-2 -36.5q0 -27 2 -34h-348q-2 10 -2 19v36q0 70 9 138.5t53 123.5t135 90t257 35q162 0 255 -35t139.5 -94t57.5 -137t11 -162q0 -119 -39 -207t-149 -115q111 -23 158 -128t47 -285q0 -92 -16.5 -172t-67 -137.5 t-145.5 -90t-251 -32.5q-160 0 -254 32.5t-143 89t-63.5 132t-14.5 163.5z" />
<glyph unicode="&#xe004;" horiz-adv-x="1046" d="M64 242v368l391 944h449v-987h83v-325h-83v-242h-351v242h-489zM371 567h190l5 279q0 68 2 136.5t10 133.5q-18 -63 -41 -121.5t-45 -117.5z" />
<glyph unicode="&#xe005;" d="M121 336v38t2 25h360q-2 -4 -2 -11v-13q0 -10 2 -24.5t10.5 -27t26 -21.5t47.5 -9q37 0 57.5 14.5t30 37t11.5 50t2 56.5v161q0 31 -2 60.5t-12.5 52.5t-33 36t-63.5 13q-47 0 -68.5 -19.5t-29.5 -56.5h-318l58 856h811v-325h-502l-19 -250q35 53 90.5 71.5t129.5 18.5 q125 0 192.5 -35t98 -100.5t35.5 -163.5t5 -223q0 -117 -7 -220.5t-52 -179t-142.5 -119.5t-277.5 -44q-98 0 -180 15t-139.5 55t-89 107.5t-31.5 174.5z" />
<glyph unicode="&#xe006;" horiz-adv-x="1167" d="M121 780q0 180 7 326.5t53 251t146.5 162t284.5 57.5q88 0 164 -11.5t130.5 -46t85 -98t30.5 -170.5q0 -20 -1 -39.5t-3 -35.5h-336q2 6 2 20q0 35 -19.5 57.5t-78.5 22.5q-63 0 -84 -41t-21 -145v-224q35 59 94.5 91t159.5 32q94 0 154.5 -23.5t95.5 -80t48.5 -149.5 t13.5 -230q0 -143 -16.5 -243.5t-66 -163t-139.5 -90t-239 -27.5q-166 0 -260.5 44t-139.5 139t-55 246.5t-10 368.5zM481 410q0 -25 2 -46.5t11.5 -37t31 -24.5t60.5 -9q37 0 57.5 9t29.5 24.5t11 37t2 46.5v133q0 29 -2 55.5t-11 47t-29.5 32.5t-57.5 12q-39 0 -60.5 -12 t-31 -32.5t-11.5 -47.5t-2 -55v-133z" />
<glyph unicode="&#xe007;" horiz-adv-x="933" d="M64 1229v325h811v-290q-57 -131 -105.5 -289t-86.5 -325t-63.5 -333.5t-39.5 -316.5h-402q20 150 58 315.5t86.5 328.5t105.5 314.5t121 270.5h-485z" />
<glyph unicode="&#xe008;" horiz-adv-x="1171" d="M121 410q0 109 13 180.5t38.5 117.5t61.5 71.5t81 41.5q-41 14 -72.5 36t-55 58.5t-36 93t-12.5 140.5q0 102 11.5 182t56.5 134.5t134 83t244 28.5q156 0 245 -28.5t134 -83t56.5 -134.5t11.5 -182q0 -84 -12.5 -140.5t-35 -93t-55 -58t-73.5 -36.5q45 -16 81 -41.5 t61.5 -71.5t38.5 -118t13 -180q0 -102 -16 -182.5t-66.5 -134.5t-141.5 -82.5t-241 -28.5t-240.5 28.5t-141 82.5t-66.5 134t-16 183zM485 408q0 -25 2 -46.5t11.5 -37t30 -24.5t56.5 -9q39 0 59.5 9t30 24.5t11.5 37t2 46.5v127q0 31 -2 57t-11.5 45.5t-30 32t-59.5 12.5 q-37 0 -57 -12.5t-29.5 -32t-11.5 -46t-2 -56.5v-127zM489 1057q0 -23 1 -42.5t10.5 -35.5t29 -25.5t55.5 -9.5q37 0 56.5 9.5t29 25.5t10.5 35.5t1 42.5v104q0 43 -16.5 73t-80.5 30q-33 0 -51 -8.5t-28.5 -21.5t-13.5 -32.5t-3 -40.5v-104z" />
<glyph unicode="&#xe009;" horiz-adv-x="1167" d="M121 1053q0 143 16 243.5t65.5 163t139.5 90t239 27.5q166 0 260.5 -44t139.5 -139.5t55 -247t10 -368.5q0 -180 -8 -326.5t-54 -251t-145.5 -161.5t-283.5 -57q-90 0 -165 11t-128 46t-84 98.5t-31 169.5v40t2 36h336q-2 -6 -2 -21q0 -35 19.5 -57t78.5 -22q63 0 84 41 t21 145v223q-35 -59 -94.5 -91t-159.5 -32q-94 0 -154.5 23.5t-95.5 80t-48 148.5t-13 232zM481 1016q0 -29 2 -55.5t11.5 -47t30 -33t56.5 -12.5q39 0 60.5 12.5t31 33t11.5 47t2 55.5v133q0 25 -2 46.5t-11.5 36.5t-31 24.5t-60.5 9.5q-37 0 -57 -9.5t-29.5 -24.5 t-11.5 -36.5t-2 -46.5v-133z" />
<glyph unicode="&#xe00a;" horiz-adv-x="1067" d="M98 608q0 180 11.5 301t55.5 193t130 101.5t237 29.5q150 0 237 -29.5t132 -101.5t56.5 -193t11.5 -301t-11.5 -301t-56.5 -192.5t-132 -102t-237 -30.5q-152 0 -237.5 30.5t-129.5 102t-55.5 192.5t-11.5 301zM442 461q0 -84 11 -126t79 -42t79.5 42t11.5 126v280 q0 45 -1 78t-10.5 55.5t-28 34t-51.5 11.5q-35 0 -52 -11.5t-26.5 -34t-10.5 -55.5t-1 -78v-280z" />
<glyph unicode="&#xe00b;" horiz-adv-x="774" d="M53 901l264 311h351v-1212h-351v756l-71 -78z" />
<glyph unicode="&#xe00c;" horiz-adv-x="1028" d="M98 0v205q0 66 8.5 127t29 114.5t55 98.5t88.5 80q47 31 93 51t93 43q20 10 42.5 18t41 20.5t30 32t11.5 50.5q0 53 -19.5 66.5t-56.5 13.5q-31 0 -56.5 -9.5t-25.5 -44.5q0 -14 2 -18h-315q-2 12 -3 23.5t-1 23.5q0 113 32.5 180.5t89 102t129 45t152.5 10.5 q104 0 182 -13.5t128.5 -52.5t76 -109.5t25.5 -185.5q0 -123 -29 -192.5t-79 -111.5t-118.5 -66.5t-146.5 -57.5q-20 -8 -47 -18t-50.5 -24.5t-40 -33t-16.5 -42.5h529v-326h-834z" />
<glyph unicode="&#xe00d;" horiz-adv-x="1071" d="M98 57v42.5t2 29.5h334q-2 -8 -2 -29.5v-33.5q0 -25 2 -46.5t11.5 -37t28 -24.5t52.5 -9q37 0 56.5 13t29 32.5t11.5 45.5t2 50v84q0 31 -1 57.5t-10.5 46t-28 32t-53.5 12.5h-200v282h203q31 0 48 9.5t25 25.5t9 35.5t1 42.5v100q0 43 -14 73t-78 30q-63 0 -76.5 -29 t-13.5 -64q0 -29 2 -36h-319q-2 16 -2 41.5v48.5q0 55 9 116.5t49 113.5t124 87t233 35q150 0 235 -36t128 -95.5t53 -136t10 -160.5q0 -141 -43 -219t-135 -107q104 -37 148.5 -129t44.5 -235q0 -111 -15.5 -199t-61.5 -149.5t-133 -94t-231 -32.5q-145 0 -231 31.5 t-131 88t-58.5 132t-13.5 165.5z" />
<glyph unicode="&#xe00e;" horiz-adv-x="1013" d="M49 0v367l381 845h438v-886h97v-326h-97v-342h-327v342h-492zM354 326h197l2 303q0 68 5 134t15 128q-18 -59 -40.5 -124t-49.5 -124z" />
<glyph unicode="&#xe00f;" horiz-adv-x="1042" d="M98 -23q0 29 1 51.5t3 28.5h330q-2 -10 -2 -15v-19q0 -31 16.5 -52.5t61.5 -21.5q35 0 54.5 14t28.5 38t10 51.5t1 53.5v156q0 29 -1 57.5t-9 50t-27.5 35t-54.5 13.5q-47 0 -67.5 -17.5t-26.5 -56.5h-297l49 868h747v-325h-460l-19 -258q18 25 35.5 42t41.5 27.5 t53.5 15.5t70.5 5q106 0 167.5 -33t92.5 -103.5t39 -181t8 -266.5q0 -92 -7 -181t-48 -158.5t-130 -112.5t-255 -43q-84 0 -158 15t-129 53t-87 103.5t-32 165.5z" />
<glyph unicode="&#xe010;" horiz-adv-x="1042" d="M98 780q0 180 7.5 326.5t49.5 251t133 162t259 57.5q76 0 143.5 -12.5t118.5 -48t81 -99t30 -166.5q0 -20 -1 -39.5t-1 -35.5h-310q2 6 2 20q0 35 -17.5 57.5t-70.5 22.5q-57 0 -75.5 -41t-18.5 -145l-12 -224q33 59 88 91t149 32q86 0 142.5 -23.5t89.5 -80t46 -149.5 t13 -230q0 -143 -15.5 -243.5t-61.5 -163t-131 -90t-224 -27.5q-156 0 -240 44t-122.5 139t-45 246.5t-6.5 368.5zM428 410q0 -25 1 -46.5t10.5 -37t28.5 -24.5t54 -9q33 0 51.5 9t27.5 24.5t10 37t1 46.5v133q0 29 -1 55.5t-10 47t-27.5 32.5t-51.5 12q-35 0 -54 -12 t-28.5 -32.5t-10.5 -47.5t-1 -55v-133z" />
<glyph unicode="&#xe011;" horiz-adv-x="835" d="M49 887v325h737v-292q-98 -303 -158.5 -623t-84.5 -639h-369q18 158 49 323.5t71 326.5t87 309.5t98 269.5h-430z" />
<glyph unicode="&#xe012;" horiz-adv-x="1126" d="M98 410q0 109 13.5 180.5t38 117.5t60.5 71.5t81 41.5q-41 14 -73 36t-54.5 58.5t-34.5 93t-12 140.5q0 102 11 182t56 134.5t134.5 83t244.5 28.5q156 0 245 -28.5t134 -83t56.5 -134.5t11.5 -182q0 -84 -12.5 -140.5t-36 -93t-56.5 -58t-71 -36.5q45 -16 80.5 -41.5 t61 -71.5t39 -118t13.5 -180q0 -102 -16.5 -182.5t-66.5 -134.5t-141 -82.5t-241 -28.5q-152 0 -243 28.5t-140 82.5t-65.5 134t-16.5 183zM461 408q0 -25 2 -46.5t11 -37t29.5 -24.5t59.5 -9q37 0 57.5 9t29.5 24.5t11.5 37t2.5 46.5v127q0 31 -2.5 57t-11.5 45.5t-29.5 32 t-57.5 12.5q-39 0 -59.5 -12.5t-29.5 -32t-11 -46t-2 -56.5v-127zM467 1057q0 -23 1 -42.5t10 -35.5t28.5 -25.5t56.5 -9.5t56.5 9.5t28.5 25.5t10 35.5t1 42.5v104q0 43 -16 73t-80 30q-66 0 -81 -30t-15 -73v-104z" />
<glyph unicode="&#xe013;" horiz-adv-x="1042" d="M98 709q0 143 15.5 243.5t61.5 163t130 90t223 27.5q156 0 241 -44t124 -139.5t45 -247t6 -368.5q0 -180 -7 -326.5t-49 -251t-134 -161.5t-260 -57q-76 0 -143.5 12t-119 48t-81 99.5t-29.5 165.5q0 20 1 40t1 36h311q-2 -6 -2 -21q0 -35 17.5 -57t70.5 -22 q57 0 75.5 40.5t18.5 145.5l11 223q-33 -59 -88.5 -91t-147.5 -32q-86 0 -142.5 23.5t-89 80t-46 148.5t-13.5 232zM430 672q0 -29 1 -55.5t10.5 -47t26.5 -33t52 -12.5t54.5 12.5t28.5 33t10 47t1 55.5v133q0 25 -1 46t-10 36.5t-28.5 25t-54.5 9.5t-52 -9.5t-26.5 -25 t-10.5 -37t-1 -45.5v-133z" />
<glyph unicode="&#xf8ff;" horiz-adv-x="501" />
<glyph unicode="&#xfb01;" horiz-adv-x="1310" d="M59 823v267h76v81q0 111 18.5 187t59.5 124t104.5 68.5t155.5 20.5q49 0 85 -7.5t52 -15.5v-276q-6 4 -19 6t-40 2q-39 0 -51.5 -26.5t-12.5 -73.5v-90h117v-267h-117v-823h-354v823h-74zM815 0v1090h355v-1090h-355zM815 1255v299h355v-299h-355z" />
<glyph unicode="&#xfb02;" horiz-adv-x="1304" d="M59 823v267h76v81q0 111 18.5 187t59.5 124t104.5 68.5t155.5 20.5q49 0 85 -7.5t52 -15.5v-276q-6 4 -19 6t-40 2q-39 0 -51.5 -26.5t-12.5 -73.5v-90h117v-267h-117v-823h-354v823h-74zM813 0v1554h355v-1554h-355z" />
<glyph horiz-adv-x="1064" d="M127 1118v107l262 133l264 -133v-107l-264 105zM590 1362v18q0 31 3 58.5t20.5 47t52 32t96.5 12.5q63 0 98 -11.5t51.5 -30t20.5 -40t4 -39.5q0 -35 -4 -65.5t-29 -57.5q-16 -18 -34.5 -32.5t-34.5 -30.5q-18 -16 -22.5 -29.5t-4.5 -32.5v-2h-115v6q0 29 2 50.5t19 41.5 q10 16 30.5 31t36.5 31q14 10 17.5 24.5t3.5 30.5q0 27 -5 49.5t-38 22.5q-35 0 -40 -22.5t-5 -43.5v-18h-123z" />
<glyph horiz-adv-x="813" d="M127 1366h16v109q29 25 65 37t75 12q35 0 65.5 -9.5t61 -19.5t62.5 -19.5t69 -9.5q51 0 79.5 15.5t55.5 48.5v-125q-35 -27 -64 -39h72q-10 -111 -81 -174.5t-200 -63.5q-119 0 -190.5 63.5t-85.5 174.5zM158 1366h123q10 -59 41.5 -85t80.5 -26q100 0 121 97 q-31 0 -60.5 10t-58 20.5t-59.5 19.5t-65 9q-45 0 -72 -11t-51 -34z" />
<glyph horiz-adv-x="813" d="M127 1366h154q10 -59 41.5 -85t80.5 -26q53 0 84 26t41 85h156q-10 -111 -81 -174.5t-200 -63.5q-119 0 -190.5 63.5t-85.5 174.5zM279 1419v13q0 20 3 37.5t15 30.5t37.5 21.5t73.5 8.5q45 0 70.5 -7t37.5 -19.5t14 -27t2 -26.5q0 -23 -3 -43.5t-23 -36.5 q-12 -12 -25.5 -21.5t-27.5 -21.5q-10 -10 -11.5 -18.5t-1.5 -20.5v-2h-84v4q0 18 2 32.5t13 29.5q6 10 19 19t28 20q14 12 14 36q0 16 -4 32t-29 16q-23 0 -25.5 -14.5t-2.5 -28.5v-13h-92z" />
<glyph horiz-adv-x="813" d="M127 1366h154q10 -59 41.5 -85t80.5 -26t81 24t42 77l-186 -60v93l315 141v-131l-100 -33h129q-10 -111 -81 -174.5t-200 -63.5q-119 0 -190.5 63.5t-85.5 174.5z" />
<glyph horiz-adv-x="813" d="M127 1366h129l-102 33v131l315 -141v-93l-186 60q12 -53 42.5 -77t82.5 -24q49 0 80.5 26t41.5 85h154q-14 -111 -86 -174.5t-190 -63.5q-129 0 -200 63.5t-81 174.5z" />
<glyph horiz-adv-x="962" d="M127 1368v162l313 -164v-74l131 66l263 -133v-107l-263 105l-266 -105v107l113 55z" />
<glyph horiz-adv-x="962" d="M127 1118v107l262 133l131 -66v74l314 164v-162l-293 -88l112 -55v-107l-264 105z" />
</font>
</defs>
</svg>
